<svg width="274" height="307" viewBox="0 0 274 407" fill="none" xmlns="http://www.w3.org/2000/svg"><path opacity=".2" fill-rule="evenodd" clip-rule="evenodd" d="M-23.363-73.881v19.12l-2.465.645c-13.562 3.553-23.545 7.055-36.362 12.755l-9.534 4.24-2.289-2.562c-1.259-1.41-6.71-7.783-12.112-14.164-5.403-6.38-10.051-11.6-10.33-11.6-.28 0-3.851 2.886-7.937 6.415a2400.036 2400.036 0 0 1-15.549 13.285 5067.52 5067.52 0 0 0-11.021 9.345c-21.034 17.95-30.012 25.62-35.168 30.044l-6.166 5.29L-171.06.46c.679.84 5.934 7.064 11.676 13.83 5.742 6.765 10.689 12.651 10.992 13.08.393.555-.147 1.751-1.875 4.154-5.726 7.963-11.652 18.091-17.151 29.313-4.967 10.136-6.086 12.019-7.159 12.036-1.175.018-25.426-3.84-32.613-5.19-1.728-.325-3.22-.511-3.316-.415-.097.096-1.88 10.472-3.963 23.057-2.083 12.585-4.179 25.1-4.66 27.812-.479 2.712-.872 5.258-.871 5.659.001.58 8.976.698 43.918.58l43.917-.149.511-2.32c1.226-5.559 5.113-18.463 7.083-23.51 14.918-38.227 43.02-69.029 79.607-87.255C-11.885-5.337 26.396-9.9 62.45-1.658c59.118 13.51 106.136 59.498 120.997 118.345l1.904 7.54 43.845.149c30.218.103 43.846-.04 43.846-.458 0-.97-9.296-56.453-9.491-56.649-.098-.097-1.591.09-3.319.414-7.123 1.337-31.442 5.21-32.718 5.21-.924 0-1.51-.43-1.777-1.305-.781-2.55-8.344-17.644-11.989-23.927-3.807-6.562-8.322-13.564-11.882-18.428-1.114-1.521-1.895-3.087-1.736-3.48.16-.392 2.731-3.617 5.713-7.165C221.87-.479 223.922-3.158 223.09-3.932c-2.451-2.278-75.071-62.542-75.62-62.752-.362-.14-6.053 6.255-12.649 14.21L122.83-38.013l-7.406-3.367c-10.968-4.986-23.319-9.29-36.554-12.74l-2.465-.643V-93h-99.768v19.119zM10.86 7.573c-3.67.355-6.606.84-6.526 1.08.08.24.145 1.254.145 2.256v1.82l3.48-.315c3.264-.296 3.484-.238 3.535.935.03.687.356 5.295.725 10.24l.67 8.991H15.5c2.431 0 2.602-.1 2.485-1.45-1.262-14.696-1.4-18.737-.657-19.208.43-.273 2.022-.5 3.537-.505 2.928-.01 3.187-.371 2.39-3.344-.407-1.52-1.424-1.56-12.395-.5zm18.36 5.376c-.561 9.161-.462 14.463.3 16.138 1.041 2.284 3.98 3.778 8.118 4.128 4.559.386 7.252-.81 8.756-3.884.952-1.945 1.825-8.699 2.281-17.633l.178-3.48-2.465-.329c-1.356-.18-2.476-.18-2.488 0-.79 11.574-1.724 18.855-2.519 19.65-1.36 1.36-4.772 1.176-6.286-.338-1.372-1.372-1.471-4.003-.549-14.437.23-2.604.325-5.019.21-5.365-.117-.347-1.325-.631-2.685-.631h-2.473l-.379 6.181zm-34.312-2.756c-1.421.317-1.711.65-1.583 1.817.157 1.431 4.61 21.717 5.046 22.983.262.762 4.948-.167 4.948-.98 0-.252-1.175-5.636-2.61-11.966-1.435-6.33-2.61-11.704-2.61-11.944 0-.49-.673-.47-3.19.09zm-16.775 4.728c-4.441 1.58-8.153 2.951-8.25 3.048-.096.096.086 1.123.406 2.28l.582 2.106 3.264-1.123c1.795-.618 3.331-1.123 3.414-1.123.084 0 1.634 4.447 3.445 9.882 3.594 10.783 3.06 10.127 7.033 8.642 1.218-.456 1.183-.624-2.134-10.331l-3.373-9.869 2.714-.966c1.493-.531 3.02-1.052 3.395-1.157 1.06-.297-.353-4.33-1.504-4.291-.504.016-4.55 1.322-8.992 2.902zm82.855-2.11c-6.024 2.623-9.384 13.977-5.958 20.137 3.312 5.956 12.651 7.01 16.683 1.886 1.62-2.06 1.528-2.62-.667-4.042l-1.863-1.208-1.823 1.933c-2.281 2.419-4.836 2.607-6.932.51-1.376-1.376-1.68-2.74-1.429-6.395.291-4.217 3.724-9.003 6.458-9.003 2.192 0 4.52 1.684 5.022 3.633.437 1.697.716 1.894 2.914 2.055 2.415.178 2.432.166 2.432-1.799 0-5.944-8.612-10.418-14.837-7.707zm22.421 8.603c-.592 1.356-2.693 6.12-4.67 10.586-4.662 10.532-4.52 9.89-2.419 10.977.972.503 2.004.914 2.293.914.543 0 10.867-22.521 10.48-22.863-.415-.366-3.932-2.079-4.27-2.079-.186 0-.822 1.11-1.414 2.465zM-44.54 24.671c-1.278.581-3.171 2.02-4.205 3.198-1.51 1.719-1.88 2.643-1.88 4.687 0 3.118 2.019 5.817 4.959 6.628 1.8.498 6.829-.154 10.722-1.39 1.145-.363 2.88 1.087 2.88 2.406 0 2.756-3.92 5.317-6.586 4.303-.782-.297-1.593-.817-1.802-1.156-.593-.958-1.611-.732-3.5.78l-1.736 1.39 1.155 1.276c3.941 4.355 10.752 3.718 15.27-1.428 1.003-1.142 1.992-2.747 2.198-3.567.842-3.358-2.188-8.492-5.503-9.324-.815-.204-2.928-.048-4.695.347-6.207 1.388-8.081 1.462-8.514.335-.535-1.394.372-2.704 2.689-3.886 1.79-.914 2.06-.918 3.517-.058 1.486.878 1.698.858 3.643-.344 2.397-1.482 2.293-2.401-.467-4.107-2.339-1.445-5.094-1.476-8.145-.09zm138.903 4.314c-3.007 1.59-6.537 6.433-7.608 10.437-2.45 9.16 7.849 17.497 16.293 13.19 7.276-3.712 10.536-14.6 6.036-20.16-3.769-4.657-9.79-6.074-14.72-3.466zm3.72 3.935c-1.97.572-5.653 5.342-6.34 8.216-1.163 4.857 3.631 9.032 8.186 7.13 1.059-.444 2.723-1.906 3.697-3.25 3.84-5.302 3.404-9.517-1.234-11.915-1.757-.909-1.792-.91-4.308-.18zm-159.76 3.289-1.85 1.653 4.695 6.027c2.583 3.314 4.62 6.103 4.526 6.196-.094.094-3.739-1.261-8.1-3.012-4.361-1.75-8.278-3.182-8.704-3.182-.427 0-1.398.663-2.16 1.474-1.148 1.222-1.27 1.662-.709 2.56 1.754 2.808 14.242 18.317 14.867 18.463.389.09 1.328-.497 2.086-1.303l1.378-1.468-1.712-2.177-4.788-6.093c-1.694-2.153-2.99-3.914-2.883-3.913.107.001 3.84 1.436 8.297 3.189 4.457 1.752 8.527 3.052 9.044 2.888.518-.165 1.493-.886 2.167-1.604l1.226-1.304-6.5-8.427a2021.944 2021.944 0 0 0-7.764-10.024l-1.265-1.597-1.85 1.654zm77.905 5.377c-43.741 4.234-81.142 32.41-96.987 73.067-1.28 3.287-2.494 6.859-2.696 7.936l-.368 1.959 8.83-.16 8.83-.161 1.308-3.48c5.315-14.133 16.6-29.901 28.15-39.333C-17.662 65.866 2.85 58.4 26.522 58.4c33.393 0 62.939 15.856 81.895 43.948 3.065 4.541 9.088 16.233 10.301 19.995l.701 2.175h8.946c4.92 0 8.942-.065 8.938-.145-.037-.73-2.628-8.106-4.24-12.072-9.301-22.882-27.926-43.937-49.697-56.182-8.593-4.833-16.588-8.09-27.842-11.342-9.525-2.752-28.175-4.266-39.295-3.19zm100.49 5.625a1443.883 1443.883 0 0 0-8.632 9.264l-3.411 3.71 1.337 1.424c.736.783 1.656 1.423 2.046 1.423.39 0 2.883-2.368 5.541-5.262 2.657-2.895 4.898-5.048 4.98-4.786.082.263-.726 4.132-1.794 8.598l-1.943 8.121 1.983 2.03c1.77 1.81 2.061 1.928 2.691 1.087.388-.52 4.094-4.527 8.235-8.906 4.141-4.38 7.603-8.273 7.693-8.653.091-.38-.526-1.331-1.37-2.115l-1.534-1.424-5.445 5.747c-2.996 3.161-5.447 5.472-5.447 5.134 0-.337.901-4.36 2.002-8.938l2.001-8.324-1.856-1.841-1.856-1.841-5.221 5.552zM-81.9 54.418l-1.861 1.944 9.16 8.846 9.162 8.846 1.745-1.745 1.745-1.745-9.046-9.045-9.044-9.044-1.861 1.943zm-29.92 77.569c-4.701 1.697-6.715 2.94-9.863 6.088-6.637 6.638-9.302 16.952-6.954 26.912 1.23 5.215 3.427 9.17 7.168 12.9 7.732 7.71 19.082 9.535 29.367 4.721l3.677-1.72.699 1.687c.384.928.928 1.702 1.208 1.721.28.019 2.113.05 4.073.068l3.562.034.063-9.609c.042-6.521.282-9.828.746-10.292.375-.377 1.615-.716 2.754-.756l2.071-.07.001-3.916v-3.915h-25.521v7.39l2.61.294c1.435.162 3.001.619 3.48 1.017 1.01.837 1.184 5.479.294 7.819-.774 2.039-4.676 3.753-8.583 3.769-8.252.034-13.462-7.348-13.462-19.074 0-11.023 4.767-17.477 12.882-17.444 5.46.023 9.66 3.008 13.586 9.656l1.428 2.418 3.453-1.166c2.256-.761 3.453-1.482 3.453-2.076 0-.501-.97-4.523-2.157-8.938l-2.158-8.027h-2.582c-1.518 0-2.991.371-3.575.899-.9.814-1.326.787-4.523-.29-4.64-1.563-13.009-1.612-17.197-.1zm-104.699 3.261v3.771h2.288c3.965 0 4.019.247 4.075 18.564.029 9.467-.19 16.71-.533 17.61-.509 1.341-.903 1.529-3.205 1.529h-2.625v7.83h25.522V176.785l-2.732-.177c-2.35-.151-2.787-.379-3.132-1.627-.22-.797-.423-8.497-.45-17.111-.057-18.074.023-18.46 3.863-18.739l2.451-.179v-7.474h-25.522v3.77zm30.743 0v3.771h2.279c4.163 0 4.101-.286 4.101 19.066 0 12.639-.185 17.43-.696 17.941-.382.382-1.83.696-3.217.696h-2.52l.171 3.8.172 3.801 10.731-.002 10.731-.002v-7.307l-2.42-.177c-1.332-.097-2.706-.521-3.056-.942-.432-.521-.586-5.263-.48-14.811l.155-14.045 9.265 18.613 9.265 18.612h11.343v-22.021c0-21.178.042-22.044 1.121-22.622.618-.33 1.923-.6 2.901-.6h1.778v-7.541h-21.462v7.541l2.175.008c3.909.017 3.896-.021 4.097 11.425.119 6.796-.015 10.121-.392 9.738-.316-.319-3.721-6.91-7.568-14.646l-6.995-14.066h-21.479v3.77zm116.01 0v3.771h2.278c4.158 0 4.102-.263 4.102 18.851 0 19.132.061 18.852-4.128 18.852h-2.306l.171 3.799.172 3.799 22.316-.042c12.274-.023 22.489-.232 22.7-.464.29-.32 4.53-12.195 6.61-18.518.191-.581-5.135-3.081-6.55-3.073-.226.001-.92 1.24-1.541 2.755-.62 1.514-2.474 4.101-4.12 5.75-3.751 3.76-6.992 4.833-14.595 4.833h-5.423l.162-7.395.163-7.396 2.878.105c3.393.123 4.117.861 4.65 4.741l.375 2.726 3.3-.084 3.298-.085v-22.484l-3.258-.172c-3.242-.17-3.259-.163-3.625 1.668-.202 1.012-.368 2.45-.368 3.197 0 1.74-1.563 2.558-4.892 2.558h-2.648v-12.908l6.575.252c5.765.221 6.89.437 9.136 1.753 3.08 1.805 4.07 2.863 5.782 6.172 1.436 2.778 2.028 2.87 6.455 1.007l2.135-.899-1.293-3.344c-.71-1.84-2.06-5.628-2.997-8.42l-1.706-5.075h-43.809v3.77zm55.104 0v3.771h2.306c4.095 0 4.15.274 3.955 19.68-.19 18.735-.022 17.997-4.086 18.014l-2.175.009v3.77c0 2.958.187 3.774.87 3.785.478.008 5.373.022 10.876.03l10.005.015v-7.31l-2.312-.189c-1.272-.103-2.643-.462-3.046-.796-.555-.461-.723-4.061-.697-14.892l.035-14.286 9.422 18.8 9.423 18.8 5.358-.023 5.359-.023.12-21.734c.134-24.203.041-23.65 3.961-23.65h2.25v-7.541H15.5v7.541h2.204c1.212 0 2.518.313 2.9.696.493.492.683 3.676.65 10.875l-.048 10.18-7.231-14.646-7.233-14.646h-21.404v3.77zm56.264 0v3.771h2.25c3.867 0 3.84-.13 3.84 19.183 0 9.495-.206 17.47-.459 17.723-.253.252-1.679.6-3.17.773l-2.71.314.066 3.19c.037 1.755.093 3.451.125 3.77.037.372 4.59.533 12.674.448l12.616-.132.172-3.783.17-3.783h-2.304c-4.28 0-4.214.322-4.015-19.237.196-19.225.022-18.441 4.092-18.458l2.175-.008v-7.541H41.602v3.77zm30.743-.007v3.778h2.306c4.078 0 4.13.259 3.945 19.666-.178 18.751-.011 18.011-4.076 18.028l-2.175.009v7.83l22.415-.132c12.329-.073 22.54-.256 22.692-.408.459-.46 6.517-17.803 6.517-18.659 0-.438-.964-1.199-2.142-1.692-4.325-1.807-4.375-1.79-6.209 2.051-2.081 4.361-5.842 7.801-9.821 8.982-4.124 1.225-13.483 1.191-13.959-.05-.194-.505-.352-3.75-.352-7.211 0-7.126.2-7.413 4.662-6.659 2.737.462 3.057.887 3.448 4.557l.3 2.82 3.363.052 3.362.053v-22.567h-6.724l-.31 3.078c-.366 3.649-.976 4.152-5.056 4.164l-3.045.009v-12.761l5.075.025c9.652.048 13.419 1.764 16.628 7.577l1.795 3.253 3.332-1.19c2.178-.777 3.317-1.502 3.288-2.092-.024-.497-1.267-4.296-2.762-8.443l-2.718-7.541-21.89-.152-21.89-.152v3.777zm54.642.117.172 3.881 2.429.123c1.335.067 2.706.295 3.045.504.957.592.846 35.363-.116 36.161-.403.334-1.773.693-3.045.796l-2.313.189v3.625c0 1.994.195 3.625.435 3.625h25.432l-.172-3.625-.173-3.625-2.313-.189c-3.639-.296-3.777-.599-3.777-8.293v-6.89l1.885.003c1.769.003 2.348.631 9.425 10.222 4.148 5.621 7.933 10.723 8.411 11.338.788 1.012 1.671 1.12 9.281 1.129l8.411.011v-3.666c0-3.651-.007-3.666-1.741-3.824-3.696-.338-4.432-.906-10.743-8.293-6.042-7.07-6.385-7.604-5.117-7.934.747-.195 2.925-1.176 4.839-2.18 10.074-5.283 10.513-18.221.822-24.212-3.838-2.373-7.58-2.749-27.385-2.753l-17.863-.003.171 3.88zm59.627-.11v3.771h2.249c3.868 0 3.841-.137 3.841 19.251 0 19.236.172 18.426-3.915 18.443l-2.175.009-.001 3.915v3.915l12.761-.166 12.762-.167v-7.497l-2.175-.009c-4.065-.017-3.897.721-4.086-18.014-.196-19.406-.141-19.68 3.954-19.68h2.307v-7.541h-25.522v3.77zm49.036-2.774c-.224.569-2.749 7.168-5.612 14.665-11.369 29.775-11.276 29.583-14.384 29.583-1.088 0-1.198.346-1.198 3.77v3.77l8.121.048c4.466.027 9.081.071 10.256.097 2.032.046 2.133-.04 2.083-1.788-.029-1.011-.077-2.751-.106-3.867-.05-1.909-.169-2.03-2.012-2.03-3.115 0-3.488-1.007-1.96-5.292l1.32-3.699 7.648-.1 7.648-.1 1.246 3.746c1.426 4.284 1.084 5.262-1.949 5.556l-1.843.179v7.298l12.326.121 12.326.121v-3.915c0-3.711-.07-3.915-1.349-3.915-.742 0-1.886-.588-2.542-1.306-.656-.717-4.856-10.832-9.333-22.476l-8.141-21.172-6.069-.164c-5.374-.145-6.116-.045-6.476.87zm-88.624 8.021c-.24.252-.435 3.285-.435 6.741v6.284h6.078c4.102 0 6.8-.289 8.296-.887 4.922-1.97 5.656-8.331 1.259-10.928-1.807-1.068-14.381-2.068-15.198-1.21zm90.45 12.59c-1.19 3.27-2.158 6.141-2.151 6.38.007.24 2.129.435 4.715.435 3.514 0 4.637-.183 4.442-.725a2165.2 2165.2 0 0 1-2.237-6.379c-1.087-3.11-2.119-5.655-2.291-5.656-.173 0-1.288 2.674-2.478 5.945zm-457.475 37.198c0 1.368 9.205 56.741 9.478 57.015.141.141 8.259-1.08 18.04-2.714 9.78-1.634 18.196-2.89 18.702-2.789.523.103 2.075 2.682 3.6 5.982 5.8 12.553 11.993 23.316 19.858 34.504l3.866 5.502-2.404 2.985c-1.323 1.642-5.933 7.258-10.246 12.48-10.116 12.248-11.183 13.675-10.748 14.379.613.993 75.186 62.974 75.912 63.094.592.098 7.384-7.903 20.56-24.223l3.635-4.504 6.868 3.083c11.572 5.194 24.806 9.853 37.05 13.042l2.465.643V407h99.768v-38.238l2.175-.568c1.197-.312 3.801-.98 5.788-1.485 6.866-1.744 20.782-6.829 29.74-10.867 4.945-2.229 9.513-4.175 10.151-4.325.851-.199 1.7.415 3.19 2.308 1.117 1.42 6.337 7.618 11.601 13.774 5.264 6.155 9.742 11.446 9.951 11.757.394.584 1.733-.475 14.99-11.848a11587.89 11587.89 0 0 1 26.103-22.263c38.293-32.577 35.435-29.963 34.328-31.406-.536-.7-5.543-6.706-11.126-13.348-5.583-6.641-10.613-12.653-11.178-13.359-1.007-1.26-.963-1.375 2.347-6.108 6.979-9.982 14.515-23.331 19.273-34.144l2.438-5.537 18.586 3.084c10.222 1.697 18.692 2.979 18.822 2.85.259-.26 9.457-55.693 9.457-56.994 0-.684-6.717-.785-43.88-.659l-43.88.149-1.084 4.64c-7.129 30.505-22.428 57.331-45.52 79.813-42.65 41.525-104.62 55.917-161.842 37.587-50.647-16.223-91.324-58.357-105.764-109.551-1.217-4.317-2.443-8.893-2.725-10.169l-.511-2.32-43.917-.149c-37.195-.126-43.917-.025-43.917.659zm136.547 1.143c.504 2.685 4.453 12.691 7.025 17.799 7.107 14.113 18.115 27.71 31.022 38.321 28.294 23.259 69.161 31.261 104.757 20.511 30.644-9.255 55.828-30.32 70.187-58.707 2.368-4.683 7.771-18.319 7.771-19.615 0-.139-4.026-.252-8.946-.252h-8.946l-.701 2.175c-1.213 3.762-7.236 15.454-10.301 19.995-9.083 13.461-18.934 22.693-33.244 31.153-21.247 12.562-49.291 16.201-74.057 9.609-24.959-6.643-47.505-24.152-59.892-46.512-2.594-4.681-5.978-11.993-7.13-15.405-.306-.908-1.279-1.015-9.127-1.015h-8.783l.365 1.943zm-7.776 7.531c-.798.346-4.06 1.838-7.251 3.314a588.742 588.742 0 0 1-9.571 4.331c-2.074.904-3.968 1.81-4.21 2.012-.242.203 1.023 3.616 2.812 7.585 1.788 3.969 3.485 7.812 3.768 8.54.504 1.293.561 1.301 2.408.361 1.041-.529 1.971-1.029 2.067-1.11.095-.082-1.01-2.838-2.456-6.124-1.446-3.286-2.568-6.025-2.494-6.087 1.106-.918 5.319-2.546 5.657-2.187.249.265 1.277 2.44 2.284 4.833 1.007 2.392 2.063 4.583 2.346 4.868.302.306 1.264.209 2.331-.233 2.088-.865 2.104-.715-.758-7.31l-2.04-4.705 1.992-.95c1.097-.524 2.122-.951 2.279-.951.261 0 3.726 7.231 4.931 10.29.461 1.171.673 1.233 2.124.615 2.54-1.079 2.71-1.42 1.744-3.476-.497-1.055-2.107-4.646-3.58-7.978-1.473-3.333-2.736-6.107-2.806-6.163-.07-.058-.78.179-1.578.525zm231.154 5.801-.955 2.5 4.535 4.363c8.993 8.654 14.821 13.809 15.286 13.522.261-.162.783-1.229 1.16-2.372.659-1.994.602-2.164-1.428-4.242l-2.113-2.165 1.603-4.135 1.603-4.135 3.181-.17c3.092-.165 3.204-.231 4.011-2.358.457-1.203.728-2.278.602-2.388-.126-.11-6.146-.362-13.38-.56l-13.15-.36-.955 2.5zm9.524 5.686 3.149 2.937.993-2.524c.546-1.387.875-2.718.732-2.958-.144-.239-2.008-.425-4.142-.413l-3.882.022 3.15 2.936zm-241.673 13.309-10.542 6.974 2.307 3.595c3.834 5.976 5.98 8.237 8.546 9.005 7.109 2.13 17.505-5.405 17.505-12.686 0-2.27-.513-3.517-3.233-7.862-1.778-2.84-3.415-5.352-3.637-5.582-.222-.229-5.148 2.721-10.946 6.556zm226.894-4.482c-.973.44-2.411 1.563-3.195 2.495-1.779 2.115-6.583 10.018-6.276 10.324.622.623 20.433 13.077 20.8 13.077.976 0 6.126-8.657 7.035-11.825 2.111-7.358-10.998-17.402-18.364-14.071zm-224 8.903-6.51 4.392 1 1.718c2.111 3.626 3.511 4.671 5.769 4.304 2.961-.481 8.129-4.08 9.26-6.451.912-1.913.89-2.072-.694-5.203-.899-1.776-1.787-3.211-1.974-3.19-.187.02-3.27 2.014-6.85 4.43zm224.508-3.078c-.902.765-2.087 2.161-2.635 3.102l-.996 1.711 6.786 4.394 6.784 4.394 1.597-2.71c.878-1.491 1.601-3.395 1.606-4.232.017-2.691-6.945-8.05-10.457-8.05-.575 0-1.783.626-2.685 1.391zM-76.03 240.613c-7.749 7.607-8.882 9.125-8.92 11.951-.038 2.721 1.096 5.069 3.686 7.631 3.534 3.497 7.692 4.007 11.032 1.353 3.566-2.834 13.226-12.105 13.226-12.694 0-.313-.725-1.264-1.61-2.113l-1.611-1.543-6.841 6.365c-4.882 4.543-7.252 6.365-8.276 6.365-2.02 0-4.284-2.442-4.284-4.62 0-1.498 1.042-2.788 6.727-8.327l6.726-6.554-1.558-1.85c-.856-1.018-1.73-1.846-1.94-1.839-.212.006-3.072 2.65-6.357 5.875zm193.339-.097c-1.411 1.472-1.564 1.925-1.028 3.045 7.801 16.328 10.422 21.753 10.816 22.39.371.598.859.409 2.156-.833 1.978-1.896 2.038-2.467.561-5.362l-1.115-2.186 3.034-3.365 3.033-3.365 3.01 1.07 3.011 1.069 1.857-1.857c1.021-1.022 1.74-1.945 1.597-2.052-.718-.535-24.129-10.314-24.659-10.3-.34.009-1.362.795-2.273 1.746zm5.5 4.99c0 .151.802 1.865 1.784 3.809l1.784 3.535 1.987-1.927c1.093-1.059 1.791-2.099 1.551-2.312-.684-.605-7.106-3.412-7.106-3.105zm-12.902 2.837-1.59 1.401 3.185 8.196c1.753 4.509 3.186 8.433 3.186 8.721 0 .288-3.402-1.72-7.56-4.461l-7.559-4.984-2.302 1.595c-1.265.878-2.3 1.661-2.3 1.741 0 .274 21.977 14.197 22.409 14.197.741 0 4.264-2.584 4.268-3.129.003-.389-5.955-17.109-8.547-23.988-.407-1.078-1.41-.854-3.19.711zm-165.876 6.217c-2.895.77-6.804 4.32-8.805 7.996-1.446 2.658-1.612 3.478-1.412 7.008.205 3.63.411 4.191 2.238 6.091 2.642 2.749 4.624 3.735 7.512 3.735 2.488 0 5.978-1.183 6.638-2.251.214-.346-.23-1.539-.986-2.652-1.245-1.832-1.48-1.948-2.507-1.228-2.63 1.841-6.168 1.137-7.53-1.499-1.19-2.298-.778-4.438 1.487-7.73 3.398-4.939 7.142-6.234 10.263-3.549 1.316 1.132 1.608 1.842 1.556 3.793-.055 2.104.15 2.511 1.656 3.29 2.219 1.147 3.102.765 3.563-1.544.912-4.559-2.672-9.983-7.566-11.449-2.673-.801-3.133-.801-6.107-.011zm148.325 7.196c-.638.491-1.506 1.091-1.93 1.335-.57.329.98 3.161 6.007 10.981 3.727 5.796 7.075 10.537 7.44 10.535.365-.001 1.398-.59 2.295-1.308l1.632-1.305-6.852-10.564c-3.768-5.81-6.982-10.564-7.142-10.564-.16-.001-.812.4-1.45.89zm-133.99 13.688c-5.105 4.832-9.363 8.986-9.463 9.232-.1.247.813.965 2.03 1.597l2.212 1.148 2.171-2.099 2.172-2.1 4.11 1.989 4.11 1.988-.191 3.19-.191 3.191 2.238 1.06c1.23.582 2.343.953 2.473.824.26-.26 2.537-23.03 2.538-25.393.002-1.132-.488-1.721-2.048-2.465-1.128-.538-2.237-.97-2.466-.962-.228.01-4.591 3.969-9.696 8.8zm118.926-5.377c-3.5 1.564-6.443 3.08-6.54 3.37-.185.555 8.923 21.549 9.717 22.398.56.599 4.637-.789 4.637-1.579 0-.309-.816-2.333-1.814-4.496-.997-2.163-1.657-4.338-1.468-4.831.692-1.803 3.871-1.039 8.599 2.065l4.514 2.964 2.623-1.079c1.442-.593 2.623-1.266 2.624-1.496.003-.58-8.106-5.991-9.763-6.515l-1.354-.428 1.232-1.312c3.753-3.995.293-11.929-5.193-11.91-.798.003-4.314 1.285-7.814 2.849zm-99.933 3.844c-.683 2.226-.41 2.487 3.7 3.519.81.203 1.59.677 1.735 1.053.144.377-1.182 4.889-2.947 10.028-1.766 5.139-3.21 9.454-3.21 9.59 0 .313 4.7 1.735 4.908 1.485.084-.101 1.53-4.361 3.211-9.465 1.682-5.105 3.159-9.461 3.282-9.681.124-.22 1.697.108 3.497.727 1.8.62 3.323 1.06 3.383.98.585-.79 1.263-3.958.895-4.186-.793-.49-16.68-6.112-17.271-6.112-.303 0-.835.928-1.183 2.062zm102.653-.023-3.064 1.392.92 2.2c.504 1.21 1.134 2.417 1.398 2.682.265.265 2.013-.272 3.885-1.193 2.68-1.319 3.442-1.992 3.581-3.164.197-1.662-1.193-3.394-2.683-3.342-.536.018-2.352.659-4.037 1.425zm-116.004 2.808-2.977 3.091 2.33 1.31c1.282.721 2.492 1.15 2.688.953.383-.383 1.405-7.977 1.112-8.269-.097-.097-1.515 1.215-3.153 2.915zm94.16.39c-3.412.886-6.347 1.752-6.521 1.927-.285.285 5.86 24.015 6.343 24.499.111.111 1.168-.094 2.348-.456 2.426-.745 2.506-1.101 1.276-5.685-.471-1.754-.86-3.478-.863-3.829-.004-.351 1.665-1.091 3.708-1.645 3.899-1.055 5.648-2.409 6.7-5.183 1.128-2.979-.445-8.111-2.99-9.753-2.37-1.528-3.688-1.512-10 .125zm-60.367 1.93-2.864 12.265c-1.416 6.061-2.393 11.196-2.171 11.41.221.215 1.355.565 2.52.779l2.119.39 1.563-6.87c.86-3.778 2.06-8.928 2.667-11.444 1.53-6.345 1.506-6.493-1.22-7.185-2.14-.543-2.348-.492-2.614.655zm6.102 1.048c.01 1.723 5.127 24.988 5.59 25.408.273.25 1.54.583 2.817.742l2.32.288 5.338-11.381c2.935-6.26 5.508-11.838 5.717-12.396.33-.88.006-1.013-2.437-1.004l-2.818.011-3.429 7.843c-1.886 4.314-3.616 7.96-3.846 8.102-.23.142-1.157-3.533-2.06-8.165-.904-4.633-1.783-8.644-1.954-8.912-.171-.268-1.421-.674-2.777-.9-1.878-.314-2.464-.227-2.46.364zm55.97 1.274c-1.276.385-2.296.822-2.267.971.029.149.383 1.65.787 3.335.812 3.383.938 3.416 5.25 1.376 2.608-1.232 3.154-4.081 1.065-5.544-1.526-1.069-1.725-1.075-4.834-.138zm-33.78 12.684c-2.279 7.091-4.04 12.995-3.915 13.121.126.126 1.404.052 2.841-.163 2.52-.378 2.64-.488 3.38-3.115l.767-2.723 4.68-.168 4.681-.167 1.005 2.633c1.005 2.628 1.01 2.632 3.85 2.632h2.844l-1.097-2.755c-1.268-3.184-7.678-18.229-8.774-20.592-.65-1.404-1.06-1.595-3.429-1.595h-2.688l-4.145 12.892zm5.866-1.941-1.216 4.13h2.859c3.239 0 3.223.103.806-5.435l-1.232-2.825-1.217 4.13z" fill="#fff" fill-opacity=".3"/></svg>