<svg width="91" height="90" fill="none" xmlns="http://www.w3.org/2000/svg"><rect x=".5" width="90" height="90" rx="45" fill="#F4F6F9"/><path fill-rule="evenodd" clip-rule="evenodd" d="M32.385 25.127c-1.272.341-2.277 1.42-2.51 2.692-.052.287-.072 6.206-.058 17.461l.02 17.028.181.448a3.723 3.723 0 0 0 2.027 2.027l.448.18 8.548.022c5.575.014 8.7-.007 8.984-.059 1.044-.19 1.974-.924 2.453-1.934l.25-.528.039-3.786.039-3.786.313-.069c4.016-.879 7.022-3.858 7.858-7.789.227-1.065.248-2.829.046-3.844-.784-3.943-3.64-6.95-7.514-7.91l-.703-.173-.04-3.783-.038-3.782-.25-.528c-.476-1.003-1.404-1.74-2.437-1.933-.266-.05-3.502-.076-8.828-.073-7.089.004-8.473.023-8.828.119zm.072 1.261c-.21.074-.51.284-.748.522-.727.727-.66-1.084-.66 18.093 0 19.174-.067 17.366.658 18.09.708.708-.004.66 9.648.66h8.482l.472-.224c.518-.245.833-.566 1.084-1.104.157-.338.164-.49.186-3.887l.023-3.535h-.782l-.023 3.502-.022 3.502-.22.332a1.371 1.371 0 0 1-.547.48c-.315.144-.644.15-8.726.15-9.414.003-8.679.048-9.174-.571l-.24-.3-.022-16.887c-.012-9.288-.002-17.003.023-17.143.057-.318.46-.788.797-.928.193-.081.8-.106 2.579-.105 2.285 0 2.334.004 2.725.186.287.134.5.318.76.655.198.258.47.56.603.673l.243.204h3.63l.199-.215c.109-.118.305-.373.436-.566.624-.924.677-.938 3.536-.938 2.151 0 2.374.013 2.64.148.158.082.354.22.433.307.338.374.357.587.36 4.135l.004 3.379h.787l-.023-3.535c-.021-3.405-.028-3.549-.187-3.89-.228-.495-.574-.866-1.02-1.093l-.378-.193-8.593-.014c-7.67-.012-8.632 0-8.944.11zm.622 18.615v16.72l8.223-.02 8.223-.02.02-3.4.02-3.398-.645-.143c-.864-.192-2.123-.698-2.85-1.146l-.593-.366-1.817.886c-1 .488-1.886.887-1.97.887-.268 0-.564-.298-.564-.568 0-.135.32-1.17.712-2.3l.712-2.057-.28-.534c-.369-.701-.794-1.985-.945-2.852-.155-.89-.155-2.489 0-3.378.142-.818.552-2.083.9-2.778 1.024-2.05 2.918-3.83 5.015-4.716.765-.323 1.88-.66 2.183-.66.136 0 .142-.157.122-3.419l-.02-3.418-2.07-.022c-1.14-.012-2.146-.003-2.238.02-.092.022-.277.211-.412.42-.342.534-.76.944-1.133 1.114-.283.128-.539.145-2.239.146-1.551.002-1.99-.022-2.283-.122-.38-.13-.877-.562-1.407-1.224l-.296-.37h-4.368v16.718zm16.713-8.671a9.615 9.615 0 0 0-2.317.74c-3.136 1.484-5.047 4.489-5.044 7.93.002 1.535.269 2.613 1.018 4.115l.435.871-.53 1.533c-.292.843-.515 1.549-.496 1.568.019.018.612-.248 1.319-.591.93-.453 1.337-.613 1.471-.58.103.026.397.19.655.364.691.47 1.826.982 2.692 1.217.691.187.898.206 2.17.209 1.209.001 1.499-.023 2.06-.172 3.305-.876 5.705-3.287 6.502-6.534.227-.92.28-2.468.117-3.398-.652-3.728-3.482-6.598-7.136-7.235-.696-.121-2.298-.142-2.916-.037zm-1.74 3.568c-.23.062-1.05.562-1.335.812-.605.532-.819 1.715-.52 2.886.223.87.898 2.245 1.487 3.027 1.492 1.98 3.98 3.46 5.864 3.486.846.012 1.316-.126 1.76-.517.5-.44.974-1.279.974-1.722 0-.613-.194-.793-1.66-1.54l-1.302-.662-.333.115c-.302.106-.497.303-.763.772-.049.086-.14.055-.443-.15-.493-.335-1.647-1.49-1.983-1.984l-.261-.386.19-.12c.103-.067.303-.233.442-.37.422-.41.37-.7-.374-2.114-.39-.74-.707-1.245-.841-1.341-.231-.165-.666-.257-.903-.192zm-.207 1.508c-.429.283-.539.518-.543 1.16-.01 1.323 1.164 3.42 2.585 4.615 1.1.926 2.553 1.617 3.582 1.703.688.057 1.019-.086 1.327-.573l.235-.37-.76-.413c-.42-.227-.801-.414-.85-.415-.047-.002-.179.137-.292.308-.436.659-.962.699-1.82.137-1.5-.982-3.073-2.835-3.073-3.62 0-.462.146-.652.848-1.097.037-.024-.799-1.668-.848-1.668-.022 0-.198.105-.391.233zm-8.87 18.24c-.255.255-.252.585.009.83.197.184.237.19 1.7.213 1.66.028 1.943-.002 2.165-.224.203-.203.201-.65-.004-.855-.147-.147-.26-.156-1.918-.156h-1.761l-.192.192z" fill="#858DA2"/></svg>