<svg width="90" height="90" fill="none" xmlns="http://www.w3.org/2000/svg"><rect width="90" height="90" rx="45" fill="#F4F6F9"/><g clip-path="url(#a)"><path fill-rule="evenodd" clip-rule="evenodd" d="M43.608 25.086c-2.928.34-5.766 1.997-7.597 4.436-.995 1.324-1.67 2.822-2.043 4.525-.223 1.022-.243 3.232-.037 4.255.457 2.273 1.498 4.237 3.098 5.844 1.499 1.506 3.098 2.433 5.116 2.966l.67.177.917 1.006c.908.996 1.103 1.138 1.444 1.051.097-.025.59-.5 1.095-1.057.707-.778.978-1.025 1.172-1.066.593-.126 1.789-.546 2.448-.86 2.228-1.063 4.224-3.067 5.262-5.284.753-1.606 1.06-3.023 1.055-4.869-.006-1.901-.36-3.411-1.175-5.016-2.159-4.248-6.67-6.66-11.425-6.108zm.298 1.212a10.553 10.553 0 0 0-4.53 1.693c-.754.503-2.13 1.88-2.634 2.633a10.657 10.657 0 0 0-1.555 3.672c-.2.92-.202 2.977-.004 3.888.587 2.695 2.03 4.852 4.264 6.366 1.02.693 2.029 1.11 3.717 1.538.253.064.453.231 1.052.882.406.441.76.803.784.803.025 0 .378-.362.785-.803.598-.65.798-.818 1.051-.883 1.642-.416 2.694-.844 3.643-1.482.684-.46.869-.615 1.615-1.35 1.345-1.324 2.296-3.09 2.719-5.053.2-.928.2-2.977 0-3.906-.437-2.026-1.304-3.615-2.774-5.085-1.444-1.445-2.963-2.287-4.93-2.736-.652-.148-2.586-.256-3.203-.177zm-1.839 7.018a.63.63 0 0 0-.192.433c0 .152.071.313.192.433l.192.192H50.242l.191-.192a.63.63 0 0 0 .192-.433.63.63 0 0 0-.192-.433l-.191-.192H42.259l-.192.192zm-2.5 2.5a.63.63 0 0 0-.192.433c0 .152.071.313.192.433l.192.192h10.483l.191-.192a.588.588 0 0 0 0-.866l-.191-.192H39.759l-.192.192zm0 2.5a.63.63 0 0 0-.192.433c0 .152.071.313.192.433l.192.192H47.742l.191-.192a.63.63 0 0 0 .192-.433.63.63 0 0 0-.192-.433l-.191-.192H39.759l-.192.192zM30 43.851c-.383.121-1.037.798-1.155 1.196-.137.465-.137 18.19 0 18.654.127.43.774 1.076 1.203 1.203.468.138 29.437.138 29.904 0 .43-.127 1.076-.774 1.203-1.203.137-.465.137-18.189 0-18.654-.127-.429-.774-1.076-1.203-1.203-.22-.065-1.04-.095-2.601-.095h-2.28l-.191.192a.588.588 0 0 0 0 .866l.191.192h3.776l-6.884 5.508c-3.786 3.03-6.92 5.508-6.963 5.508-.043 0-3.177-2.479-6.963-5.508l-6.884-5.508h3.776l.192-.192a.63.63 0 0 0 .192-.433.63.63 0 0 0-.192-.433l-.192-.192-2.328.008c-1.457.005-2.43.04-2.6.094zm0 10.523c0 6.942.02 8.676.098 8.615l4.805-3.838c4.188-3.345 4.738-3.761 4.98-3.761.351 0 .586.228.585.566 0 .14-.027.295-.059.344-.031.05-2.127 1.746-4.657 3.77l-4.6 3.68h27.696l-4.6-3.68c-2.53-2.024-4.625-3.72-4.657-3.77-.031-.05-.058-.204-.058-.344-.002-.338.233-.566.583-.566.242 0 .802.423 5.059 3.828l4.786 3.827.02-4.335c.011-2.385.011-6.287 0-8.672l-.02-4.336-7.373 5.899c-5.747 4.598-7.42 5.898-7.588 5.898-.167 0-1.826-1.288-7.51-5.831-4.012-3.208-7.338-5.867-7.392-5.908-.078-.061-.098 1.673-.098 8.614z" fill="#858DA2"/></g><defs><clipPath id="a"><path fill="#fff" transform="translate(25 25)" d="M0 0h40v40H0z"/></clipPath></defs></svg>