<svg width="91" height="90" fill="none" xmlns="http://www.w3.org/2000/svg"><rect x=".5" width="90" height="90" rx="45" fill="#F4F6F9"/><path fill-rule="evenodd" clip-rule="evenodd" d="M43.459 27.113c-.862.157-1.535.363-2.24.689-2.747 1.265-4.667 3.66-5.268 6.57-.373 1.806-.096 4.196.643 5.541.16.29.738 1.235 1.286 2.103l.997 1.577-3.242.043c-2.775.036-3.542.083-3.542.214 0 .013-1.371 3.97-3.047 8.793C27.371 57.465 26 61.48 26 61.563c0 .084.07.217.157.295.145.131 1.581.142 18.922.142 18.65 0 18.766-.001 18.937-.172.094-.094.171-.207.171-.251 0-.044-1.371-4.031-3.047-8.86-2.17-6.253-3.1-8.824-3.228-8.931-.164-.137-.458-.15-3.388-.15-1.765 0-3.209-.024-3.209-.054s.382-.657.849-1.394c1.633-2.58 1.76-2.84 2.078-4.26.163-.727.147-2.839-.027-3.607-.589-2.596-2.17-4.747-4.5-6.122-.772-.456-2.05-.916-3.007-1.083-.88-.154-2.412-.155-3.249-.003zm.433.88c-1.117.156-2.557.72-3.571 1.4-.795.532-1.933 1.732-2.425 2.555-.464.776-.942 2.077-1.079 2.935-.125.784-.112 2.018.03 2.76.231 1.204.45 1.666 1.826 3.842 2.314 3.66 6.406 10.047 6.422 10.024.068-.09 5.972-9.357 6.723-10.552.526-.836 1.032-1.724 1.125-1.974 1.569-4.217-.673-8.972-4.97-10.54-1.178-.43-2.878-.617-4.08-.45zm-.265 1.697c-2.071.45-3.94 2-4.742 3.932-1.573 3.79.575 7.971 4.62 8.994 1.037.262 2.658.204 3.648-.132 2.197-.744 3.849-2.48 4.432-4.66.248-.926.248-2.383 0-3.31-.625-2.335-2.554-4.214-4.904-4.776-.853-.204-2.237-.226-3.054-.049zm-.017.984c-2.65.718-4.45 3.175-4.275 5.84a5.57 5.57 0 0 0 1.262 3.22c1.373 1.67 3.714 2.46 5.827 1.967.842-.197 1.88-.748 2.529-1.343 1.252-1.147 1.865-2.523 1.865-4.188 0-1.55-.54-2.844-1.646-3.948-1.172-1.168-2.238-1.628-3.907-1.683-.834-.028-1.148-.002-1.654.135zM32.82 44.687l-.626 1.797-.587 1.69 4.342 2.064c2.388 1.136 4.384 2.065 4.435 2.065.05 0 .47-.795.93-1.768.784-1.651.831-1.782.722-1.985a1.063 1.063 0 0 0-.289-.331c-.095-.062-1.842-.907-3.882-1.876l-3.71-1.763h-.647c-.44 0-.66.034-.687.107zm3.782-.03c.124.117 4.095 1.988 4.135 1.948.019-.019-.21-.423-.508-.899-.693-1.107-.736-1.126-2.448-1.126-.75 0-1.227.031-1.179.077zm13.004 1.56c-.573.9-1.05 1.671-1.06 1.713-.021.082 1.457.823 1.518.761.045-.045 1.938-4.026 1.938-4.076 0-.02-.305-.035-.678-.035h-.677l-1.041 1.637zm2.608.23c-1.559 3.255-1.596 3.32-1.869 3.352-.16.018-.6-.146-1.312-.49l-1.07-.518-.306.478c-.168.262-.273.507-.233.544.04.036 1.795.884 3.9 1.884 2.106 1 3.873 1.861 3.927 1.915.053.054.098.192.098.308 0 .115-.72 1.72-1.598 3.565a468.69 468.69 0 0 0-1.64 3.464c-.031.08.12.107.596.107h.638l1.495-3.147c.822-1.731 1.566-3.237 1.652-3.347.086-.11.223-.2.304-.2.081 0 1.15.479 2.375 1.063s2.235 1.056 2.245 1.048c.009-.007-.107-.354-.258-.77l-.274-.758-4.505-2.144c-2.478-1.178-4.533-2.188-4.568-2.243a.608.608 0 0 1-.064-.272c0-.094.578-1.385 1.286-2.869.707-1.483 1.286-2.729 1.286-2.767 0-.039-.273-.07-.606-.07h-.606l-.893 1.866zm2.925-1.245c-.158.342-.735 1.564-1.284 2.716-.549 1.152-.976 2.117-.95 2.145.106.113 7.465 3.581 7.487 3.529.013-.031-.672-2.057-1.523-4.501a520.45 520.45 0 0 1-1.547-4.478c0-.018-.427-.033-.949-.033h-.948l-.286.622zm-24.043 4.443c-.12.342-.15.536-.091.573.05.03 2.1 1.011 4.558 2.18 3.317 1.576 4.5 2.177 4.59 2.331.114.196.052.354-1.078 2.73-.886 1.865-1.254 2.554-1.41 2.64-.195.108-.483-.015-4.484-1.92-2.366-1.127-4.307-2.003-4.345-1.96-.085.092-.376.975-.335 1.016.017.016 1.825.883 4.02 1.925l3.988 1.896h2.149l2.426-5.105 2.426-5.105-.363-.576-.364-.576-.846 1.755c-.845 1.751-1.025 2.055-1.221 2.055-.058 0-2.179-.984-4.714-2.188-2.536-1.204-4.636-2.188-4.667-2.188-.032 0-.139.233-.239.517zm15 2.06c-.392.608-.785 1.128-.875 1.156-.247.079-.463-.078-.77-.555-.152-.238-.301-.431-.332-.43-.04.002-4.199 8.659-4.375 9.108-.016.04 2.498.063 5.62.051l5.648-.022 1.604-3.347c.883-1.84 1.608-3.388 1.611-3.44.003-.05-1.645-.877-3.663-1.837l-3.713-1.767c-.025-.012-.365.476-.756 1.083zm-16.213 1.43c-.39 1.12-.678 2.062-.643 2.094.105.097 7.862 3.767 7.962 3.767.072 0 1.806-3.522 1.87-3.798.01-.047-8.356-4.096-8.466-4.096-.009 0-.335.915-.723 2.034zm26.648 3.437c-.287.602-.878 1.847-1.313 2.768l-.792 1.673 4.25.022c2.338.013 4.268.006 4.289-.015.036-.036-.985-3.05-1.088-3.212-.043-.068-1.203-.631-4.025-1.955l-.8-.375-.52 1.094zm-28.43 1.677-.505 1.456-.469 1.351h3.527c1.94 0 3.505-.022 3.478-.049-.05-.05-4.745-2.304-5.54-2.66-.326-.145-.465-.173-.49-.098z" fill="#858DA2"/></svg>