<svg width="70" height="70" viewBox="0 0 70 70" fill="none" xmlns="http://www.w3.org/2000/svg">
<rect width="70" height="70" rx="35" fill="#2F57EF" fill-opacity="0.1"/>
<path fill-rule="evenodd" clip-rule="evenodd" d="M35 51.6667C44.2052 51.6667 51.6667 44.2052 51.6667 35C51.6667 25.7948 44.2052 18.3333 35 18.3333C25.7948 18.3333 18.3333 25.7948 18.3333 35C18.3333 44.2052 25.7948 51.6667 35 51.6667ZM35 53.75C45.3552 53.75 53.75 45.3552 53.75 35C53.75 24.6448 45.3552 16.25 35 16.25C24.6448 16.25 16.25 24.6448 16.25 35C16.25 45.3552 24.6448 53.75 35 53.75Z" fill="#2F57EF"/>
<path fill-rule="evenodd" clip-rule="evenodd" d="M32.1744 32.1366C32.2858 32.5512 32.3264 33.0064 32.191 33.3793C32.1647 33.4515 32.1227 33.517 32.0681 33.5711C32.0135 33.6252 31.9475 33.6665 31.875 33.6921C31.8025 33.7177 31.7253 33.7269 31.6488 33.7191C31.5723 33.7113 31.4985 33.6867 31.4327 33.647C31.1539 33.4718 30.8873 33.278 30.6348 33.0668L30.4316 32.9001C30.2441 32.748 30.0629 32.6001 29.8754 32.4595C29.3525 32.0689 28.9379 31.8626 28.5785 31.8803C28.2014 31.8991 27.7452 32.1626 27.1598 32.6251C26.9941 32.7553 26.8171 32.9032 26.6337 33.0574C26.2296 33.3949 25.7921 33.7605 25.3764 34.0272C25.3029 34.0746 25.2185 34.1026 25.1312 34.1088C25.0439 34.115 24.9565 34.0991 24.877 34.0626C24.7975 34.026 24.7284 33.97 24.6763 33.8998C24.6241 33.8295 24.5905 33.7472 24.5785 33.6605C24.5264 33.2803 24.6056 32.8053 24.7546 32.3407C24.9251 31.8174 25.1688 31.3208 25.4785 30.8657C26.1244 29.9209 27.1723 29.0303 28.5754 29.0887C29.9296 29.1459 30.9337 29.9397 31.5379 30.8043C31.8421 31.2376 32.0577 31.7032 32.1744 32.1366ZM37.741 32.1366C37.6285 32.5512 37.5879 33.0064 37.7233 33.3793C37.7496 33.4517 37.7916 33.5173 37.8463 33.5715C37.901 33.6257 37.9671 33.6671 38.0397 33.6927C38.1123 33.7183 38.1897 33.7275 38.2663 33.7196C38.3429 33.7117 38.4168 33.6869 38.4827 33.647C38.7556 33.4824 39.0254 33.272 39.2796 33.0668L39.4837 32.9001C39.6712 32.748 39.8525 32.6001 40.04 32.4595C40.5618 32.0689 40.9775 31.8626 41.3358 31.8803C41.7139 31.8991 42.1691 32.1626 42.7556 32.6251C42.9202 32.7553 43.0973 32.9032 43.2816 33.0574C43.6848 33.3949 44.1223 33.7605 44.5389 34.0272C44.6125 34.0743 44.6967 34.1022 44.7839 34.1083C44.871 34.1143 44.9583 34.0983 45.0377 34.0618C45.117 34.0253 45.1859 33.9694 45.238 33.8993C45.2901 33.8292 45.3238 33.7471 45.3358 33.6605C45.3879 33.2803 45.3087 32.8053 45.1608 32.3407C44.9903 31.8174 44.7466 31.3208 44.4368 30.8657C43.791 29.9209 42.7421 29.0303 41.3389 29.0887C39.9848 29.1459 38.9816 29.9397 38.3764 30.8043C38.0907 31.2092 37.8758 31.6597 37.741 32.1366ZM35.0014 48.5439C30.7952 48.5439 27.1494 45.3689 25.3577 40.7314L25.3056 40.597C24.841 39.3564 25.8348 38.1272 27.1608 38.1272H42.8431C44.1691 38.1272 45.1639 39.3564 44.6973 40.597L44.6462 40.7314C42.8535 45.3689 39.2077 48.5439 35.0014 48.5439ZM42.5806 40.2855C42.2681 41.0439 41.9046 41.7397 41.5025 42.3689H28.5004C28.1375 41.799 27.8195 41.2017 27.5494 40.5824V40.2855H42.5806Z" fill="#2F57EF"/>
<path fill-rule="evenodd" clip-rule="evenodd" d="M42.5747 44.45C42.8108 44.1424 43.0365 43.8219 43.2518 43.4885C43.8341 42.578 44.3178 41.6079 44.6945 40.5948C45.0934 39.5354 44.4257 38.4833 43.3955 38.199C43.2146 38.1494 43.0279 38.1246 42.8403 38.125H27.159C26.9714 38.1249 26.7847 38.1501 26.6038 38.2C26.1349 38.3275 25.7293 38.623 25.4643 39.0302C25.3159 39.2598 25.2241 39.5214 25.1964 39.7933C25.1687 40.0653 25.2059 40.34 25.3049 40.5948C25.4102 40.8717 25.522 41.1461 25.6403 41.4177C25.9639 42.1538 26.333 42.8441 26.7476 43.4885C26.9629 43.8219 27.1886 44.142 27.4247 44.449C29.3768 46.9813 32.0497 48.5417 34.9997 48.5417C37.9497 48.5417 40.6226 46.9813 42.5747 44.45ZM42.5788 40.2833C42.2804 41.0077 41.9197 41.7047 41.5007 42.3667H28.4986C28.1357 41.7968 27.8178 41.1995 27.5476 40.5802V40.2833H42.5788Z" fill="#2F57EF"/>
</svg>
