<svg width="40" height="40" viewBox="0 0 40 40" fill="none" xmlns="http://www.w3.org/2000/svg">
<path fill-rule="evenodd" clip-rule="evenodd" d="M7.08203 15.0026C7.08203 11.5769 8.44289 8.29149 10.8652 5.86914C13.2876 3.4468 16.573 2.08594 19.9987 2.08594C23.4244 2.08594 26.7098 3.4468 29.1322 5.86914C31.5545 8.29149 32.9154 11.5769 32.9154 15.0026V25.0026C32.9154 28.4283 31.5545 31.7137 29.1322 34.1361C26.7098 36.5584 23.4244 37.9193 19.9987 37.9193C16.573 37.9193 13.2876 36.5584 10.8652 34.1361C8.44289 31.7137 7.08203 28.4283 7.08203 25.0026V15.0026ZM18.7487 4.66094C16.2208 4.96649 13.8925 6.18734 12.2035 8.0928C10.5145 9.99826 9.58196 12.4564 9.58203 15.0026V25.0026C9.58203 27.7653 10.6795 30.4148 12.633 32.3683C14.5865 34.3218 17.236 35.4193 19.9987 35.4193C22.7614 35.4193 25.4109 34.3218 27.3644 32.3683C29.3179 30.4148 30.4154 27.7653 30.4154 25.0026V15.0026C30.4154 12.4564 29.4829 9.99826 27.7939 8.0928C26.1049 6.18734 23.7766 4.96649 21.2487 4.66094V10.6326C21.98 10.8912 22.6131 11.3701 23.0609 12.0035C23.5086 12.6369 23.7489 13.3936 23.7487 14.1693V17.5026C23.7487 18.4972 23.3536 19.451 22.6503 20.1543C21.9471 20.8575 20.9933 21.2526 19.9987 21.2526C19.0041 21.2526 18.0503 20.8575 17.347 20.1543C16.6438 19.451 16.2487 18.4972 16.2487 17.5026V14.1693C16.2487 12.5359 17.292 11.1476 18.7487 10.6326V4.66094ZM19.9987 12.9193C19.6672 12.9193 19.3492 13.051 19.1148 13.2854C18.8804 13.5198 18.7487 13.8377 18.7487 14.1693V17.5026C18.7487 17.8341 18.8804 18.1521 19.1148 18.3865C19.3492 18.6209 19.6672 18.7526 19.9987 18.7526C20.3302 18.7526 20.6482 18.6209 20.8826 18.3865C21.117 18.1521 21.2487 17.8341 21.2487 17.5026V14.1693C21.2487 13.8377 21.117 13.5198 20.8826 13.2854C20.6482 13.051 20.3302 12.9193 19.9987 12.9193Z" fill="#1C3761"/>
</svg>
