<svg width="375" height="200" fill="none" xmlns="http://www.w3.org/2000/svg"><path fill-rule="evenodd" clip-rule="evenodd" d="M197.305 19.119v19.12l-2.465.645c-13.562 3.553-23.545 7.055-36.362 12.755l-9.534 4.24-2.289-2.562c-1.259-1.41-6.709-7.783-12.112-14.164-5.403-6.38-10.051-11.6-10.331-11.6-.279 0-3.85 2.886-7.936 6.415a2400.036 2400.036 0 0 1-15.549 13.285 5023.596 5023.596 0 0 0-11.02 9.345c-21.035 17.95-30.013 25.62-35.169 30.043l-6.166 5.291 1.236 1.528c.679.84 5.934 7.064 11.676 13.829 5.742 6.766 10.69 12.652 10.992 13.081.393.555-.147 1.751-1.875 4.154-5.726 7.963-11.652 18.091-17.15 29.313-4.968 10.136-6.087 12.019-7.16 12.036-1.175.019-25.427-3.841-32.613-5.19-1.728-.325-3.22-.511-3.316-.415-.097.096-1.88 10.472-3.963 23.057-2.083 12.585-4.18 25.1-4.66 27.812-.48 2.712-.872 5.258-.871 5.659.001.58 8.976.698 43.918.58l43.917-.149.511-2.32c1.226-5.559 5.113-18.463 7.083-23.51 14.918-38.227 43.02-69.029 79.608-87.255 33.078-16.479 71.359-21.041 107.413-12.8 59.117 13.511 106.135 59.498 120.996 118.345l1.904 7.54 43.846.149c30.217.103 43.845-.04 43.845-.458 0-.97-9.296-56.453-9.491-56.649-.098-.097-1.591.089-3.319.414-7.123 1.337-31.442 5.21-32.718 5.21-.924 0-1.509-.43-1.777-1.305-.781-2.55-8.344-17.644-11.989-23.927-3.807-6.562-8.322-13.564-11.882-18.428-1.114-1.521-1.895-3.087-1.736-3.48.16-.392 2.731-3.617 5.713-7.165 16.028-19.067 18.08-21.746 17.248-22.52-2.451-2.278-75.071-62.542-75.62-62.752-.362-.14-6.053 6.255-12.649 14.21l-11.991 14.462-7.406-3.367c-10.968-4.986-23.319-9.29-36.554-12.74l-2.465-.643V0h-99.768v19.119zm39.591 115.467c-43.741 4.234-81.142 32.411-96.987 73.067-1.28 3.287-2.494 6.859-2.696 7.936l-.368 1.959 8.83-.16 8.829-.161 1.309-3.48c5.315-14.133 16.6-29.901 28.151-39.333 19.041-15.548 39.554-23.015 63.225-23.015 33.393 0 62.939 15.856 81.895 43.948 3.065 4.541 9.088 16.233 10.301 19.995l.701 2.175h8.946c4.92 0 8.942-.065 8.938-.145-.037-.73-2.628-8.106-4.24-12.072-9.301-22.882-27.926-43.937-49.697-56.182-8.593-4.833-16.588-8.09-27.842-11.342-9.525-2.752-28.175-4.266-39.295-3.19zM.669 283.283c0 1.368 9.205 56.741 9.478 57.015.141.141 8.259-1.08 18.04-2.714 9.78-1.634 18.196-2.89 18.702-2.789.523.103 2.075 2.682 3.6 5.982 5.8 12.553 11.993 23.316 19.858 34.504l3.866 5.502-2.404 2.985c-1.323 1.642-5.933 7.258-10.246 12.48-10.116 12.248-11.183 13.675-10.748 14.379.613.993 75.186 62.974 75.912 63.094.592.098 7.384-7.903 20.559-24.223l3.636-4.504 6.868 3.083c11.572 5.194 24.806 9.853 37.05 13.042l2.465.643V500h99.768v-38.238l2.175-.568c1.197-.312 3.801-.98 5.788-1.485 6.866-1.744 20.782-6.829 29.74-10.867 4.945-2.229 9.513-4.175 10.151-4.325.851-.199 1.7.415 3.19 2.308 1.117 1.42 6.337 7.618 11.601 13.774 5.264 6.155 9.742 11.446 9.951 11.757.394.584 1.733-.475 14.99-11.848a11587.89 11587.89 0 0 1 26.103-22.263c38.293-32.577 35.435-29.963 34.328-31.406-.536-.7-5.543-6.706-11.126-13.348-5.583-6.641-10.613-12.653-11.178-13.359-1.007-1.26-.963-1.375 2.347-6.108 6.979-9.982 14.515-23.331 19.273-34.144l2.438-5.537 18.586 3.084c10.222 1.697 18.692 2.979 18.822 2.85.259-.26 9.457-55.693 9.457-56.994 0-.684-6.717-.785-43.88-.659l-43.88.149-1.084 4.64c-7.129 30.505-22.428 57.331-45.52 79.813-42.649 41.525-104.621 55.917-161.842 37.587-50.647-16.223-91.324-58.357-105.764-109.551-1.217-4.317-2.443-8.893-2.725-10.169l-.511-2.32-43.917-.149c-37.195-.126-43.917-.025-43.917.659zm136.547 1.143c.504 2.685 4.453 12.691 7.025 17.799 7.107 14.113 18.115 27.71 31.022 38.321 28.294 23.259 69.161 31.261 104.757 20.511 30.644-9.255 55.828-30.32 70.187-58.707 2.368-4.683 7.771-18.319 7.771-19.615 0-.139-4.026-.252-8.946-.252h-8.946l-.701 2.175c-1.213 3.762-7.236 15.454-10.301 19.995-9.083 13.461-18.935 22.693-33.244 31.153-21.247 12.562-49.291 16.201-74.057 9.609-24.959-6.643-47.505-24.152-59.892-46.512-2.594-4.681-5.978-11.993-7.13-15.405-.306-.908-1.279-1.015-9.127-1.015h-8.783l.365 1.943z" fill="#0E2243" fill-opacity=".25"/></svg>