<svg width="60" height="60" fill="none" xmlns="http://www.w3.org/2000/svg"><path d="M0 4h20c5.523 0 10 4.477 10 10v20H10C4.477 34 0 29.523 0 24V4z" fill="#E32721"/><path fill-rule="evenodd" clip-rule="evenodd" d="M21.383 10.73c-.401.402-.793 1.078-.87 1.503-.078.425-.11 5.5-.07 11.278l.071 10.506-6.426.071-6.426.07-.785.786-.786.786-.067 10.986c-.072 11.695-.053 11.909 1.094 12.811.578.455 1.03.473 11.89.473h11.29l.796-.796c.565-.565.841-1.105.953-1.863.086-.587.123-5.637.081-11.224l-.075-10.156H33.736l-.076 10.157c-.041 5.586-.004 10.636.082 11.223.111.758.388 1.298.953 1.863l.795.796h11.29c10.86 0 11.313-.018 11.89-.473 1.148-.902 1.166-1.116 1.094-12.81l-.067-10.987-.785-.786-.786-.785-5.825-.072-5.825-.071.071-10.506c.04-5.778.004-10.875-.078-11.328-.085-.464-.467-1.118-.878-1.502l-.729-.68H22.114l-.73.73zm1.469 1.327-.535.374V22.77c0 6.667.089 10.504.249 10.804.24.449.616.465 10.93.465 10.312 0 10.688-.016 10.928-.465.16-.3.249-4.137.249-10.804V12.43l-.534-.374c-.463-.324-1.883-.374-10.644-.374-8.76 0-10.18.05-10.643.374zm9.964 3.163c-.068.11-1.434 3.428-3.036 7.372-1.884 4.642-2.859 7.337-2.763 7.64.113.355.328.45.884.395.69-.07.794-.221 1.722-2.535l.987-2.46 2.906-.004 2.905-.003.97 2.464c.913 2.318 1.014 2.468 1.702 2.538.556.056.767-.04.882-.402.1-.313-.861-2.974-2.804-7.766-2.77-6.835-2.995-7.295-3.593-7.364-.351-.041-.694.016-.762.125zm-.27 5.658a401.104 401.104 0 0 0-1.028 2.523c-.088.227.394.3 1.951.3 1.138 0 2.07-.035 2.07-.08 0-.127-1.915-4.798-2.003-4.886-.044-.044-.49.92-.99 2.143zM8.183 36.25c-.36.36-.412 21.02-.053 21.587.196.311 1.667.36 10.832.36 10.296 0 10.616-.014 10.954-.476.528-.723.389-21.186-.147-21.524-.567-.358-21.226-.308-21.586.053zm27.836-.053c-.535.338-.675 20.801-.147 21.524.339.462.658.476 10.954.476 9.165 0 10.636-.049 10.833-.36.358-.567.307-21.226-.053-21.587-.36-.36-21.02-.411-21.587-.053zM14.805 39.33c-.386.24-.42.873-.42 7.653 0 5.429.076 7.469.288 7.68.19.19 1.196.289 2.929.289 2.148 0 2.825-.09 3.632-.48 2.493-1.207 3.238-4.597 1.463-6.66l-.565-.657.56-.733c.846-1.11 1.186-2.67.85-3.9-.326-1.193-1.227-2.336-2.275-2.886-.921-.483-5.803-.714-6.462-.306zm31.242.005c-2.066.519-4.148 2.208-5.162 4.189-.905 1.766-1.026 4.527-.285 6.493 1.456 3.862 5.917 5.874 10.059 4.537 1.645-.532 3.031-1.721 2.811-2.413-.248-.783-.849-.867-1.803-.253-1.44.925-2.142 1.141-3.7 1.136-3.437-.013-5.924-2.48-5.93-5.885-.01-4.962 5.24-7.75 9.404-4.994 1.137.752 1.766.554 1.766-.558 0-.61-.186-.786-1.59-1.5-1.743-.888-3.88-1.177-5.57-.752zm-29.74 4.199v2.524h1.905c1.686 0 1.988-.07 2.627-.608.913-.769 1.134-1.726.66-2.861-.468-1.118-1.526-1.58-3.621-1.58h-1.57v2.525zm0 6.97v2.525h1.891c1.532 0 2.008-.092 2.507-.485 1.493-1.174 1.263-3.51-.415-4.211-.463-.194-1.549-.352-2.412-.352h-1.57v2.524z" fill="#fff"/></svg>