<svg width="60" height="60" fill="none" xmlns="http://www.w3.org/2000/svg"><path d="M5 4h20c5.523 0 10 4.477 10 10v20H15C9.477 34 5 29.523 5 24V4z" fill="#E32721"/><path fill-rule="evenodd" clip-rule="evenodd" d="M17.018 10.469c-.447.256-1.01.73-1.25 1.054l-.436.588v45.701l.486.682c.268.375.85.867 1.294 1.094.786.4 1.285.412 18.171.412 13.228 0 17.424-.06 17.614-.25.363-.363.363-49.14 0-49.503-.19-.19-4.392-.25-17.657-.247l-17.408.004-.814.465zm.428 1.705-.551.511v20.44c0 16.304.052 20.407.26 20.272.143-.092 1.245-.215 2.448-.273l2.188-.104.053-20.678.053-20.678h-1.95c-1.78 0-1.997.044-2.501.51zm6.116 20.22v20.73H51.48v-41.46H23.56v20.73zm3.583-17.147c-.178.178-.25 1.463-.25 4.457 0 3.644.044 4.224.33 4.334.181.07 4.85.126 10.376.126 7.535 0 10.108-.062 10.296-.25.353-.353.353-8.314 0-8.667-.36-.36-20.391-.36-20.752 0zm1.417 4.334v2.917H46.48v-5.834H28.562v2.917zM17.326 55.34c-.427.542-.552 1.392-.302 2.045.365.95.309.947 17.882.947H51.48v-3.542H17.758l-.431.55z" fill="#fff"/></svg>