<svg width="60" height="60" fill="none" xmlns="http://www.w3.org/2000/svg"><path d="M2 4h20c5.523 0 10 4.477 10 10v20H12C6.477 34 2 29.523 2 24V4z" fill="#E32721"/><path fill-rule="evenodd" clip-rule="evenodd" d="M29.178 17.031c-.233.04-4.985.611-10.56 1.267-6.806.8-10.3 1.296-10.633 1.506-.91.575-1.392 2.052-1.4 4.29-.005 1.633.078 2.174.443 2.904l.448.898-.432.874c-.647 1.308-.733 3.742-.188 5.349l.427 1.26-.516.88C4.816 39.59 5.59 46.76 8.02 47.864c.402.183 6.507.986 15.203 2l14.531 1.695 2.788-.329c1.532-.18 3.048-.38 3.367-.443l.581-.115v1.876c0 1.176.094 1.97.254 2.128.537.537 1.022.257 1.845-1.066 1.48-2.38 1.274-2.31 2.416-.826 1.583 2.058 2.244 1.754 2.244-1.032v-1.826l3.957-.471c2.177-.259 4.082-.574 4.234-.7.434-.36.209-1.08-.434-1.387-.769-.368-1.12-.936-1.516-2.462-.58-2.227-.274-5.637.63-7.018.166-.253.565-.587.886-.741.743-.356.809-1.233.116-1.537-.688-.302-1.01-1.279-1.01-3.068 0-1.79.322-2.766 1.01-3.068.305-.133.47-.39.47-.733 0-.343-.165-.6-.47-.734-.688-.302-1.01-1.279-1.01-3.068 0-1.79.322-2.766 1.01-3.068.542-.238.722-.982.32-1.316-.152-.126-6.358-.942-13.792-1.814-14.227-1.668-15.791-1.83-16.472-1.71zm-5.386 2.311c-7.407.917-6.927.844-6.547 1 .174.072 4.857.658 10.407 1.304l10.09 1.173 6.542-.78c3.599-.428 6.542-.83 6.542-.894 0-.096-17.619-2.213-20.38-2.45-.466-.04-3.46.252-6.654.647zM8.596 21.716c-.58 1.247-.489 4.068.163 5.075.096.148.805.328 1.576.4l1.402.13-.127-1.805c-.08-1.128-.033-2.18.125-2.807.138-.55.175-1.07.082-1.154-.093-.084-.795-.214-1.56-.288-1.366-.132-1.395-.124-1.661.449zm4.872.993c-.3 1.191-.302 2.838-.005 4.018.224.887.262.92 1.138.99l.907.073-.11-1.61c-.181-2.634.173-3.578 1.216-3.247.31.099.38.474.461 2.44.053 1.277.184 2.405.291 2.507.108.102 3.997.623 8.644 1.159 4.646.535 8.72 1.02 9.05 1.076.51.086.581.044.457-.266-.325-.817-.352-3.54-.045-4.526l.309-.989-.767-.12c-1.183-.187-20.532-2.443-20.945-2.443-.255 0-.435.281-.6.938zm33.566.675c-6.04.736-9.45 1.236-9.557 1.402-.802 1.245-.731 4.702.111 5.402.196.162 2.723-.067 9.026-.82 4.814-.575 9.098-1.101 9.52-1.168l.767-.122-.308-.989c-.308-.985-.28-3.709.045-4.526.08-.203.066-.36-.034-.346l-9.57 1.167zm-38.44 5.937c-.574 1.239-.486 4.069.158 5.062.144.223 15.275 2.172 16.86 2.172.495 0 .498-.015.383-1.848-.064-1.016-.034-2.126.066-2.465.232-.79.77-1.152 1.254-.847.293.185.358.607.373 2.428.023 2.602.239 3.154 1.233 3.154h.68l.035-2.375c.019-1.307.066-2.609.105-2.893l.07-.516-10.243-1.215c-5.634-.668-10.347-1.22-10.473-1.226-.127-.006-.352.25-.5.57zm38.439 1.666c-5.995.733-9.45 1.24-9.557 1.404-.801 1.243-.73 4.701.112 5.4.196.163 2.723-.067 9.026-.82 4.814-.575 9.094-1.1 9.51-1.166l.759-.12-.297-1.096c-.293-1.079-.261-3.621.054-4.423.08-.203.064-.36-.036-.348l-9.571 1.17zm-15.443.95c-.369.686-.503 3.479-.218 4.535l.235.867 1.953.208c1.075.114 1.972.197 1.995.183.023-.014-.046-.403-.153-.864-.283-1.219-.247-2.848.086-3.955l.29-.965-.66-.116a39.437 39.437 0 0 0-1.96-.255c-1.218-.13-1.315-.108-1.568.361zM8.518 36.724c-1.443 1.594-1.55 7.243-.173 9.119.328.446 1.831 1.02 2.064.786.039-.038-.08-.777-.264-1.64-.423-1.989-.288-5.257.294-7.091l.411-1.297-.763-.126c-1.105-.183-1.19-.17-1.569.25zm3.798.94c-.881 2.33-.993 5.758-.263 8.107.3.97.41 1.097 1.022 1.19.377.057.707.085.734.062.028-.023-.1-.748-.285-1.612-.423-1.99-.288-5.256.295-7.093l.412-1.3-.632-.125c-.934-.187-.916-.198-1.283.77zm3.39.401c-.552 1.467-.774 2.709-.78 4.362-.004 1.438.447 4.06.794 4.616.152.243 11.391 1.681 11.59 1.483.054-.055-.05-.818-.231-1.697-.522-2.526-.384-5.141.415-7.856.123-.418-.055-.455-4.903-1.015-2.766-.32-5.37-.633-5.785-.696-.73-.112-.766-.086-1.1.803zm30.376.636c-6.287.773-8.534 1.123-8.809 1.371-1.531 1.386-1.52 8.063.015 9.453.354.32.599.322 3.107.025 1.497-.177 3.031-.374 3.409-.438l.686-.115v-2.475c0-2.364-.021-2.484-.475-2.683-.672-.295-.743-1.1-.12-1.36.27-.112 2.183-.404 4.253-.649 2.923-.345 3.831-.388 4.066-.194.599.498.212 1.466-.585 1.466-.345 0-.38.235-.38 2.535 0 2.49.008 2.534.475 2.527.801-.013 4.581-.544 4.697-.66.06-.06-.1-.67-.355-1.357-.605-1.63-.664-5.977-.1-7.454.193-.508.352-.96.352-1.003 0-.191-2.338.04-10.236 1.01zm-16.811.413c-.798 1.49-1.064 5.544-.505 7.693.44 1.693.805 2.21 1.558 2.21h.608l-.331-1.004c-.488-1.477-.485-6.32.005-7.853.202-.63.367-1.167.367-1.191 0-.025-.34-.084-.753-.133-.56-.065-.804.006-.95.278zm3.41.364c-.486.908-.863 2.952-.863 4.677 0 1.803.551 4.441 1.028 4.917.262.263 2.351.578 2.351.355 0-.08-.159-.563-.352-1.07-.564-1.48-.505-5.825.102-7.459.52-1.399.432-1.588-.736-1.594-.368-.002-.812-.058-.987-.125-.19-.073-.408.047-.543.3zm15.03 4.095-1.531.203V51l.629-.992c.771-1.217 1.223-1.26 2.089-.2l.647.792.007-3.643c.004-2.004-.064-3.63-.151-3.615-.087.016-.848.12-1.69.231z" fill="#fff"/></svg>