<svg width="80" height="80" fill="none" xmlns="http://www.w3.org/2000/svg"><path d="M0 .29h38c5.523 0 10 4.476 10 10v38H10c-5.523 0-10-4.478-10-10v-38z" fill="#fff" fill-opacity=".1"/><path fill-rule="evenodd" clip-rule="evenodd" d="M31.256 6.816c-2.573.691-4.563 2.51-5.462 4.993l-.343.946-1.108.19c-1.622.278-2.941.97-4.179 2.191-1.572 1.552-2.35 3.422-2.35 5.65v.924l-.664.17c-2.975.759-5.344 2.962-6.381 5.935-.282.807-.357 1.37-.365 2.735-.011 1.878.258 2.952 1.138 4.549l.44.798-.445.53c-.788.937-1.501 2.22-1.946 3.5-.386 1.106-.435 1.469-.435 3.2 0 1.733.05 2.095.435 3.203.71 2.042 2.019 3.866 3.66 5.101l.515.388-.3.698c-.926 2.162-.838 4.516.252 6.695.802 1.604 2.516 3.14 4.113 3.685.626.214.74.339 1.296 1.421 1.488 2.895 4.754 5.033 8.122 5.318l1.169.099.59.856c2.313 3.358 7.1 3.783 9.995.887.808-.807 1.52-2.171 1.773-3.39l.186-.898 11.121-.003c10.453-.003 11.16-.02 11.747-.29a3.724 3.724 0 0 0 1.816-1.816c.268-.584.287-1.238.29-9.883l.003-9.258h2.188c2.982 0 2.812.207 2.812-3.437 0-3.645.17-3.438-2.812-3.438h-2.188V35.94h2.188c2.982 0 2.812.207 2.812-3.437 0-3.645.17-3.438-2.812-3.438h-2.188V25.94h2.188c2.982 0 2.812.207 2.812-3.437 0-3.643.168-3.438-2.8-3.438h-2.174l-.052-1.927c-.05-1.827-.076-1.966-.523-2.688-.343-.554-.7-.88-1.307-1.198l-.835-.437H40.825l-.354-.976c-1.385-3.824-5.444-6.037-9.215-5.023zm.543 1.76c-1.737.46-3.253 1.697-4.014 3.276-.442.915-.504 1.203-.51 2.37-.009 1.579.202 2.355.933 3.441.832 1.237.698 2.027-.345 2.027-.433 0-.601-.117-1.06-.742-.641-.87-1.14-2.1-1.363-3.363l-.16-.902-.569.104c-2.725.502-4.723 2.631-4.972 5.297-.049.522-.008 1.326.09 1.785.248 1.154.02 1.49-1.106 1.634-1.706.216-3.066.84-4.249 1.948-2.633 2.467-3.011 6.576-.868 9.43.338.449.615.967.615 1.151 0 .19-.366.72-.85 1.233-3.033 3.207-3.21 7.864-.43 11.313.865 1.072 2.24 1.993 3.676 2.46 1.74.568 4.091.597 5.494.069.516-.194 1.195-.388 1.51-.431.49-.067.611-.02.843.334.54.823-.248 1.492-2.509 2.131-1.226.347-4.295.28-5.497-.12l-.966-.322-.354.8c-.5 1.131-.5 3.096-.001 4.355.377.952 1.537 2.35 2.334 2.813l.47.273-.083-.917c-.072-.793-.038-.963.249-1.25.678-.678 1.58-.178 1.585.878.01 2.757 2.046 5.986 4.538 7.2 1.051.51 2.586.964 3.267.964.375 0 .395-.04.343-.693-.11-1.381.723-3.76 1.492-4.265.473-.31 1.101-.139 1.328.36.155.34.107.536-.356 1.44-.473.922-.536 1.185-.533 2.224.007 1.925.89 3.356 2.618 4.238.909.464 2.49.564 3.517.223 1.006-.334 2.117-1.31 2.658-2.335l.422-.801V12.894l-.503-1.03c-.605-1.236-1.733-2.347-2.948-2.903-.927-.424-2.84-.621-3.736-.385zm9.14 12.052v5.937h10.625v-.388c0-.29-.128-.442-.507-.601-.28-.117-.767-.5-1.084-.85-.983-1.09-1.164-2.43-.508-3.747.444-.891 1.452-1.68 2.366-1.852 2.478-.465 4.616 1.849 3.96 4.285-.213.791-1.127 1.864-1.844 2.164-.499.209-.508.23-.508 1.226 0 1.74.404 1.638-6.562 1.638h-5.938v5.625H54.216l.213-.507c.3-.718 1.372-1.63 2.164-1.844 2.436-.656 4.75 1.482 4.285 3.96-.172.913-.961 1.922-1.852 2.366-1.318.656-2.657.474-3.747-.508-.35-.317-.733-.805-.85-1.084l-.213-.508H40.94v5.625H46.716l.213-.507c.3-.718 1.372-1.63 2.164-1.844 3.324-.895 5.757 3.172 3.367 5.63-1.334 1.371-3.282 1.45-4.68.188-.351-.317-.734-.804-.85-1.084l-.214-.508H40.94v6.875H52.966l.213-.507c.3-.718 1.372-1.63 2.164-1.844 2.436-.656 4.75 1.482 4.285 3.96-.172.913-.961 1.922-1.852 2.366-1.318.656-2.657.474-3.747-.508-.35-.317-.733-.804-.85-1.084l-.213-.508H40.94v5.625h23.125V36.87c0-22.768.047-21.582-.855-21.993-.305-.139-3.198-.187-11.34-.187H40.94v5.938zm10.799.53c-1.355.751-.788 2.907.764 2.907.792 0 1.562-.763 1.562-1.547 0-1.173-1.296-1.93-2.326-1.36zm14.201 1.345v1.562h3.125V20.94H65.94v1.563zM31.4 24.8c-1.458.724-2.77 2.298-3.329 3.992-.066.203-.261.274-.759.276-2.252.008-4.944 1.349-6.34 3.16-1.714 2.223-2.26 4.835-1.576 7.55.208.826.71 1.249 1.304 1.1.652-.164.766-.598.467-1.783-.974-3.865 1.716-7.683 5.705-8.1l.909-.096.114.685c.387 2.324 1.635 3.747 2.474 2.82.35-.385.328-.618-.151-1.665-1.07-2.339-.316-4.921 1.789-6.122 1.025-.585 1.277-.83 1.277-1.236 0-.312-.64-1.003-.928-1.003-.057 0-.487.19-.955.422zm34.54 7.703v1.562h3.125V30.94H65.94v1.563zm-9.201 1.155c-1.355.751-.788 2.907.764 2.907.792 0 1.562-.763 1.562-1.547 0-1.173-1.296-1.93-2.326-1.36zm-7.5 7.5c-1.355.751-.788 2.907.764 2.907.792 0 1.562-.763 1.562-1.547 0-1.173-1.296-1.93-2.326-1.36zm16.701 1.345v1.562h3.125V40.94H65.94v1.563zm-38.998.703c-.331.331-.375.48-.285.977.538 2.968 2.867 5.142 5.843 5.454.783.081.943.05 1.233-.239.738-.739.292-1.42-1.052-1.603-2.127-.291-3.612-1.616-4.092-3.651-.184-.781-.61-1.329-1.032-1.329-.124 0-.4.176-.615.391zm28.547 6.702c-1.355.751-.788 2.907.764 2.907.792 0 1.562-.763 1.562-1.547 0-1.173-1.296-1.93-2.326-1.36zM40.939 62.503v2.812h10.93c8.142 0 11.035-.047 11.34-.186.721-.329.855-.837.855-3.243V59.69H40.94v2.813z" fill="#EC2526"/></svg>