<svg width="60" height="60" fill="none" xmlns="http://www.w3.org/2000/svg"><g clip-path="url(#a)"><path fill-rule="evenodd" clip-rule="evenodd" d="M39.194.285c-.286.286-.288.302-.288 2.583s.002 2.298.288 2.584c.348.348.802.37 1.118.053.22-.22.235-.39.235-2.637 0-2.246-.015-2.417-.234-2.637-.317-.316-.77-.295-1.12.054zM26.052 5.624c-.298.119-.505.46-.505.83 0 .181.519.787 1.665 1.942 1.438 1.45 1.714 1.68 2.032 1.68.46 0 .795-.351.795-.832 0-.306-.241-.599-1.63-1.98-.898-.89-1.737-1.647-1.866-1.68a.927.927 0 0 0-.49.04zm26.624.101c-.194.121-.998.877-1.787 1.68-1.226 1.247-1.436 1.515-1.436 1.831 0 .48.36.84.84.84.317 0 .587-.215 1.884-1.495 1.575-1.554 1.907-1.996 1.787-2.376-.079-.248-.6-.7-.806-.7-.072 0-.289.1-.482.22zm-14.3 3.183c-3.586.469-6.721 2.697-8.374 5.95-1.04 2.047-1.414 4.493-1.009 6.603.373 1.94 1.222 3.75 3.018 6.434l1.212 1.809-.264.523c-.311.617-.335 1.226-.075 1.877.173.433.173.51 0 .942-.579 1.446.222 2.805 1.784 3.028.488.07.575.137 1.066.823.357.498.73.86 1.121 1.083l.586.335 2.26.001c2.505.001 2.825-.066 3.518-.737.213-.206.549-.625.745-.932.293-.456.42-.556.7-.556.735 0 1.587-.538 1.946-1.228.238-.459.231-1.435-.014-1.91-.183-.353-.183-.403 0-.756.28-.541.254-1.497-.055-2.02l-.25-.425 1.267-1.908c1.99-3 2.834-4.963 3.048-7.1.198-1.974-.118-3.776-.985-5.614-2.038-4.32-6.577-6.832-11.245-6.222zm-.873 1.878c-2.537.664-4.687 2.361-5.893 4.651-.775 1.47-1.046 2.565-1.05 4.248-.006 2.33.664 4.013 2.968 7.444l1.296 1.93h9.885l.82-1.2c1.942-2.848 2.826-4.556 3.23-6.242.321-1.344.269-3.191-.127-4.452-1.011-3.225-3.53-5.626-6.701-6.386-1.305-.313-3.218-.31-4.428.007zm-34.954.042c-.55.196-1.165.66-1.5 1.13-.56.787-.58 1.042-.58 7.43 0 6.916-.006 6.864.924 7.794.97.971.808.953 8.053.915 6.22-.033 6.323-.038 6.784-.287a3.444 3.444 0 0 0 1.456-1.563c.23-.509.239-.746.241-6.783.002-4.463-.037-6.388-.135-6.716-.192-.64-.971-1.482-1.674-1.81l-.59-.275-6.27.004c-4.933.004-6.363.038-6.71.161zm.434 1.639c-.197.085-.46.307-.586.493-.22.324-.229.58-.229 6.314 0 6.461.005 6.515.627 6.938.287.195.755.213 6.177.244 6.505.037 6.58.03 7.05-.666l.267-.398v-5.988c0-5.8-.008-6.001-.237-6.377-.443-.727-.435-.726-6.878-.72-4.583.003-5.91.037-6.191.16zm5.162 2.453c-2.884.751-4.328 3.857-3.027 6.515.862 1.763 2.972 2.844 4.864 2.492a4.604 4.604 0 0 0 2.615-1.45c.88-.951 1.165-1.717 1.166-3.144 0-1.016-.033-1.181-.377-1.892-.951-1.96-3.215-3.048-5.241-2.52zm28.192 1.323c-.237.301-.243.431-.243 5.024 0 4.592.006 4.722.243 5.023.156.199.356.309.563.309.203 0 1.777-.841 4.298-2.298 2.188-1.263 4.07-2.38 4.183-2.479.294-.26.263-.872-.059-1.164-.145-.132-2.01-1.248-4.146-2.481-4.173-2.41-4.395-2.5-4.84-1.934zm-28.312.49c-.961.45-1.557 1.28-1.664 2.317-.09.867.139 1.585.71 2.235.611.693 1.221.972 2.137.975 2.934.01 4.018-3.726 1.553-5.357-.648-.428-2.002-.512-2.736-.17zm29.827 4.534c0 1.643.018 2.988.041 2.988.14 0 4.999-2.892 5.01-2.983.012-.088-4.85-2.994-5.01-2.994-.023 0-.041 1.345-.041 2.989zm-17.227-2.32c-.363.134-.586.433-.584.785.004.806.268.89 2.795.89 1.16 0 2.239-.049 2.396-.109.623-.237.599-1.176-.039-1.498-.295-.15-4.19-.207-4.568-.068zm33.78 0c-.32.062-.616.46-.616.828 0 .15.13.401.288.56.286.285.302.287 2.583.287s2.298-.002 2.584-.288c.483-.483.335-1.114-.314-1.34-.353-.124-3.936-.16-4.525-.047zM18.75 29.416c-2.61.708-7.33 1.978-10.488 2.822-3.158.844-5.9 1.614-6.094 1.71-.51.256-1.099.844-1.368 1.367-.43.835-.408 1.466.124 3.492l.482 1.837v8.307c0 9.511-.033 9.149.934 10.116.99.99.267.939 13.02.903l11.183-.032.484-.258c.628-.336 1.372-1.187 1.546-1.77.1-.334.138-2.826.138-9.14v-8.682l-.26-.182c-.231-.162-1.368-.182-9.922-.182-5.314 0-9.64-.022-9.613-.048.027-.026 4.215-1.163 9.307-2.525 9.692-2.594 9.668-2.586 9.668-3.216 0-.262-.823-3.397-1.04-3.961-.182-.472-.932-1.25-1.468-1.524-.997-.509-1.432-.445-6.633.966zm4.98.434c-1.186.278-3.468.941-3.466 1.009.003.127 3.41 3.005 3.558 3.005.203 0 2.01-.492 2.1-.572.09-.08-.506-2.414-.719-2.812-.24-.448-.95-.752-1.473-.63zm10.747.99c-.195.195-.176.511.043.73.162.162.793.185 5.164.185 3.209 0 5.06-.043 5.207-.121.253-.136.3-.578.086-.793-.203-.203-10.298-.203-10.5 0zM15.49 32.045c-1.245.344-2.281.644-2.302.666-.05.054 3.197 2.824 3.466 2.956.144.071.933-.09 2.53-.515 1.276-.341 2.362-.657 2.415-.702.134-.117-3.285-2.983-3.591-3.01-.14-.011-1.273.26-2.518.605zM8.459 33.92c-1.246.343-2.28.642-2.3.664-.058.065 3.427 2.967 3.61 3.006.19.04 4.656-1.139 4.801-1.268.144-.129-3.329-3.047-3.612-3.035-.13.006-1.254.29-2.5.633zm25.974-.236c-.1.222-.096.332.018.47.132.158.79.177 5.379.15l5.229-.03.038-.27c.087-.618.163-.61-5.387-.61h-5.145l-.132.29zm-31.21 1.644c-.652.23-.996.661-.996 1.245 0 .364.53 2.715.652 2.893.03.043 4.503-1.15 4.698-1.253.198-.105-3.322-3.062-3.635-3.056-.138.003-.462.08-.72.171zm34.254 1.025c.247.248.378.266 2.09.302 1.839.038 2.328-.037 2.63-.402.116-.139-.25-.163-2.424-.163h-2.56l.264.263zm-4.009 3.912c-.412.128-.763.367-1.24.843-1.103 1.106-1.056.709-1.056 8.927 0 8.219-.047 7.822 1.057 8.927 1.083 1.084.747 1.046 9.15 1.008l7.195-.033.495-.264c.776-.415 1.285-.926 1.64-1.648l.326-.666V42.712l-.327-.666c-.354-.722-.863-1.233-1.639-1.648l-.495-.264-7.265-.023c-6.218-.02-7.349.003-7.841.155zm-30.304 3.09v1.993h2.309l.532-.791c.293-.435.906-1.332 1.363-1.993l.831-1.2H3.164v1.991zm6.727-1.494c-.193.274-.813 1.17-1.378 1.992L7.484 45.35l2.616-.003 2.615-.002 1.289-1.881c.709-1.035 1.306-1.93 1.328-1.99.023-.065-1.002-.109-2.526-.109H10.24l-.35.498zm6.249 1.465L14.79 45.29l2.475.032c1.36.017 2.536.008 2.61-.021.127-.049 2.741-3.748 2.741-3.879 0-.032-1.154-.058-2.564-.058h-2.564l-1.35 1.963zm7.334-.123a185.065 185.065 0 0 0-1.36 1.992c-.076.123.39.153 2.43.153h2.526V41.364H24.741l-1.267 1.84zm10.4-1.227c-.286.146-.629.415-.762.597-.237.325-.24.449-.24 7.462 0 7.014.003 7.137.24 7.462.133.182.476.451.762.598l.52.266 6.856-.032c6.814-.032 6.858-.034 7.266-.288.861-.537.82-.135.82-8.01 0-6.962-.003-7.063-.246-7.456-.513-.83-.214-.798-7.84-.834l-6.855-.032-.52.267zm6.96 1.784-.287.288v6.826l-.381-.097c-2.943-.751-5.048 2.568-3.038 4.792 1.734 1.92 4.85.858 5.106-1.742.031-.313.06-2.24.064-4.281l.007-3.712 1.348.767c1.258.715 1.37.757 1.69.626a.996.996 0 0 0 .472-.462c.263-.633.06-.83-2.175-2.105-1.145-.653-2.18-1.187-2.3-1.187-.12 0-.347.13-.505.287zM3.165 52.14c0 5.48.008 5.566.575 5.951.284.193 1.012.21 11.085.242 7.18.023 10.92-.005 11.199-.086.23-.066.546-.258.703-.425l.286-.305.032-5.264.033-5.264H3.164v5.15zm8.927-3.356c-.25.267-.255.332-.255 4.017 0 3.2.027 3.783.182 4.006.365.52.75.378 3.931-1.454 1.637-.943 3.095-1.822 3.24-1.954.322-.293.353-.906.059-1.161-.46-.4-6.38-3.725-6.63-3.725-.15 0-.387.122-.527.27zm1.386 4.056v1.985l1.61-.938c.887-.515 1.654-.978 1.706-1.028.073-.072-3.077-2.003-3.268-2.003-.027 0-.048.893-.048 1.984zm25.091-.269c-.426.299-.638.917-.48 1.4.447 1.352 2.459 1.049 2.459-.372 0-.385-.296-.947-.58-1.098-.34-.183-1.092-.145-1.399.07z" fill="#EC2526"/></g><defs><clipPath id="a"><path fill="#fff" d="M0 0h60v60H0z"/></clipPath></defs></svg>