<svg width="40" height="40" fill="none" xmlns="http://www.w3.org/2000/svg"><path fill-rule="evenodd" clip-rule="evenodd" d="M17.846 1.686c-2.709 1.501-1.576 5.813 1.528 5.813 1.584 0 3.125-1.526 3.125-3.094 0-2.347-2.593-3.862-4.653-2.72zm.278 1.438c-.344.344-.625.907-.625 1.25 0 .344.281.907.625 1.25.344.344.906.625 1.25.625.805 0 1.875-1.07 1.875-1.875 0-.805-1.07-1.875-1.875-1.875-.344 0-.906.282-1.25.625zm7.289 1.038c-.314.4-.845 1.238-1.182 1.864-.755 1.405-1.293 1.614-5.766 2.234-1.96.272-3.789.667-4.062.878-2.198 1.693-4.444 3.883-4.594 4.48-.134.532-.44.746-1.167.817-.81.078-1.004.247-1.084.936-.075.65-.288.862-.937.937-.839.097-.84.103-.84 2.754v2.656H14.217v-5.312l-.86-.1c-1.19-.136-1.064-.684.398-1.718l1.243-.88v2.034c0 1.118.14 2.12.313 2.226.171.106.312 1.17.312 2.362v2.17h-5.478c-6.364 0-6.088-.163-5.506 3.228.563 3.286 1.97 5.947 4.419 8.364 4.985 4.92 11.673 5.98 18.128 2.874 2.231-1.074 5.578-4.42 6.655-6.654 1.03-2.136 1.852-5.309 1.723-6.646l-.097-1.01-5.547-.086-5.547-.085v-2.162c0-1.189.14-2.249.313-2.355.171-.106.312-1.305.312-2.664 0-2.302.064-2.543.942-3.544 1.083-1.232 2.808-5.192 2.808-6.443 0-1.76-2.25-2.54-3.336-1.155zm-14.164.212c0 .417-.208.625-.625.625-.416 0-.625.209-.625.625 0 .417.209.625.625.625.417 0 .625.209.625.625 0 .417.209.625.625.625.417 0 .625-.208.625-.625 0-.416.209-.625.625-.625.417 0 .625-.208.625-.625 0-.416-.208-.625-.625-.625-.416 0-.625-.208-.625-.625 0-.416-.208-.625-.625-.625-.416 0-.625.209-.625.625zm14.275 1.883c-.485.863-1.226 1.795-1.647 2.071-.421.276-2.54.76-4.708 1.078l-3.943.575-2.047 1.824c-1.125 1.004-2.102 1.992-2.17 2.197-.248.743.935.345 2.723-.916 1.005-.709 1.982-1.193 2.172-1.075.202.124.345 1.179.345 2.538v2.325h7.5v-2.176c0-1.976.087-2.276.942-3.25.972-1.106 2.808-5.148 2.808-6.18 0-1.147-1.079-.607-1.975.989zm-14.275-.633c0 .417.209.625.625.625.417 0 .625-.208.625-.625 0-.416-.208-.625-.625-.625-.416 0-.625.209-.625.625zm17.5 8.125c0 .417-.208.625-.625.625-.416 0-.625.209-.625.625 0 .417.209.625.625.625.417 0 .625.209.625.625 0 .417.209.625.625.625.417 0 .625-.208.625-.625 0-.416.209-.625.625-.625.417 0 .625-.208.625-.625 0-.416-.208-.625-.625-.625-.416 0-.625-.208-.625-.625 0-.416-.208-.625-.625-.625-.416 0-.625.209-.625.625zm0 1.25c0 .417.209.625.625.625.417 0 .625-.208.625-.625 0-.416-.208-.625-.625-.625-.416 0-.625.209-.625.625zm-20 .938c0 .172.563.312 1.25.312.688 0 1.25-.14 1.25-.312s-.562-.313-1.25-.313c-.687 0-1.25.141-1.25.313zm-.625 1.875c.258.166 1.102.303 1.875.303.774 0 1.617-.137 1.875-.303.325-.21-.248-.303-1.875-.303s-2.2.093-1.875.303zm8.75 4.687c0 4.357.003 4.375.719 4.375.68 0 .745-.196 1.244-3.806.813-5.882 1.512-5.882 2.324 0 .5 3.61.563 3.806 1.245 3.806.715 0 .718-.018.718-4.375v-4.375h-6.25V22.5zm-10-2.833v.958h6.25v-.958c0-.862-.071-.933-.703-.703-.386.14-1.476.255-2.422.255-.945 0-2.035-.115-2.422-.255-.632-.23-.703-.159-.703.703zM5.628 24.14c.001.215.09.918.197 1.563l.194 1.171H13.28l-.108-1.562-.108-1.563h-3.72c-2.77 0-3.719.1-3.716.391zm8.807 1.09c.072 1.117.23 1.508.642 1.586.463.088.547-.14.547-1.481 0-1.391-.079-1.586-.642-1.586-.571 0-.632.165-.547 1.482zm9.94.105c0 1.34.084 1.569.546 1.481.412-.078.57-.469.642-1.585.085-1.317.024-1.482-.547-1.482-.563 0-.642.195-.642 1.586zm2.5-.518c0 .588-.086 1.291-.19 1.563-.167.434.268.494 3.552.494h3.743l.194-1.171c.106-.645.195-1.348.197-1.563.002-.291-.953-.39-3.747-.39h-3.75v1.067zm-7.188.964c0 .601.14 1.093.312 1.093s.313-.492.313-1.093c0-.602-.141-1.094-.313-1.094-.172 0-.312.492-.312 1.094zM6.564 28.359c.002.128.427.972.945 1.875l.94 1.64h5.875l-.257-1.015a85.513 85.513 0 0 1-.45-1.875l-.192-.86H9.993c-1.887 0-3.43.106-3.429.235zm8.338.781c.11.558.293 1.367.405 1.797l.206.781h8.972l.206-.781c.113-.43.295-1.239.405-1.797l.2-1.016H14.702l.2 1.016zm11.479-.156a86.061 86.061 0 0 1-.45 1.875l-.257 1.015H31.515l.961-1.678c.529-.924.96-1.767.96-1.875 0-.108-1.543-.197-3.43-.197h-3.433l-.192.86zm-15.633 5.045c.837.873 3.929 2.578 5.47 3.016l.75.214-.68-.956a12.798 12.798 0 0 1-1.145-2.067l-.465-1.112H9.882l.867.905zm5.698.111c2.265 4.38 4.841 4.38 7.107 0l.525-1.016H15.92l.525 1.016zm8.41.096c-.256.612-.771 1.542-1.145 2.067l-.68.956.75-.223c1.703-.505 3.957-1.698 5.232-2.77l1.358-1.142H25.32l-.465 1.112z" fill="#2F57EF"/></svg>