<svg width="296" height="250" viewBox="0 0 296 300" fill="none" xmlns="http://www.w3.org/2000/svg"><path fill-rule="evenodd" clip-rule="evenodd" d="M117.982 11.471v11.472l-1.479.387c-8.137 2.132-14.127 4.234-21.817 7.654l-5.72 2.544-1.374-1.538c-.755-.846-4.025-4.67-7.267-8.498-3.242-3.828-6.03-6.96-6.199-6.96-.167 0-2.31 1.732-4.761 3.849s-6.65 5.704-9.33 7.97c-2.68 2.268-5.655 4.791-6.612 5.608a13051.31 13051.31 0 0 0-21.101 18.026l-3.7 3.174.742.917c.407.504 3.56 4.238 7.006 8.298 3.445 4.06 6.413 7.59 6.595 7.848.236.333-.089 1.05-1.125 2.493-3.436 4.777-6.991 10.854-10.29 17.587-2.98 6.082-3.652 7.211-4.296 7.222-.705.01-15.256-2.305-19.568-3.114-1.037-.195-1.932-.307-1.99-.25-.058.059-1.127 6.284-2.377 13.835-1.25 7.551-2.508 15.06-2.796 16.687-.288 1.627-.523 3.155-.523 3.395 0 .349 5.385.42 26.35.349l26.35-.09.308-1.392c.735-3.335 3.067-11.077 4.25-14.106 8.95-22.936 25.811-41.417 47.764-52.353 19.847-9.887 42.815-12.624 64.448-7.68 35.47 8.107 63.681 35.7 72.598 71.007l1.142 4.524 26.307.09c18.131.061 26.307-.024 26.307-.275 0-.582-5.577-33.872-5.694-33.99-.058-.058-.954.054-1.991.249-4.274.802-18.865 3.126-19.631 3.126-.554 0-.906-.258-1.067-.783-.468-1.53-5.006-10.587-7.193-14.356-2.284-3.938-4.993-8.139-7.129-11.057-.669-.913-1.137-1.853-1.041-2.088.095-.236 1.638-2.17 3.427-4.3 9.617-11.44 10.848-13.047 10.349-13.51-1.47-1.368-45.043-37.526-45.372-37.653-.217-.083-3.632 3.754-7.589 8.526l-7.195 8.678-4.444-2.02c-6.58-2.992-13.991-5.575-21.932-7.644l-1.479-.386V0H117.982v11.471zm23.755 69.28c-26.245 2.541-48.685 19.447-58.192 43.841-.769 1.972-1.497 4.115-1.618 4.762l-.22 1.175 5.297-.096 5.298-.097.785-2.088c3.189-8.479 9.96-17.941 16.891-23.6 11.424-9.328 23.732-13.809 37.935-13.809 20.035 0 37.763 9.514 49.137 26.369 1.839 2.725 5.452 9.74 6.18 11.997l.421 1.305h5.368c2.952 0 5.365-.039 5.362-.087-.022-.438-1.577-4.864-2.544-7.243-5.58-13.729-16.755-26.362-29.818-33.71-5.156-2.9-9.953-4.853-16.705-6.804-5.715-1.651-16.905-2.56-23.577-1.914zM.001 169.97c0 .821 5.523 34.045 5.686 34.209.085.084 4.956-.648 10.824-1.629 5.868-.98 10.918-1.733 11.222-1.673.314.062 1.244 1.609 2.16 3.589 3.48 7.532 7.196 13.99 11.914 20.703l2.32 3.301-1.442 1.791c-.794.985-3.56 4.354-6.148 7.488-6.07 7.349-6.71 8.205-6.449 8.627.368.596 45.112 37.785 45.547 37.857.356.058 4.43-4.742 12.336-14.534l2.181-2.702 4.121 1.849c6.943 3.117 14.884 5.912 22.23 7.826l1.479.385V300H177.843V277.057l1.305-.34c.718-.188 2.281-.589 3.473-.891 4.119-1.047 12.469-4.098 17.844-6.521 2.967-1.337 5.707-2.505 6.09-2.595.511-.119 1.021.249 1.914 1.385.67.852 3.803 4.571 6.961 8.264 3.158 3.693 5.845 6.868 5.971 7.054.236.351 1.04-.285 8.993-7.108 2.585-2.217 9.633-8.229 15.662-13.358 22.976-19.546 21.261-17.978 20.597-18.844-.322-.419-3.326-4.023-6.675-8.008-3.35-3.985-6.368-7.592-6.707-8.016-.604-.756-.578-.825 1.408-3.665 4.188-5.989 8.709-13.998 11.564-20.486l1.463-3.322 11.151 1.85c6.134 1.018 11.216 1.788 11.294 1.71.155-.156 5.673-33.416 5.673-34.196 0-.411-4.029-.471-26.328-.396l-26.328.09-.65 2.784c-4.277 18.303-13.456 34.398-27.311 47.888-25.59 24.914-62.773 33.55-97.106 22.552-30.388-9.734-54.794-35.014-63.458-65.731-.73-2.59-1.466-5.336-1.635-6.101l-.307-1.392-26.35-.09C4.034 169.499 0 169.559 0 169.97zm81.928.686c.302 1.611 2.671 7.614 4.215 10.679 4.264 8.468 10.869 16.626 18.613 22.993 16.976 13.955 41.497 18.756 62.854 12.306 18.387-5.553 33.497-18.192 42.112-35.224 1.421-2.81 4.663-10.992 4.663-11.769 0-.083-2.415-.151-5.367-.151h-5.368l-.421 1.305c-.728 2.257-4.341 9.272-6.18 11.997-5.45 8.077-11.361 13.615-19.947 18.692-12.748 7.537-29.575 9.72-44.434 5.765-14.975-3.986-28.503-14.491-35.935-27.907-1.556-2.809-3.587-7.196-4.278-9.243-.184-.545-.767-.609-5.476-.609h-5.27l.219 1.166z" fill="#112749" fill-opacity=".1"/></svg>