<svg width="219" height="282" viewBox="0 0 319 282" fill="none" xmlns="http://www.w3.org/2000/svg"><path fill-rule="evenodd" clip-rule="evenodd" d="m179.279-27.944 9.559 16.558 2.458-.674c13.521-3.704 23.918-5.662 37.868-7.134l10.377-1.095.7-3.364c.386-1.85 1.919-10.095 3.408-18.322 1.489-8.227 2.904-15.073 3.147-15.212.241-.14 4.777.575 10.08 1.587a2426.274 2426.274 0 0 0 20.108 3.732 4886.744 4886.744 0 0 1 14.217 2.582c27.192 5.028 38.801 7.181 45.479 8.434l7.985 1.5-.306 1.94c-.168 1.068-1.607 9.085-3.198 17.815-1.59 8.73-2.931 16.302-2.979 16.824-.063.677 1.004 1.443 3.702 2.66 8.939 4.033 19.136 9.842 29.509 16.81 9.369 6.296 11.28 7.366 12.217 6.845 1.027-.572 20.1-16.04 25.649-20.802 1.334-1.145 2.533-2.053 2.665-2.017.132.035 6.864 8.13 14.96 17.986 8.096 9.858 16.17 19.648 17.942 21.756 1.771 2.109 3.384 4.118 3.584 4.465.289.503-7.424 5.093-37.745 22.462l-38.107 21.83-1.603-1.754c-3.841-4.202-13.659-13.433-17.888-16.819-32.034-25.647-71.771-38.27-112.571-35.762-36.886 2.269-72.319 17.458-99.422 42.622-44.441 41.259-62.166 104.595-45.613 162.988l2.12 7.482-37.896 22.051c-26.118 15.198-37.99 21.889-38.2 21.527-.485-.84-20.176-53.539-20.105-53.805.036-.133 1.422-.718 3.08-1.301 6.838-2.404 29.835-11.209 30.94-11.847.8-.462 1.093-1.128.888-2.019-.6-2.599-1.597-19.452-1.582-26.716.016-7.587.426-15.908 1.077-21.9.204-1.875.097-3.621-.238-3.882-.334-.259-4.172-1.767-8.53-3.348C3.602 158.24.486 156.946.82 155.86c.983-3.198 33.742-91.699 34.112-92.156.244-.3 8.37 2.392 18.06 5.982l17.615 6.53 4.73-6.619c7.006-9.802 15.55-19.705 25.287-29.31l1.814-1.79-9.56-16.557-9.56-16.558 43.201-24.942 43.201-24.942 9.56 16.558zm23.447 119.793c39.997-18.204 86.476-12.503 120.526 14.784 2.753 2.207 5.589 4.693 6.303 5.525l1.298 1.512-7.727 4.277-7.727 4.275-2.873-2.359c-11.67-9.582-29.327-17.596-44.046-19.988-24.264-3.945-45.762-.155-66.262 11.681-28.919 16.696-46.579 45.2-48.95 79.007-.383 5.465.247 18.602 1.077 22.467l.481 2.234-7.748 4.473c-4.261 2.46-7.776 4.415-7.813 4.344-.333-.652-1.777-8.335-2.364-12.575-3.386-24.467 2.216-52.014 14.947-73.504 5.026-8.482 10.322-15.3 18.442-23.743 6.873-7.146 22.267-17.782 32.436-22.41zm278.926 10.661c.684 1.186 20.399 53.742 20.299 54.116-.051.193-7.692 3.194-16.979 6.669-9.287 3.475-17.204 6.596-17.592 6.936-.401.351-.455 3.36-.126 6.981 1.254 13.771 1.271 26.188.055 39.81l-.598 6.698 3.575 1.383c1.966.76 8.767 3.319 15.113 5.685 14.885 5.549 16.522 6.252 16.498 7.079-.035 1.166-33.626 92.13-34.195 92.596-.464.382-10.346-3.152-29.917-10.698l-5.4-2.082-4.406 6.104c-7.425 10.284-16.557 20.936-25.565 29.82l-1.814 1.788 9.56 16.558 9.559 16.558-43.201 24.942-43.2 24.942-9.56-16.558-9.56-16.558-2.167.597c-1.192.328-3.782 1.051-5.755 1.608-6.818 1.922-21.412 4.476-31.189 5.458-5.397.542-10.326 1.141-10.953 1.33-.837.253-1.266 1.21-1.609 3.594-.258 1.788-1.68 9.765-3.16 17.729-1.481 7.962-2.714 14.784-2.74 15.157-.049.703-1.738.455-18.905-2.765-5.578-1.047-20.76-3.85-33.738-6.229-49.451-9.066-45.669-8.231-45.431-10.035.114-.874 1.447-8.579 2.961-17.122 1.514-8.543 2.865-16.264 3-17.158.243-1.595.147-1.673-5.086-4.117-11.035-5.155-24.235-12.947-33.763-19.932l-4.879-3.577-14.554 11.965c-8.005 6.58-14.699 11.925-14.876 11.878-.354-.095-36.036-43.503-36.687-44.63-.342-.592 5.425-4.038 37.672-22.51l38.076-21.812 3.259 3.477c21.425 22.854 48.088 38.436 79.327 46.361 57.698 14.636 118.563-3.885 158.953-48.37 35.75-39.374 49.91-96.201 36.818-147.757-1.104-4.347-2.33-8.923-2.724-10.169l-.717-2.265 37.958-22.087c32.149-18.706 38.021-21.98 38.363-21.388zm-117.681 69.264c.906 2.577 2.489 13.216 2.815 18.927.901 15.775-1.833 33.055-7.705 48.698-12.873 34.289-44.265 61.653-80.466 70.141-31.167 7.307-63.51 1.656-90.138-15.748-4.392-2.871-15.889-11.98-16.537-13.102-.069-.12 3.36-2.231 7.621-4.691l7.747-4.473 1.695 1.533c2.932 2.652 13.994 9.766 18.918 12.166 14.597 7.116 27.745 10.185 44.368 10.357 24.68.256 50.787-10.615 68.939-28.706 18.294-18.233 29.065-44.67 28.612-70.227-.095-5.351-.82-13.376-1.528-16.907-.188-.938.6-1.518 7.396-5.442l7.607-4.392.656 1.866z" fill="#0E2243" fill-opacity=".25"/></svg>