<svg width="36" height="36" fill="none" xmlns="http://www.w3.org/2000/svg"><g clip-path="url(#a)"><path fill-rule="evenodd" clip-rule="evenodd" d="M27.423.279c-.096.154-.798.281-1.561.281-1.083 0-1.464.123-1.739.563-.312.5-.655.562-3.086.562-2.415 0-2.769-.064-3.026-.543-.16-.3-.539-.623-.843-.72-.68-.215-1.698.294-1.698.851 0 .662-2.593.536-4.02-.195C9.98.323 6.893.163 6.893.84c0 .308.455.471 1.687.603.928.1 2.19.448 2.802.774.686.365 1.632.592 2.46.592h1.348l-.007 3.445-.005 3.446-.909.421c-.572.267-1.115.85-1.47 1.58-1.113 2.29-2.11 2.811-2.11 1.102 0-.675-.166-1.063-.543-1.265-.301-.161-2.305-.291-4.482-.291-3.753 0-3.945-.028-4.124-.591-.266-.838.077-1.053 1.835-1.151 1.188-.067 1.565-.197 1.635-.566.077-.406-.198-.49-1.826-.562-1.85-.08-1.92-.11-2.004-.844-.087-.753-.07-.76 1.825-.844 1.559-.068 1.93-.174 2.007-.575.08-.42-.13-.492-1.44-.492-1.613 0-2.37-.463-2.063-1.262.112-.292.557-.426 1.414-.426 1.505 0 2.142-.213 2.142-.716 0-.23-.408-.409-1.055-.462-.838-.07-1.055-.203-1.055-.65 0-.445.234-.592 1.125-.703.75-.094 1.125-.281 1.125-.563 0-.571-2.069-.72-2.78-.2-.31.227-.544.761-.562 1.282-.022.583-.203.947-.524 1.049-.494.157-.616.488-.901 2.44-.085.58-.23 1.482-.322 2.005-.1.565-.042 1.029.14 1.142.17.105.309.815.309 1.578 0 1.082.123 1.464.562 1.738.517.323.563.656.563 4.08 0 3 .076 3.73.391 3.73.616 0 .734-.661.734-4.11v-3.22l3.445.08 3.445.078.14 4.683c.154 5.108.312 5.601 1.92 6 .769.19 2.018 1.182 2.018 1.6 0 .128-.302.233-.672.233-.37 0-.938.221-1.263.492-.545.453-.598.816-.665 4.57-.071 4.061-.074 4.079-.743 4.173-.871.124-1.147-.353-1.152-1.993-.004-.998-.111-1.336-.427-1.336-.323 0-.421.357-.421 1.524 0 1.948-.19 2.413-.985 2.413-.794 0-.984-.465-.984-2.413 0-1.144-.102-1.524-.408-1.524-.3 0-.43.43-.492 1.617-.083 1.591-.098 1.617-.928 1.617-.83 0-.845-.026-.928-1.617-.062-1.186-.193-1.617-.493-1.617-.261 0-.407.29-.407.81 0 .865-.63 1.605-1.113 1.307-.178-.11-.294-1.514-.294-3.551 0-2.8.094-3.554.556-4.458.667-1.308.968-3.102.61-3.636-.407-.609-.884-.096-.884.952 0 .524-.317 1.548-.704 2.275-.64 1.206-.703 1.63-.703 4.815 0 1.92.131 3.737.291 4.036.202.377.59.544 1.266.544.536 0 .975.117.975.261 0 .627.962 1.18 1.937 1.112.559-.038 1.292.08 1.63.263.777.42 1.37.42 2.146 0 .338-.183 1.076-.301 1.64-.262.724.05 1.18-.093 1.547-.485.487-.518.894-.554 6.146-.534 5.128.019 5.725.072 6.75.606.922.48 1.75.602 4.585.68 3.858.104 4.837-.199 4.837-1.494 0-.376.326-1.01.724-1.408.535-.535.704-.963.645-1.642-.043-.505.086-1.317.288-1.805.308-.743.303-1.019-.032-1.69-.22-.44-.346-1.26-.28-1.82.09-.784-.019-1.138-.473-1.526-.483-.415-.59-.826-.59-2.272 0-1.513.072-1.766.506-1.766.94 0 1.181-.602 1.181-2.953 0-2.35-.24-2.953-1.181-2.953-.726 0-.67-1.66.1-2.965.51-.862.625-1.579.719-4.445.13-3.983-.115-4.773-1.521-4.91-.574-.057-1.049-.336-1.35-.794-.374-.573-.659-.694-1.498-.635C30.701.63 29.96.513 29.621.33c-.75-.406-1.961-.434-2.198-.051zm.34 1.019c-.11.11-.2 1.001-.2 1.98 0 1.594-.059 1.782-.562 1.782-.5 0-.562-.188-.562-1.687V1.685H24.75v4.078c0 3.703-.052 4.13-.562 4.64-.31.31-.88.563-1.266.563-.387 0-.703.072-.703.16 0 .579.716 1.229 1.818 1.65.705.269 1.414.735 1.575 1.036.288.538.305.537 1.123-.044 1.84-1.312 4.115-1.343 5.619-.078l.834.701v-1.08c.001-.633.26-1.486.629-2.063.565-.887.627-1.346.631-4.641.005-3.47-.023-3.656-.557-3.656-.449 0-.58.216-.651 1.071-.068.829-.196 1.052-.563.982-.366-.07-.493-.456-.558-1.705-.083-1.58-.102-1.614-.914-1.614-.828 0-.83.004-.83 1.708 0 1.475-.067 1.695-.492 1.615-.39-.074-.521-.472-.633-1.92-.12-1.567-.222-1.836-.715-1.907-.315-.045-.663.008-.773.117zm-11.307.422c-.282.733-.022 9.392.28 9.317.38-.094.529-9.076.156-9.448-.184-.185-.332-.14-.436.13zm1.826 4.616v3.526l2.602-.08 2.601-.081.08-3.446.078-3.445h-5.36v3.526zm-3.834 4.845c-.176.114-.604.814-.952 1.556-.458.978-.931 1.502-1.72 1.904l-1.087.556.004 2.595c.005 3.551.086 3.755 1.814 4.572.99.469 1.632 1 1.973 1.633l.505.938 3.173-.04c3.34-.043 4.062-.28 4.062-1.335 0-.666 1.725-2.469 2.362-2.469.248 0 .45-.19.45-.422 0-.232-.227-.422-.506-.422-.73 0-1.181-.558-1.181-1.462 0-.932.813-1.107 1.043-.225.081.31.29.563.466.563.205 0 .319-.654.319-1.829 0-1.174-.114-1.828-.319-1.828-.175 0-.388.267-.473.592-.207.79-.873.535-.982-.375-.058-.485.11-.862.504-1.138.573-.402.551-.433-.757-1.082-.9-.446-1.488-.97-1.77-1.576-.385-.829-.535-.91-1.714-.915-.94-.004-1.431.147-1.802.557-.28.31-.804.562-1.166.562-.361 0-.815-.253-1.008-.562-.37-.593-.711-.689-1.238-.348zM27.82 14.42c-1.276.86-1.712 1.769-1.564 3.26.327 3.31 4.633 4.227 6.381 1.358 1.03-1.688.391-3.902-1.39-4.824-1.182-.61-2.317-.542-3.427.206zm.831.318c-1.343.434-2.107 2.015-1.647 3.408.564 1.71 2.322 2.433 3.935 1.616 1.68-.852 2.013-3.05.665-4.398-.839-.838-1.719-1.024-2.953-.626zm-.065 1.311c-.915.72-.949 1.655-.09 2.462.869.817 1.714.771 2.422-.13.756-.96.735-1.382-.107-2.224-.842-.843-1.265-.863-2.225-.108zm5.552 1.245c0 1.322.102 1.828.37 1.828.266 0 .368-.506.368-1.828 0-1.32-.102-1.828-.369-1.828s-.37.507-.37 1.828zm-7.98 4.79v1.538H33.188V20.544l-1.308.696c-.72.382-1.713.695-2.208.695-.495 0-1.489-.313-2.208-.695l-1.308-.695v1.538zm-2.044.484c-.254.193-.709.934-1.01 1.646-.443 1.049-.765 1.381-1.7 1.755l-1.153.461v6.755h1.556c1.103 0 1.961.205 2.944.703 1.252.634 1.72.703 4.772.703h3.384v-.703c0-.61-.124-.703-.937-.703-1.113 0-1.422-.232-.995-.748.192-.23.907-.377 1.845-.377 1.504 0 1.53-.014 1.442-.773-.083-.717-.193-.78-1.495-.853-1.93-.107-2.261-.243-1.836-.755.21-.253.99-.437 2.07-.489 1.64-.079 1.735-.121 1.735-.786 0-.663-.096-.708-1.688-.78-2.22-.103-2.558-.226-2.107-.77.23-.277.866-.419 1.879-.419 1.504 0 1.53-.013 1.442-.773l-.089-.774-4.078-.072c-3.755-.066-4.117-.12-4.57-.664-.271-.326-.493-.894-.493-1.264 0-.754-.238-.837-.918-.32zm-6.675 7.101v3.797h1.968v-7.594H17.44v3.797zm-5.173-3.07c-.094.244-.171 1.826-.171 3.515v3.071H16.314V26.154h-1.94c-1.507 0-1.976.099-2.108.445z" fill="#2F57EF"/></g><defs><clipPath id="a"><path fill="#fff" d="M0 0h36v36H0z"/></clipPath></defs></svg>