<svg width="50" height="50" fill="none" xmlns="http://www.w3.org/2000/svg"><path fill-rule="evenodd" clip-rule="evenodd" d="M24.485 6.111c-.148.148-.269.679-.269 1.18 0 .66.222.912.807.912.646 0 .783-.21.684-1.044-.124-1.045-.717-1.553-1.222-1.048zm-4.437 4.602c-7.041 3.279-9.282 12.204-4.602 18.333 1.896 2.484 3.257 5.57 3.76 8.533.23 1.353.661 3.014.957 3.69.295.677.538 1.418.538 1.647 0 .802 1.539 1.224 4.466 1.224 3.177 0 4.518-.689 4.518-2.32 0-.418.15-.851.333-.965.183-.113.442-1.37.575-2.795.28-3 1.441-5.714 3.743-8.75 4.833-6.374 3.023-14.867-3.907-18.33-3.226-1.612-7.269-1.716-10.381-.267zm-6.24.034c-.266.694.505 1.752 1.276 1.752.663 0 .708-1.236.07-1.875-.63-.63-1.072-.59-1.345.123zm20.96-.01c-.504.606-.29 1.762.326 1.762.618 0 1.328-1.138 1.092-1.752-.287-.75-.802-.753-1.419-.01zm-14.38 1.602c-2.542 1.266-4.611 3.648-5.36 6.171-1.107 3.727-.532 6.407 2.245 10.457 1.495 2.182 2.352 3.993 3.624 7.654.098.281.836.488 1.745.488h1.574v-7.593l-2.034-2.06c-1.595-1.615-1.932-2.162-1.56-2.534.372-.372.895-.06 2.425 1.447l1.95 1.922 1.968-1.939C28.571 24.77 29 24.522 29.295 25c.273.44-.118 1.073-1.576 2.55l-1.94 1.966v7.638l1.644-.12c1.557-.114 1.661-.199 1.949-1.591.406-1.968 1.633-4.345 3.515-6.81 2.526-3.31 3.171-6.45 2.08-10.122-1.763-5.94-8.946-8.98-14.58-6.172zm-11.17 9.078c-.385.624.919 1.44 1.607 1.007.333-.21.588-.552.566-.759-.055-.505-1.885-.714-2.173-.248zm29.297 0c-.385.624.919 1.44 1.607 1.007.333-.21.588-.552.565-.759-.054-.505-1.884-.714-2.172-.248zM14.065 31.44c-.504.606-.29 1.763.325 1.763.62 0 1.329-1.139 1.093-1.753-.288-.75-.802-.753-1.419-.01zm20.45.002c-.357.929.857 2.09 1.506 1.44.347-.347.367-.664.073-1.132-.585-.926-1.29-1.063-1.58-.308zm-13.424 7.62c0 .234 1.563.39 3.906.39 2.344 0 3.907-.156 3.907-.39s-1.563-.39-3.907-.39c-2.343 0-3.906.156-3.906.39zm.856 2.637c.111.578.581.683 3.05.683 2.47 0 2.94-.105 3.051-.683.117-.606-.23-.684-3.05-.684s-3.168.078-3.051.684z" fill="#fff"/></svg>