<svg width="60" height="50" fill="none" xmlns="http://www.w3.org/2000/svg"><path fill-rule="evenodd" clip-rule="evenodd" d="M24.902 2.323c-2.707 1.055-5.014 1.976-5.127 2.046-.188.117-.205.445-.204 4.14 0 4.52.095 5.443.76 7.429.218.654.608 1.61.866 2.122l.469.933-1.194.08c-1.226.084-3.674.378-4.167.501-.238.06-.266.036-.199-.175.187-.588-.407-1.713-1.09-2.064-.41-.21-7.09-2.06-7.428-2.057-.419.004-1.185.402-1.503.78-.228.271-.854 2.297-2.85 9.228-2.821 9.79-2.78 9.587-2.128 10.441.178.233.489.499.692.592.49.223 7.084 2.043 7.393 2.04.76-.008 1.704-.802 1.957-1.647l.14-.468.39.379c.362.35.391.433.391 1.122 0 1.124.525 1.96 1.479 2.356.33.136.338.162.338 1.007 0 .773.037.92.351 1.367.194.275.57.609.837.742l.485.242-.055.762c-.045.637-.01.848.218 1.287.564 1.087 1.774 1.62 2.89 1.273l.535-.166.25.473c.547 1.038 1.889 1.506 3.049 1.063l.526-.201.706.653c.835.773 1.653 1.076 2.634.974 1.265-.13 2.536-1.138 2.93-2.32l.192-.58.633.578c.807.739 1.548 1 2.614.924.9-.065 1.525-.348 2.15-.976.471-.473.91-1.27.91-1.652 0-.356.082-.38.67-.203 1.253.377 2.357.086 3.311-.874.979-.984 1.268-2.145.873-3.505-.056-.194-.028-.264.109-.264.101 0 .473-.108.825-.24.723-.27 1.472-.935 1.819-1.614.231-.454.243-.46 1.323-.657 1.26-.23 2.53-.635 3.498-1.115l.678-.337.135.328c.256.617 1.222 1.292 1.85 1.292.445 0 7.35-1.99 7.63-2.2.518-.386.753-.811.806-1.458.044-.54-.257-1.686-2.31-8.823-1.3-4.512-2.468-8.53-2.598-8.93-.402-1.24-1.386-1.85-2.526-1.568-1.365.338-6.564 1.805-6.776 1.913-.699.353-1.114 1.01-1.149 1.818l-.023.545-1.839.79-1.838.79-.957-.575c-.526-.317-1.056-.607-1.179-.646-.31-.098-.287-.199.251-1.104.963-1.621 1.624-3.506 1.932-5.513.183-1.189.252-8.607.083-8.86-.047-.07-.203-.19-.345-.265C39.55 4.042 30.107.392 29.962.398c-.076.004-2.353.87-5.06 1.925zm1.875.715c-1.74.677-3.789 1.473-4.552 1.768l-1.389.537.056 3.883c.05 3.371.088 4.013.295 4.878.335 1.402.883 2.851 1.462 3.872.49.865.5.874 1.02.911.36.026.698-.044 1.082-.224l.56-.263-.242-.36c-.493-.74-1.401-2.74-1.707-3.76-.302-1.009-.318-1.195-.365-4.239l-.05-3.183.274-.172c.151-.095 1.739-.74 3.528-1.434L30 3.99l3.252 1.258c1.788.692 3.37 1.335 3.515 1.427.26.167.263.195.263 2.907 0 2.929-.112 3.895-.629 5.414a13.9 13.9 0 0 1-1.451 2.95c-.226.342-.39.636-.366.654.024.02.46.18.968.357.769.268.95.296 1.079.166.324-.325 1.226-2.05 1.577-3.017.772-2.124.837-2.62.899-6.877l.056-3.88-.451-.18c-1.43-.57-8.683-3.37-8.724-3.366-.026.002-1.471.558-3.212 1.235zm2.578 2.641c-.322.128-1.606.632-2.854 1.12l-2.268.887.058 2.594c.048 2.162.1 2.75.31 3.53.287 1.064 1.242 3.085 1.737 3.678l.331.396.617-.132c.974-.21 2.905-.161 4.293.107.682.131 1.305.264 1.386.295.29.111 1.577-1.905 2.06-3.23.586-1.607.647-2.048.653-4.723l.006-2.555-2.637-1.031c-1.45-.568-2.742-1.063-2.871-1.1-.13-.038-.498.036-.82.164zm1.415 5.962-2.128 2.108-.756-.765c-.638-.644-.812-.76-1.106-.73-.47.045-.697.477-.474.904.195.375 2.092 2.235 2.28 2.235.357 0 .935-.499 3.025-2.61 1.52-1.535 2.256-2.36 2.256-2.53 0-.323-.396-.72-.72-.72-.167 0-.952.696-2.377 2.108zM7.104 16.946c-.282.443-5.13 17.459-5.058 17.748a.686.686 0 0 0 .294.385c.36.192 6.473 1.876 6.812 1.876a.728.728 0 0 0 .484-.205c.188-.215 5.133-17.25 5.13-17.677a.668.668 0 0 0-.205-.428c-.242-.214-6.42-1.963-6.936-1.963-.24 0-.408.085-.521.264zm41.646.637c-1.708.483-3.198.96-3.31 1.061a.666.666 0 0 0-.205.43c0 .134.707 2.697 1.57 5.694.862 2.997 1.977 6.873 2.476 8.613.498 1.74.987 3.257 1.085 3.37.098.112.31.204.471.204.328 0 6.481-1.694 6.829-1.88a.677.677 0 0 0 .288-.381c.072-.29-4.776-17.305-5.058-17.748-.256-.405-.71-.335-4.146.637zm-21.534 1.561c-.468.123-1.075.323-1.348.444-1.979.88-4.277 3.202-5.57 5.63-.407.763-.493 1.038-.493 1.567 0 1.328.962 2.333 2.244 2.343 1.046.008 1.306-.177 3.373-2.411 1.67-1.804 2.01-2.114 2.687-2.447.7-.345.876-.381 1.83-.381 1.811 0 1.68-.099 7.486 5.672 2.763 2.745 5.226 5.245 5.475 5.553.248.31.541.85.652 1.202.164.518.25.64.458.64.55 0 2.552-.593 3.494-1.035l.99-.464-1.85-6.428a2139.116 2139.116 0 0 0-2.1-7.266l-.25-.836-1.996.866c-1.099.476-2.087.865-2.198.865-.11 0-.465-.178-.789-.395-.597-.403-2.286-1.305-2.924-1.563-1.734-.7-3.742-1.295-5.433-1.61-1.3-.241-2.688-.221-3.738.054zm-18.134.214c-1.153.548-1.633 1.781-1.127 2.895 1.03 2.268 4.413 1.417 4.208-1.059-.127-1.538-1.716-2.485-3.08-1.836zm39.947.009c-1.526.693-1.684 2.903-.273 3.837 1.297.858 3.035.168 3.373-1.339.405-1.8-1.412-3.264-3.1-2.498zm-29.224 1.084c-1.514.128-3.986.518-4.104.647-.048.053-.964 3.153-2.036 6.89l-1.95 6.794.588.587.587.587 1.143-1.136c1.235-1.227 1.7-1.498 2.586-1.498 1.114 0 2.188.905 2.33 1.963.058.44.097.484.489.555 1.031.189 1.88 1.042 2.07 2.082.069.373.126.44.382.44.468 0 1.262.438 1.602.884.17.222.37.665.446.984.128.538.169.586.553.651 1.146.194 2.008 1.178 2.018 2.303.007.938-.264 1.424-1.49 2.672l-1.11 1.13.496.48c.656.63.893.74 1.609.74.698 0 1.142-.2 1.567-.705.636-.756.643-1.685.02-2.6-.34-.498-.374-.82-.112-1.082.423-.423.727-.249 2.326 1.332 1.573 1.556 1.883 1.765 2.617 1.765 1.515 0 2.546-1.772 1.77-3.047-.136-.225-1.455-1.626-2.928-3.112-2.727-2.75-2.898-2.982-2.496-3.383.472-.472.646-.34 4.147 3.142 1.84 1.83 3.46 3.386 3.6 3.457.332.17 1.386.168 1.715-.001.39-.201.786-.593.984-.973.235-.452.238-1.326.006-1.77-.102-.195-1.666-1.856-3.476-3.691-3.36-3.406-3.523-3.618-3.109-4.031.463-.463.665-.316 3.734 2.735 2.505 2.489 3.01 2.938 3.43 3.05a2.025 2.025 0 0 0 2.49-1.54c.255-1.191.405-1.003-5.434-6.844-3.552-3.553-5.437-5.356-5.752-5.502-.285-.132-.744-.22-1.174-.223-1.138-.008-1.56.287-3.673 2.572-2.248 2.43-2.668 2.7-4.168 2.689-1.122-.01-1.845-.301-2.589-1.044-.756-.756-1.044-1.47-1.048-2.595-.004-.893.027-1.013.497-1.934.626-1.228 1.76-2.818 2.711-3.802l.73-.754-.682.016a41.1 41.1 0 0 0-1.912.12zm-10.439.323c-.414.415-.432.713-.068 1.136.196.228.385.319.663.319.437 0 .938-.467.938-.875 0-.314-.62-.922-.938-.922-.139 0-.407.154-.595.342zm40.206-.191c-.616.311-.609 1.234.012 1.555.916.474 1.722-.684.988-1.418-.321-.321-.57-.355-1-.137zm-33.459 14.14c-.129.053-.801.679-1.494 1.39-1.134 1.166-1.26 1.337-1.26 1.722 0 .316.09.517.343.77.38.38.78.436 1.275.177.497-.26 2.575-2.443 2.665-2.8.213-.852-.696-1.602-1.529-1.26zm.867 4.065c-.888.88-1.676 1.749-1.752 1.932-.291.704.253 1.509 1.022 1.509.411 0 .556-.115 2.174-1.733 1.665-1.666 1.732-1.752 1.732-2.21 0-.662-.432-1.096-1.09-1.096-.45 0-.55.076-2.086 1.598zm4.055 1.085c-.538.34-4.017 3.898-4.136 4.23-.141.395.035 1.002.356 1.226.142.1.469.181.727.181.45 0 .546-.078 2.544-2.08 1.314-1.317 2.105-2.2 2.156-2.405.108-.441-.143-.997-.544-1.204-.437-.226-.68-.214-1.103.052zm2.686 2.415c-.188.081-1.015.831-1.836 1.666-1.595 1.62-1.684 1.787-1.324 2.483.207.401.763.652 1.204.543.198-.048.93-.683 1.878-1.63 1.487-1.484 1.552-1.569 1.552-2.03 0-.835-.737-1.352-1.474-1.032z" fill="#EC2526"/></svg>