<svg width="35" height="35" fill="none" xmlns="http://www.w3.org/2000/svg"><g clip-path="url(#a)"><path fill-rule="evenodd" clip-rule="evenodd" d="M7.312 1.922c-1.76.44-3.072 1.269-4.515 2.848-2.928 3.203-3.573 7.877-1.67 12.108.428.953 1.804 2.505 5.096 5.748 2.48 2.444 4.683 4.444 4.895 4.444.877 0 .696-.881-.415-2.014-1.123-1.143-1.131-1.166-1.127-3.192.005-2.333.204-2.81 1.12-2.68.62.088.657.205.732 2.346.078 2.203.096 2.257.82 2.411 1.455.31 1.958.66 2.514 1.75.578 1.134 1.192 1.423 1.472.693.397-1.036-1.226-3.26-2.6-3.561l-.78-.172v-4.867c0-3.992.073-4.927.41-5.207.327-.271.492-.271.82 0 .32.266.41 1.017.41 3.422 0 2.418.084 3.115.39 3.232.78.3.963-.566 1.038-4.892.07-4.01.116-4.36.59-4.451.282-.054.62.067.748.27s.235 2.36.237 4.796c.005 4.462.151 5.132.974 4.45.315-.263.398-1.167.398-4.37 0-4.08.102-4.493 1.025-4.17.254.087.342 1.2.342 4.3 0 3.328.081 4.25.398 4.513.71.588.97.021.973-2.125.005-2.274.24-2.962.926-2.699.368.142.437.696.437 3.49v3.322l-.854.974c-1.203 1.37-1.607 2.505-1.607 4.525v1.753l-1.52 1.3-1.52 1.298-.75-.719c-.774-.74-1.52-.924-1.814-.447-.233.377.09.835 1.433 2.034l1.16 1.035 1.862-1.651 1.863-1.652.75.94c1.417 1.775 3.878 2.585 6.18 2.033 1.966-.471 3.37-1.596 4.258-3.411 1.24-2.536.721-5.339-1.356-7.315l-.926-.881 1.565-1.673c1.616-1.727 2.702-3.65 2.96-5.238.081-.502.254-.978.384-1.058.13-.08.237-.885.237-1.787 0-1.024-.103-1.577-.273-1.472-.15.093-.274-.08-.274-.383 0-2.336-2.939-6.28-5.534-7.43-2.23-.987-5.255-.904-7.635.21-.99.464-2.309 1.301-2.929 1.862l-1.128 1.02-1.129-1.02c-2.352-2.125-6.354-3.269-9.061-2.59zm.269 1.372c-2.658.655-4.805 2.834-5.702 5.788-1.264 4.162-.21 7.25 3.852 11.283l2.474 2.455v-1.58c0-1.67.506-3.015 1.242-3.297.244-.094.802-.17 1.241-.17h.798l.009-2.666c.005-1.663.134-2.83.341-3.1.518-.674 1.53-1.118 2.121-.93.44.14.537.041.537-.55 0-1.056.427-1.683 1.371-2.012.925-.322 1.85-.086 2.438.622.214.257.578.379.864.288.606-.193 2.034.51 2.266 1.114.094.243.17.986.17 1.65 0 1.113.055 1.209.696 1.209.383 0 .998.302 1.367.671.636.635.671.84.671 3.833v3.162l.753-.21c.413-.116 1.441-.18 2.284-.143l1.532.066 1.555-1.63c.856-.897 1.873-2.325 2.261-3.174a9.551 9.551 0 0 0-2.295-11.089c-1.373-1.24-2.749-1.721-4.897-1.71-2.175.011-3.84.666-5.905 2.324-.916.735-1.872 1.337-2.123 1.337-.252 0-1.2-.595-2.105-1.322-.907-.728-2.129-1.515-2.716-1.75-1.412-.565-3.815-.786-5.1-.469zM.089 12.03c0 .978.05 1.378.11.89.061-.49.061-1.29 0-1.778-.06-.49-.11-.09-.11.889zm25.342 10.165c-2.202.626-3.554 2.428-3.554 4.738 0 4.184 4.547 6.422 7.945 3.91 1.633-1.207 2.332-3.846 1.529-5.769-.488-1.169-2.098-2.553-3.383-2.91-1.194-.332-1.262-.33-2.537.031zm2.289 3.407c-1.87 2.37-1.634 2.197-2.247 1.642-.58-.525-1.43-.523-1.605.004-.137.412 1.57 2.006 2.15 2.008.599.002 3.79-3.779 3.602-4.268-.259-.675-1.096-.404-1.9.614zm-15.048 2.716c-.09.236-.025.57.147.74.385.386 1.296-.4 1.007-.869-.273-.441-.965-.364-1.154.13z" fill="#2F57EF"/></g><defs><clipPath id="a"><path fill="#fff" d="M0 0h35v35H0z"/></clipPath></defs></svg>