<svg width="60" height="60" fill="none" xmlns="http://www.w3.org/2000/svg"><path fill-rule="evenodd" clip-rule="evenodd" d="M15.546 2.874c-4.079.664-7.537 2.428-10.331 5.27-2.456 2.497-4.17 5.779-4.886 9.35-.377 1.88-.376 4.859.002 6.745.32 1.6 1.002 3.582 1.598 4.648 1.923 3.44 6.792 7.965 13.933 12.95l1.74 1.215-.046 1.239c-.044 1.156-.08 1.317-.559 2.41-.378.864-.513 1.326-.515 1.758-.002.693.35 1.452.833 1.796.18.128 3.215 1.747 6.745 3.599 6.73 3.528 6.918 3.609 7.88 3.35.692-.187 1.152-.713 1.898-2.17.52-1.017.859-1.503 1.56-2.238 1.245-1.306 2.892-3.856 4.9-7.584l.612-1.139 1.664-1.136c7.986-5.453 13.19-10.128 15.37-13.807.553-.934 1.142-2.476 1.142-2.988 0-.54-.553-1.062-1.123-1.062-.55 0-.955.366-1.235 1.116-.912 2.436-3.058 5.024-6.923 8.349-1.677 1.442-6.314 5.003-6.401 4.916-.025-.025.258-.637.63-1.36.66-1.288.673-1.332.67-2.274-.003-.808-.053-1.055-.312-1.548-.17-.322-.485-.751-.7-.954-.416-.391-1.263-.862-1.551-.862-.308 0-.31-.198-.013-.838a3.462 3.462 0 0 0-.064-3.006c-.197-.394-.527-.86-.733-1.033-.416-.351-1.442-.862-1.736-.864-.154-.001-.2-.173-.244-.91-.118-1.98-1.492-3.352-3.364-3.359-.931-.003-1.493.177-2.172.695l-.51.39-.27-.286c-.508-.542-1.441-.902-2.336-.902-.676 0-.939.063-1.571.374-.422.208-.916.563-1.11.799-.193.234-1.473 2.576-2.846 5.206-1.373 2.63-2.524 4.784-2.557 4.785-.034.002-.336-.549-.672-1.224-.706-1.42-1.239-2.063-2.072-2.501-.515-.271-.733-.312-1.648-.312-.913 0-1.134.041-1.643.31-.755.396-1.6 1.301-1.866 1.997-.156.41-.196.774-.16 1.462.044.83.133 1.11.935 2.967.888 2.054 1.334 3.255 1.245 3.344-.026.026-1.073-.721-2.326-1.661-6.218-4.664-9.66-8.174-10.873-11.09a15.756 15.756 0 0 1-1.07-7.823C3.299 12.2 8.32 6.766 15.09 5.326c1.418-.302 3.938-.354 5.478-.113 2.99.467 5.636 1.693 8.073 3.74 1.222 1.025 1.5 1.042 2.555.15 2.562-2.166 5.201-3.412 8.239-3.89 1.546-.242 4.053-.19 5.508.117 4.853 1.022 9.017 4.269 11.126 8.676.278.58.592 1.324.699 1.653.258.798.648 1.154 1.26 1.154.386 0 .536-.07.813-.38.43-.48.43-.795-.003-1.917-2.337-6.07-7.214-10.173-13.72-11.544-1.42-.3-5.141-.3-6.616-.002-2.617.53-5.509 1.79-7.429 3.239l-1.096.826-.544-.454c-1.879-1.568-4.841-2.944-7.616-3.54-1.503-.323-4.778-.41-6.27-.167zm42.667 17.06c-.27.156-.557.722-.557 1.095 0 .164.153.468.34.677.281.315.424.38.832.38s.552-.065.833-.38c.186-.209.34-.513.34-.677 0-.388-.296-.95-.58-1.102-.286-.153-.94-.15-1.208.006zm-27.817 4.758c-.137.027-.373.18-.524.341-.151.161-1.65 2.912-3.33 6.114-3.427 6.526-3.367 6.442-4.322 6.111-.475-.164-.498-.2-1.712-2.61-.692-1.376-1.358-2.548-1.522-2.679-.229-.183-.413-.222-.851-.18-.625.06-.98.313-1.213.865-.193.456-.156.588.75 2.68.837 1.936 1.526 3.905 1.908 5.45.232.941.275 1.42.279 3.105l.004 1.992-.446 1.113a47.447 47.447 0 0 0-.506 1.298c-.047.143 1.319.909 6.059 3.399 3.366 1.767 6.151 3.226 6.19 3.241.039.016.282-.377.54-.871.701-1.347 1.227-2.102 2.197-3.156 1.214-1.32 2.865-4.116 6.873-11.643 1.827-3.432 1.893-3.646 1.31-4.23-.38-.38-.916-.449-1.398-.181-.18.099-.706.97-1.502 2.486-.675 1.283-1.358 2.451-1.518 2.597-.597.539-1.577.243-1.814-.548-.151-.506-.22-.352 2.547-5.607 1.873-3.557 1.955-3.824 1.355-4.4-.392-.375-1.109-.426-1.504-.107-.138.112-1.207 2.028-2.375 4.258s-2.233 4.154-2.366 4.275c-.152.138-.418.219-.714.219-.383 0-.534-.07-.81-.38-.215-.24-.34-.51-.34-.731 0-.23.923-2.11 2.695-5.487 1.883-3.587 2.695-5.25 2.695-5.51 0-.51-.29-.915-.772-1.074-.334-.11-.474-.096-.839.082-.41.201-.606.536-3.106 5.312-1.468 2.804-2.803 5.217-2.967 5.362-.422.374-1.005.349-1.465-.062-.659-.589-.618-.71 1.728-5.188 1.163-2.22 2.151-4.152 2.195-4.293.134-.424-.217-1.077-.684-1.272-.225-.094-.425-.165-.443-.156a2.794 2.794 0 0 1-.282.065z" fill="#EC2526"/></svg>