<svg width="35" height="35" fill="none" xmlns="http://www.w3.org/2000/svg"><path fill-rule="evenodd" clip-rule="evenodd" d="M10.432 5.657c-2.904 1.432-3.091 5.807-.327 7.67 1.946 1.312 5.093.523 6.27-1.572 2.13-3.79-2.007-8.037-5.943-6.098zm-.014 1.334c-.46.387-.978 1.175-1.15 1.75-.267.891-.238 1.202.2 2.082.687 1.384 1.726 2.101 3.042 2.101 2.544 0 4.138-2.68 2.954-4.97-.918-1.774-3.497-2.266-5.046-.963zm11.244.024c-2.741 1.351-2.924 5.133-.333 6.879.788.531 1.215.624 2.412.528 2.081-.167 3.369-1.454 3.536-3.535.096-1.198.002-1.624-.529-2.412-1.179-1.75-3.276-2.352-5.086-1.46zm.76.832c-1.294.474-2.203 2.29-1.793 3.584.361 1.139 1.526 1.966 2.767 1.966 2.175 0 3.487-2.143 2.558-4.18-.536-1.178-2.244-1.84-3.531-1.37zM8.889 15.004c-2.248.594-4.671 2.593-5.476 4.519-.558 1.336-2.348 8.984-2.196 9.382.092.24.742.351 2.047.351h1.912l.298-1.162c.47-1.84.645-2.081.74-1.026.049.527.15 1.237.226 1.579l.138.62 5.257-.073 5.257-.075.453-3.965c.25-2.18.465-3.995.479-4.033.013-.037.811-.068 1.772-.068 3.607 0 10.202-1.833 10.832-3.01.404-.755.332-1.507-.206-2.148-.462-.55-.777-.575-8.955-.698-4.662-.07-9.215-.191-10.117-.269-.903-.077-2.01-.043-2.461.076zm-.41 1.255c-1.554.506-3.144 1.812-3.82 3.137-.288.564-.943 2.767-1.455 4.896l-.932 3.87h1.06c.935 0 1.077-.088 1.216-.752.678-3.244 1.373-5.4 1.74-5.4.421 0 .558.624.946 4.306l.194 1.846H16.1L16.253 27c.084-.64.278-2.377.432-3.862.154-1.486.335-2.79.403-2.901.069-.11 1.512-.271 3.208-.356 4.683-.237 9.51-1.716 9.51-2.915 0-.309-.154-.56-.342-.56-3.021.016-15.941-.27-17.568-.388-1.555-.113-2.544-.043-3.418.241zm.396 3.826c-.577.577-.697.9-.57 1.535.185.927 2.831 4.355 3.361 4.355.196 0 1.035-.824 1.865-1.83 1.15-1.394 1.51-2.045 1.51-2.725 0-1.236-.946-2.104-2.05-1.879-1.037.211-1.431.21-2.514-.01-.715-.144-1.004-.045-1.602.554zm20.932-.394c-1.002.66-5.026 1.694-7.787 2l-3.014.336-.368 3.212c-.203 1.766-.298 3.396-.212 3.62.133.346.875.399 4.744.335l4.586-.075.137-1.093.137-1.094.476 1.162.476 1.162h2.31c1.271 0 2.376-.106 2.457-.236.08-.13-.466-2.299-1.215-4.818-.748-2.52-1.36-4.628-1.36-4.686 0-.21-.97-.087-1.367.175zm-20.18 1.143c-.523.524-.4.877.834 2.396l1.162 1.432 1.162-1.319c1.205-1.367 1.491-2.455.722-2.75-.243-.093-.783.033-1.2.28-.67.395-.798.4-1.096.04a1.067 1.067 0 0 0-1.584-.079zm18.95.467c-1.288.576-4.501 1.3-6.887 1.553l-1.69.18-.147.992c-.081.545-.227 1.7-.324 2.564l-.176 1.572h7.446v-2.05c0-1.825.057-2.051.513-2.051.376 0 .763.553 1.436 2.05l.922 2.05 1.44.001c1.672 0 1.65.469.215-4.335-.55-1.837-1.015-2.93-1.262-2.963-.216-.029-.885.168-1.487.437z" fill="#2F57EF"/></svg>