<svg width="40" height="40" fill="none" xmlns="http://www.w3.org/2000/svg"><g clip-path="url(#a)"><path fill-rule="evenodd" clip-rule="evenodd" d="M15.155.468c-2.913 1.022-4.868 4.603-4.185 7.67.45 2.021 1.247 3.018 6.93 8.664 3.804 3.778 5.305 5.076 5.873 5.076 1.014 0 11.91-10.852 12.62-12.568 1.463-3.54-.558-7.864-4.183-8.95-2.526-.757-4.737-.21-6.856 1.695l-1.456 1.308-1.247-1.094c-2.455-2.155-4.847-2.73-7.496-1.8zm13.689.862c-.876.177-1.825.727-2.859 1.657-1.723 1.55-2.481 1.711-3.36.719-1.323-1.495-3.295-2.453-5.047-2.453-4.33 0-6.947 4.111-5.077 7.974 1.382 2.855 3.17 3.435 2.888.938-.131-1.163-.035-1.483.65-2.17 1.072-1.07 2.216-1.033 3.358.109.955.954 1.137 1.836.59 2.857-.369.69-.004.802.95.291.459-.245.547-.544.41-1.389-.259-1.591.11-2.603 1.14-3.136 1.345-.695 2.136-.585 3.16.44.932.931 1.189 2.23.62 3.13-.197.31-.121.576.238.85.969.736 1.238.495 1.073-.964-.133-1.184-.04-1.499.65-2.188.442-.443 1.085-.805 1.429-.805 1.885 0 3.244 1.796 2.618 3.456-.274.725-.243.913.179 1.075.345.133.883-.203 1.662-1.038 3.956-4.241.425-10.506-5.272-9.353zm-6.335 6.777c-.454.848-.403 1.459.168 2.03.744.744 1.918.608 2.506-.29.474-.724.474-.84 0-1.563-.64-.978-2.19-1.08-2.674-.177zM16.505 9.22c-.294.645-.257.889.21 1.406.972 1.073 2.346.616 2.346-.78 0-1.501-1.941-1.976-2.556-.626zm12.187 0c-.294.645-.257.889.211 1.406 1.034 1.143 2.345.603 2.345-.965 0-1.399-1.965-1.738-2.556-.44zm-7.614 3.425c-.665.664-.767 1.052-.767 2.901v2.134l1.719 1.698 1.718 1.697 1.72-1.697 1.718-1.698v-2.276c0-3.046-.449-3.526-3.296-3.526-1.755 0-2.154.108-2.812.767zm-4.908-.24c-.3.08-.547.244-.547.366 0 .272 3.224 3.482 3.498 3.482.108 0 .245-.843.303-1.872.076-1.35-.01-1.917-.31-2.032-.482-.184-2.146-.152-2.944.057zm12.414.024c-.182.13-.27 1.027-.203 2.064l.117 1.835 1.848-1.829c1.552-1.535 1.76-1.864 1.297-2.047-.742-.293-2.661-.307-3.059-.023zm5.477 8.306c-.43.228-2.45 1.503-4.49 2.833l-3.71 2.417-.822-.782c-.617-.587-1.93-1.061-5.26-1.898-2.44-.613-4.86-1.115-5.377-1.115-.629 0-1.791.578-3.492 1.737l-2.55 1.736-.6-.642c-.329-.354-.769-.643-.977-.642-.572.002-3.703 1.957-4.072 2.543-.256.406.4 1.772 3.151 6.563 1.911 3.327 3.696 6.19 3.966 6.361.364.232.941.07 2.227-.624 2.421-1.308 2.832-1.81 2.347-2.875-.342-.75-.305-.9.341-1.398.884-.68 1.768-.703 4.005-.102 2.37.636 3.717.581 5-.2 1.74-1.06 12.415-9.593 13.115-10.484.87-1.105.798-1.858-.278-2.934-1.022-1.022-1.395-1.095-2.524-.494zm-3.747 3.64c-3.42 2.265-4.262 2.968-4.459 3.727-.31 1.196-1.322 1.9-2.73 1.9-1.24 0-5.626-1.136-6.07-1.572-.662-.652.962-.656 3.323-.01 1.386.38 2.848.609 3.248.508 1.42-.356 1.77-2.594.51-3.254-.3-.157-2.543-.797-4.986-1.424-4.155-1.066-4.513-1.11-5.528-.686-1.154.482-4.561 2.886-4.561 3.218 0 .176 3.35 6.21 4.005 7.212.204.313.564.263 1.685-.233l1.426-.63 2.824.658c2.53.59 2.918.612 3.73.206.989-.492 10.856-8.164 12.502-9.718.558-.528 1.015-1.185 1.015-1.46 0-.64-.61-1.254-1.234-1.243-.266.005-2.382 1.265-4.7 2.801zM5.076 26.43c-.73.438-1.328.885-1.328.994 0 .457 6.413 11.329 6.683 11.329.39 0 3.005-1.539 3.005-1.768 0-.459-6.444-11.337-6.719-11.344-.172-.004-.91.35-1.64.789zm.547 1.541a.47.47 0 0 0 .938 0 .47.47 0 0 0-.469-.468.47.47 0 0 0-.469.468z" fill="#2F57EF"/></g><defs><clipPath id="a"><path fill="#fff" d="M0 0h40v40H0z"/></clipPath></defs></svg>