<svg width="50" height="50" fill="none" xmlns="http://www.w3.org/2000/svg"><path fill-rule="evenodd" clip-rule="evenodd" d="M23.864 3.465c-.453.637-1.308 1.223-1.98 1.357-1.39.278-1.464.714-.383 2.233.458.642.75 1.58.684 2.195l-.114 1.075 2.831.04c2.841.041 3-.04 2.852-1.48-.038-.378.293-1.196.737-1.819 1.09-1.53 1.017-1.965-.375-2.244-.672-.134-1.526-.72-1.98-1.357-.44-.617-.95-1.121-1.136-1.121-.185 0-.696.504-1.136 1.12zm.445 1.613c-.268.43-.75.781-1.07.781-.66 0-.781.613-.192.977.215.133.39.63.39 1.106 0 .749.21.865 1.563.865 1.352 0 1.563-.116 1.563-.865 0-.476.175-.973.39-1.106.59-.364.469-.977-.192-.977-.32 0-.802-.351-1.07-.78-.269-.43-.58-.782-.69-.782-.112 0-.423.351-.692.781zM13.64 6.21c-.46.622-1.345 1.233-1.965 1.357-1.25.25-1.421.88-.555 2.026.316.417.58 1.39.586 2.16l.013 1.402 2.93-.025 2.93-.026v-1.45c0-.799.174-1.56.388-1.692.214-.132.574-.587.801-1.01.36-.672.234-.847-.967-1.348-.759-.317-1.666-1.015-2.018-1.551-.818-1.248-1.12-1.226-2.143.157zm20.577-.157c-.351.536-1.259 1.234-2.018 1.55-1.2.502-1.326.677-.967 1.348.227.424.588.88.801 1.011.214.132.389.893.389 1.691v1.45l2.93.027 2.93.025.012-1.401c.007-.772.27-1.744.586-2.16.867-1.147.694-1.777-.555-2.027-.62-.124-1.505-.735-1.965-1.357-1.022-1.383-1.325-1.405-2.143-.157zM14.143 7.829c-.263.42-.759.765-1.102.765-.444 0-.541.197-.337.683.158.376.365 1.04.461 1.474.244 1.11 3.241 1.176 3.241.072 0-.395.182-1.058.405-1.474.316-.59.277-.755-.18-.755-.322 0-.905-.344-1.298-.765-.707-.76-.716-.76-1.19 0zm20.504 0c-.36.42-.926.765-1.258.765-.476 0-.518.16-.2.755.223.416.405 1.095.405 1.51 0 .618.263.746 1.462.709 1.303-.04 1.515-.193 1.947-1.412.6-1.688.605-1.562-.066-1.562-.31 0-.806-.344-1.1-.765-.532-.759-.54-.759-1.19 0zm-12.678 6.755c-6.134 2.224-7.741 10.253-2.962 14.79C20.55 30.838 22.671 31.64 25 31.64c8.28 0 11.97-10.322 5.578-15.596-2.336-1.926-5.736-2.503-8.61-1.461zm.098 1.379c-2.02.918-3.988 3.173-4.322 4.952-.371 1.976.004 4.668.825 5.92.652.997.727 1.02 1.123.345.233-.397.802-1.187 1.265-1.755.682-.838.802-1.376.636-2.848-.178-1.577-.073-1.946.802-2.82 1.403-1.404 3.805-1.404 5.208 0 .875.874.98 1.243.802 2.82-.166 1.472-.046 2.01.636 2.848.463.568 1.032 1.358 1.265 1.755.397.674.47.652 1.123-.344.82-1.253 1.196-3.945.826-5.921-.527-2.805-4.19-5.663-7.256-5.663-.752 0-2.072.32-2.933.71zM5.725 19.465c-.524.578-.644 1.56-.635 5.175.022 8.117.986 12.027 3.79 15.376l.962 1.15-.837.309c-.765.283-.826.55-.721 3.148l.115 2.838h12.89v-2.93c0-2.74-.056-2.938-.879-3.054-.83-.118-.879-.303-.875-3.32l.003-3.196-3.272-3.125-3.271-3.125-.233-3.516c-.198-2.988-.362-3.62-1.093-4.216-.473-.385-1.113-.604-1.42-.486-.32.123-.893-.205-1.332-.764-.907-1.153-2.285-1.267-3.192-.264zm35.358.264c-.439.559-1.011.887-1.33.764-.31-.118-.949.1-1.422.486-.73.596-.895 1.228-1.092 4.216l-.233 3.516-3.272 3.125-3.271 3.125.003 3.195c.003 3.018-.046 3.203-.876 3.32-.822.117-.879.315-.879 3.055v2.93h12.891l.115-2.838c.105-2.598.044-2.865-.722-3.148l-.836-.31.962-1.149c2.81-3.357 3.767-7.256 3.789-15.444.01-3.901-.087-4.619-.702-5.175-1.025-.927-2.235-.798-3.125.332zm-34.453.59c-.432.267-.457 1.503-.14 6.93.346 5.933.492 6.823 1.434 8.746.576 1.178 1.727 2.878 2.557 3.777l1.509 1.634h6.455l-.146-2.895c-.166-3.283-.206-3.347-4.35-6.93-2.248-1.944-2.77-2.232-3.418-1.885-.42.226-.77.623-.776.884-.006.261 1.444 1.823 3.223 3.472 2.63 2.438 3.106 3.046 2.55 3.264-.501.196-1.516-.483-3.809-2.55l-3.125-2.818-.002-2.595c-.004-4.538-.474-8.99-.969-9.18-.257-.098-.704-.033-.993.146zm16.784.408c-1.034 1.034-.846 2.226.512 3.236l1.074.8 1.074-.8c.591-.44 1.13-1.166 1.196-1.615.148-.99-1.195-2.426-2.27-2.426-.43 0-1.144.362-1.586.805zm18.84-.456c-.283.175-.543 2.391-.709 6.032l-.261 5.756-3.064 2.762c-2.246 2.024-3.247 2.69-3.748 2.495-.555-.218-.08-.827 2.55-3.264 1.779-1.649 3.229-3.211 3.223-3.472-.006-.26-.355-.658-.776-.884-.648-.347-1.177-.055-3.472 1.92-4.084 3.515-4.356 3.96-4.356 7.109v2.681h6.34l1.528-1.66c2.572-2.794 3.53-5.322 3.886-10.254.613-8.489.404-10.176-1.14-9.22zm-32.488 4.7c0 2.915.06 3.154.797 3.154.745 0 .79-.202.684-3.023-.095-2.515-.229-3.045-.798-3.154-.605-.115-.683.23-.683 3.023zm29.167-2.835c-.144.143-.261 1.549-.261 3.125 0 2.604.071 2.864.781 2.864.716 0 .781-.26.781-3.125 0-2.344-.13-3.125-.52-3.125-.287 0-.639.117-.781.26zM21.896 26.35c-.41.439-.858 1.256-.997 1.818-.227.915-.088 1.086 1.346 1.66.88.352 2.12.64 2.755.64.636 0 1.876-.288 2.756-.64 1.432-.573 1.573-.747 1.35-1.66-.46-1.884-1.521-2.551-4.11-2.585-1.894-.025-2.502.126-3.1.767zM9.766 44.53v1.953h10.156v-3.906H9.766v1.953zm20.312 0v1.953h10.156v-3.906H30.078v1.953z" fill="#fff"/></svg>