<svg width="367" height="289" viewBox="0 0 467 389" fill="none" xmlns="http://www.w3.org/2000/svg"><g opacity=".1" fill="#fff"><mask id="a"><path fill-rule="evenodd" clip-rule="evenodd" d="m64.533-240.19 5.885 16.17-1.915 1.315c-10.538 7.238-18.022 13.317-27.26 22.138l-6.872 6.563-2.752-1.453c-1.514-.799-8.15-4.488-14.747-8.198-6.598-3.709-12.192-6.673-12.432-6.586-.24.087-2.414 3.644-4.832 7.903-2.417 4.259-6.578 11.5-9.246 16.09a4480.548 4480.548 0 0 0-6.575 11.343c-12.515 21.747-17.855 31.036-20.915 36.387l-3.66 6.399 1.53.907c.842.498 7.264 4.121 14.272 8.051 7.007 3.929 13.062 7.363 13.454 7.631.507.346.412 1.527-.33 4.099-2.46 8.521-4.424 18.937-5.686 30.144-1.14 10.123-1.52 12.064-2.435 12.414-1.003.382-22.99 4.689-29.569 5.79-1.582.266-2.92.574-2.972.685-.053.112 1.611 9.444 3.699 20.737 2.087 11.293 4.141 22.533 4.564 24.976.423 2.443.87 4.719.995 5.058.18.49 7.913-2.211 37.845-13.22L32.2-38.68l-.275-2.122c-.66-5.084-1.299-17.21-1.163-22.094 1.028-36.986 15.648-71.808 41.418-98.645 23.297-24.262 54.725-40.07 88.184-44.355 54.861-7.028 109.342 17.188 140.202 62.316l3.955 5.783 37.65-13.561c25.948-9.346 37.592-13.72 37.463-14.074-.298-.82-25.35-44.842-25.577-44.947-.114-.051-1.337.572-2.719 1.386-5.698 3.355-25.363 14.222-26.458 14.62-.792.289-1.427.107-1.926-.549-1.454-1.912-12.587-12.317-17.647-16.493-5.286-4.362-11.313-8.874-15.863-11.876-1.424-.939-2.576-2.019-2.56-2.401.016-.382 1.228-3.911 2.694-7.843 7.877-21.129 8.812-24.035 7.861-24.43-2.803-1.162-83.638-29.459-84.173-29.465-.353-.005-3.266 7.18-6.474 15.966l-5.833 15.975-7.388-.536c-10.942-.793-22.86-.578-35.272.636l-2.313.226-5.885-16.17-5.885-16.169-42.784 15.572-42.783 15.572 5.885 16.169zm69.499 85.295c-36.212 17.235-59.616 52.739-60.69 92.07-.087 3.18-.029 6.579.13 7.553l.287 1.772 7.524-2.892 7.523-2.892.051-3.352c.208-13.612 5.033-30.47 12.037-42.053 11.544-19.093 26.839-31.811 47.141-39.201 28.639-10.424 58.861-6.237 83.766 11.603 4.026 2.884 12.791 10.892 14.99 13.695l1.271 1.621 7.672-2.792c4.22-1.536 7.649-2.847 7.621-2.913-.257-.607-4.749-6.036-7.352-8.887-15.021-16.448-37.476-28.441-59.917-32.001-8.858-1.404-16.718-1.663-27.371-.9-9.016.646-25.477 5.187-34.683 9.569zM-22.8 44.602c.422 1.157 25.361 45.114 25.68 45.26.164.076 6.75-3.491 14.636-7.926 7.885-4.435 14.717-8.124 15.182-8.197.48-.076 2.605 1.62 4.929 3.935 8.838 8.806 17.463 15.975 27.652 22.983l5.01 3.445-1.143 3.275c-.63 1.802-2.855 7.99-4.947 13.753-4.905 13.517-5.38 15.057-4.792 15.516.832.649 83.869 29.788 84.528 29.664.539-.103 3.901-8.989 10.177-26.905l1.732-4.943 6.84.463c11.523.78 24.308.589 35.79-.535l2.312-.227 5.886 16.17 5.885 16.169 42.783-15.572 42.784-15.572-5.885-16.169-5.886-16.17 1.691-1.158c.931-.638 2.959-2.016 4.507-3.063 5.352-3.618 15.722-12.263 22.162-18.474 3.555-3.43 6.874-6.5 7.375-6.827.668-.434 1.586-.18 3.446.956 1.395.852 7.78 4.464 14.19 8.027 6.409 3.563 11.878 6.64 12.154 6.837.517.371 1.34-.943 9.209-14.699 2.556-4.47 9.547-16.61 15.534-26.977 22.815-39.505 21.168-36.402 19.774-37.277-.675-.424-6.818-3.94-13.65-7.815-6.833-3.874-12.998-7.388-13.699-7.81-1.252-.75-1.25-.86.132-5.897 2.914-10.62 5.267-24.262 6.02-34.892l.386-5.445 16.891-3.193c9.289-1.756 16.948-3.316 17.02-3.466.142-.3-9.033-50.052-9.434-51.153-.21-.578-6.002 1.433-37.837 13.14l-37.588 13.824.499 4.263c3.276 28.024-1.588 55.487-14.472 81.71-23.797 48.431-72.518 79.949-127.237 82.309-48.431 2.09-96.288-20.846-124.43-59.635-2.374-3.27-4.834-6.758-5.468-7.75l-1.153-1.802-37.711 13.584C-17.276 41.84-23.01 44.023-22.8 44.602zM94.663 2.944c1.259 2.114 7.726 9.343 11.504 12.86 10.44 9.717 24.066 17.78 38.403 22.725 31.425 10.839 68.939 4.848 96.159-15.355 23.433-17.393 38.549-43.07 42.126-71.559.589-4.7 1.025-17.919.627-19.015-.043-.117-3.531 1.043-7.75 2.58l-7.673 2.792.068 2.058c.118 3.56-1.449 15.329-2.679 20.126-3.647 14.22-9.255 25.103-18.923 36.725-14.356 17.256-37.289 29.088-60.558 31.244-23.451 2.173-48.178-5.597-65.685-20.64-3.665-3.15-8.818-8.277-10.857-10.803-.542-.672-1.409-.46-8.14 1.99l-7.533 2.742.911 1.53z"/></mask><path fill-rule="evenodd" clip-rule="evenodd" d="m64.533-240.19 5.885 16.17-1.915 1.315c-10.538 7.238-18.022 13.317-27.26 22.138l-6.872 6.563-2.752-1.453c-1.514-.799-8.15-4.488-14.747-8.198-6.598-3.709-12.192-6.673-12.432-6.586-.24.087-2.414 3.644-4.832 7.903-2.417 4.259-6.578 11.5-9.246 16.09a4480.548 4480.548 0 0 0-6.575 11.343c-12.515 21.747-17.855 31.036-20.915 36.387l-3.66 6.399 1.53.907c.842.498 7.264 4.121 14.272 8.051 7.007 3.929 13.062 7.363 13.454 7.631.507.346.412 1.527-.33 4.099-2.46 8.521-4.424 18.937-5.686 30.144-1.14 10.123-1.52 12.064-2.435 12.414-1.003.382-22.99 4.689-29.569 5.79-1.582.266-2.92.574-2.972.685-.053.112 1.611 9.444 3.699 20.737 2.087 11.293 4.141 22.533 4.564 24.976.423 2.443.87 4.719.995 5.058.18.49 7.913-2.211 37.845-13.22L32.2-38.68l-.275-2.122c-.66-5.084-1.299-17.21-1.163-22.094 1.028-36.986 15.648-71.808 41.418-98.645 23.297-24.262 54.725-40.07 88.184-44.355 54.861-7.028 109.342 17.188 140.202 62.316l3.955 5.783 37.65-13.561c25.948-9.346 37.592-13.72 37.463-14.074-.298-.82-25.35-44.842-25.577-44.947-.114-.051-1.337.572-2.719 1.386-5.698 3.355-25.363 14.222-26.458 14.62-.792.289-1.427.107-1.926-.549-1.454-1.912-12.587-12.317-17.647-16.493-5.286-4.362-11.313-8.874-15.863-11.876-1.424-.939-2.576-2.019-2.56-2.401.016-.382 1.228-3.911 2.694-7.843 7.877-21.129 8.812-24.035 7.861-24.43-2.803-1.162-83.638-29.459-84.173-29.465-.353-.005-3.266 7.18-6.474 15.966l-5.833 15.975-7.388-.536c-10.942-.793-22.86-.578-35.272.636l-2.313.226-5.885-16.17-5.885-16.169-42.784 15.572-42.783 15.572 5.885 16.169zm69.499 85.295c-36.212 17.235-59.616 52.739-60.69 92.07-.087 3.18-.029 6.579.13 7.553l.287 1.772 7.524-2.892 7.523-2.892.051-3.352c.208-13.612 5.033-30.47 12.037-42.053 11.544-19.093 26.839-31.811 47.141-39.201 28.639-10.424 58.861-6.237 83.766 11.603 4.026 2.884 12.791 10.892 14.99 13.695l1.271 1.621 7.672-2.792c4.22-1.536 7.649-2.847 7.621-2.913-.257-.607-4.749-6.036-7.352-8.887-15.021-16.448-37.476-28.441-59.917-32.001-8.858-1.404-16.718-1.663-27.371-.9-9.016.646-25.477 5.187-34.683 9.569zM-22.8 44.602c.422 1.157 25.361 45.114 25.68 45.26.164.076 6.75-3.491 14.636-7.926 7.885-4.435 14.717-8.124 15.182-8.197.48-.076 2.605 1.62 4.929 3.935 8.838 8.806 17.463 15.975 27.652 22.983l5.01 3.445-1.143 3.275c-.63 1.802-2.855 7.99-4.947 13.753-4.905 13.517-5.38 15.057-4.792 15.516.832.649 83.869 29.788 84.528 29.664.539-.103 3.901-8.989 10.177-26.905l1.732-4.943 6.84.463c11.523.78 24.308.589 35.79-.535l2.312-.227 5.886 16.17 5.885 16.169 42.783-15.572 42.784-15.572-5.885-16.169-5.886-16.17 1.691-1.158c.931-.638 2.959-2.016 4.507-3.063 5.352-3.618 15.722-12.263 22.162-18.474 3.555-3.43 6.874-6.5 7.375-6.827.668-.434 1.586-.18 3.446.956 1.395.852 7.78 4.464 14.19 8.027 6.409 3.563 11.878 6.64 12.154 6.837.517.371 1.34-.943 9.209-14.699 2.556-4.47 9.547-16.61 15.534-26.977 22.815-39.505 21.168-36.402 19.774-37.277-.675-.424-6.818-3.94-13.65-7.815-6.833-3.874-12.998-7.388-13.699-7.81-1.252-.75-1.25-.86.132-5.897 2.914-10.62 5.267-24.262 6.02-34.892l.386-5.445 16.891-3.193c9.289-1.756 16.948-3.316 17.02-3.466.142-.3-9.033-50.052-9.434-51.153-.21-.578-6.002 1.433-37.837 13.14l-37.588 13.824.499 4.263c3.276 28.024-1.588 55.487-14.472 81.71-23.797 48.431-72.518 79.949-127.237 82.309-48.431 2.09-96.288-20.846-124.43-59.635-2.374-3.27-4.834-6.758-5.468-7.75l-1.153-1.802-37.711 13.584C-17.276 41.84-23.01 44.023-22.8 44.602zM94.663 2.944c1.259 2.114 7.726 9.343 11.504 12.86 10.44 9.717 24.066 17.78 38.403 22.725 31.425 10.839 68.939 4.848 96.159-15.355 23.433-17.393 38.549-43.07 42.126-71.559.589-4.7 1.025-17.919.627-19.015-.043-.117-3.531 1.043-7.75 2.58l-7.673 2.792.068 2.058c.118 3.56-1.449 15.329-2.679 20.126-3.647 14.22-9.255 25.103-18.923 36.725-14.356 17.256-37.289 29.088-60.558 31.244-23.451 2.173-48.178-5.597-65.685-20.64-3.665-3.15-8.818-8.277-10.857-10.803-.542-.672-1.409-.46-8.14 1.99l-7.533 2.742.911 1.53z" fill-opacity=".3" stroke="#112749" stroke-width="2" mask="url(#a)"/></g><g opacity=".1"><mask id="b" fill="#fff"><path fill-rule="evenodd" clip-rule="evenodd" d="m123.963 128.85 3.269 8.983-1.064.731c-5.854 4.021-10.012 7.398-15.144 12.299l-3.818 3.646-1.529-.807c-.841-.444-4.527-2.494-8.193-4.554-3.665-2.061-6.773-3.708-6.906-3.659-.133.048-1.341 2.024-2.685 4.39a1231.744 1231.744 0 0 1-5.136 8.939 2460.42 2460.42 0 0 0-3.653 6.302 10614.924 10614.924 0 0 0-11.62 20.215l-2.033 3.555.85.503c.468.277 4.036 2.29 7.929 4.473 3.893 2.183 7.257 4.091 7.474 4.24.282.192.23.848-.183 2.277-1.367 4.734-2.458 10.52-3.159 16.746-.633 5.624-.845 6.703-1.353 6.897-.556.213-12.772 2.605-16.427 3.217-.879.148-1.622.319-1.651.381-.03.062.895 5.246 2.055 11.52 1.16 6.274 2.3 12.518 2.536 13.876.235 1.357.483 2.621.552 2.809.1.273 4.396-1.228 21.026-7.343l20.899-7.686-.153-1.179c-.366-2.825-.721-9.562-.645-12.275.571-20.548 8.693-39.893 23.009-54.802 12.943-13.479 30.403-22.261 48.991-24.642 30.479-3.904 60.746 9.549 77.891 34.62l2.197 3.213 20.916-7.534c14.416-5.192 20.885-7.623 20.813-7.819-.165-.456-14.083-24.912-14.209-24.971-.063-.028-.743.318-1.511.77-3.165 1.864-14.09 7.901-14.698 8.123-.44.16-.793.059-1.07-.305-.809-1.063-6.993-6.844-9.804-9.163-2.937-2.423-6.286-4.93-8.813-6.598-.792-.522-1.431-1.122-1.423-1.334.009-.212.683-2.173 1.497-4.357 4.377-11.739 4.896-13.353 4.367-13.572-1.557-.646-46.465-16.366-46.762-16.37-.196-.003-1.815 3.989-3.597 8.87l-3.24 8.875-4.105-.298c-6.079-.44-12.7-.321-19.596.354l-1.284.125-3.27-8.983-3.27-8.983-23.768 8.651-23.769 8.651 3.27 8.983zm38.61 47.386c-20.118 9.575-33.12 29.3-33.717 51.15-.048 1.767-.015 3.655.073 4.196l.159.985 4.18-1.607 4.18-1.607.028-1.862c.116-7.562 2.796-16.928 6.687-23.362 6.414-10.608 14.911-17.673 26.19-21.779 15.911-5.791 32.7-3.465 46.537 6.446 2.236 1.603 7.106 6.052 8.327 7.609l.706.9 4.263-1.551c2.344-.853 4.249-1.581 4.234-1.618-.143-.337-2.639-3.354-4.085-4.937-8.345-9.138-20.82-15.801-33.287-17.779-4.921-.78-9.288-.924-15.206-.5-5.009.359-14.154 2.882-19.269 5.316zM75.445 287.068c.234.643 14.089 25.063 14.266 25.144.091.042 3.75-1.939 8.131-4.403 4.381-2.464 8.176-4.513 8.435-4.554.267-.042 1.447.9 2.738 2.187 4.91 4.892 9.702 8.874 15.362 12.767l2.783 1.914-.635 1.82c-.349 1.001-1.586 4.439-2.748 7.641-2.725 7.509-2.989 8.364-2.662 8.62.462.36 46.594 16.549 46.96 16.479.299-.057 2.167-4.994 5.654-14.947l.962-2.746 3.8.257c6.402.434 13.504.328 19.884-.297l1.284-.126 3.27 8.983 3.269 8.983 23.769-8.651 23.769-8.651-3.27-8.983-3.27-8.983.94-.644c.517-.354 1.643-1.119 2.504-1.701 2.973-2.01 8.734-6.813 12.312-10.264 1.975-1.905 3.818-3.611 4.097-3.792.371-.241.881-.1 1.915.531.774.473 4.322 2.48 7.882 4.459 3.561 1.98 6.6 3.689 6.753 3.799.287.206.744-.524 5.116-8.166 1.42-2.484 5.304-9.228 8.63-14.988 12.675-21.947 11.76-20.223 10.986-20.709-.375-.236-3.788-2.189-7.584-4.342-3.796-2.152-7.221-4.104-7.61-4.338-.696-.417-.695-.479.073-3.277 1.619-5.9 2.926-13.479 3.345-19.385l.214-3.024 9.384-1.774c5.16-.976 9.415-1.842 9.455-1.926.079-.166-5.018-27.806-5.241-28.418-.117-.321-3.334.796-21.02 7.3l-20.883 7.68.277 2.368c1.821 15.569-.882 30.826-8.04 45.394-13.22 26.907-40.287 44.417-70.686 45.728-26.907 1.161-53.494-11.581-69.129-33.131-1.318-1.817-2.685-3.754-3.037-4.305l-.641-1.001-20.95 7.546c-17.744 6.392-20.93 7.604-20.813 7.926zm65.257-23.143c.699 1.174 4.292 5.19 6.391 7.144 5.8 5.398 13.37 9.878 21.335 12.625 17.458 6.021 38.299 2.694 53.421-8.53 13.019-9.663 21.416-23.928 23.404-39.755.327-2.612.569-9.956.348-10.564-.024-.065-1.961.579-4.306 1.432l-4.262 1.552.038 1.144c.065 1.978-.805 8.516-1.489 11.181-2.026 7.9-5.141 13.945-10.513 20.402-7.975 9.587-20.716 16.16-33.643 17.358-13.028 1.207-26.766-3.109-36.491-11.467-2.037-1.749-4.9-4.598-6.032-6.001-.301-.373-.783-.256-4.522 1.106l-4.186 1.523.507.85z"/></mask><path clip-rule="evenodd" d="m123.963 128.85 3.269 8.983-1.064.731c-5.854 4.021-10.012 7.398-15.144 12.299l-3.818 3.646-1.529-.807c-.841-.444-4.527-2.494-8.193-4.554-3.665-2.061-6.773-3.708-6.906-3.659-.133.048-1.341 2.024-2.685 4.39a1231.744 1231.744 0 0 1-5.136 8.939 2460.42 2460.42 0 0 0-3.653 6.302 10614.924 10614.924 0 0 0-11.62 20.215l-2.033 3.555.85.503c.468.277 4.036 2.29 7.929 4.473 3.893 2.183 7.257 4.091 7.474 4.24.282.192.23.848-.183 2.277-1.367 4.734-2.458 10.52-3.159 16.746-.633 5.624-.845 6.703-1.353 6.897-.556.213-12.772 2.605-16.427 3.217-.879.148-1.622.319-1.651.381-.03.062.895 5.246 2.055 11.52 1.16 6.274 2.3 12.518 2.536 13.876.235 1.357.483 2.621.552 2.809.1.273 4.396-1.228 21.026-7.343l20.899-7.686-.153-1.179c-.366-2.825-.721-9.562-.645-12.275.571-20.548 8.693-39.893 23.009-54.802 12.943-13.479 30.403-22.261 48.991-24.642 30.479-3.904 60.746 9.549 77.891 34.62l2.197 3.213 20.916-7.534c14.416-5.192 20.885-7.623 20.813-7.819-.165-.456-14.083-24.912-14.209-24.971-.063-.028-.743.318-1.511.77-3.165 1.864-14.09 7.901-14.698 8.123-.44.16-.793.059-1.07-.305-.809-1.063-6.993-6.844-9.804-9.163-2.937-2.423-6.286-4.93-8.813-6.598-.792-.522-1.431-1.122-1.423-1.334.009-.212.683-2.173 1.497-4.357 4.377-11.739 4.896-13.353 4.367-13.572-1.557-.646-46.465-16.366-46.762-16.37-.196-.003-1.815 3.989-3.597 8.87l-3.24 8.875-4.105-.298c-6.079-.44-12.7-.321-19.596.354l-1.284.125-3.27-8.983-3.27-8.983-23.768 8.651-23.769 8.651 3.27 8.983zm38.61 47.386c-20.118 9.575-33.12 29.3-33.717 51.15-.048 1.767-.015 3.655.073 4.196l.159.985 4.18-1.607 4.18-1.607.028-1.862c.116-7.562 2.796-16.928 6.687-23.362 6.414-10.608 14.911-17.673 26.19-21.779 15.911-5.791 32.7-3.465 46.537 6.446 2.236 1.603 7.106 6.052 8.327 7.609l.706.9 4.263-1.551c2.344-.853 4.249-1.581 4.234-1.618-.143-.337-2.639-3.354-4.085-4.937-8.345-9.138-20.82-15.801-33.287-17.779-4.921-.78-9.288-.924-15.206-.5-5.009.359-14.154 2.882-19.269 5.316zM75.445 287.068c.234.643 14.089 25.063 14.266 25.144.091.042 3.75-1.939 8.131-4.403 4.381-2.464 8.176-4.513 8.435-4.554.267-.042 1.447.9 2.738 2.187 4.91 4.892 9.702 8.874 15.362 12.767l2.783 1.914-.635 1.82c-.349 1.001-1.586 4.439-2.748 7.641-2.725 7.509-2.989 8.364-2.662 8.62.462.36 46.594 16.549 46.96 16.479.299-.057 2.167-4.994 5.654-14.947l.962-2.746 3.8.257c6.402.434 13.504.328 19.884-.297l1.284-.126 3.27 8.983 3.269 8.983 23.769-8.651 23.769-8.651-3.27-8.983-3.27-8.983.94-.644c.517-.354 1.643-1.119 2.504-1.701 2.973-2.01 8.734-6.813 12.312-10.264 1.975-1.905 3.818-3.611 4.097-3.792.371-.241.881-.1 1.915.531.774.473 4.322 2.48 7.882 4.459 3.561 1.98 6.6 3.689 6.753 3.799.287.206.744-.524 5.116-8.166 1.42-2.484 5.304-9.228 8.63-14.988 12.675-21.947 11.76-20.223 10.986-20.709-.375-.236-3.788-2.189-7.584-4.342-3.796-2.152-7.221-4.104-7.61-4.338-.696-.417-.695-.479.073-3.277 1.619-5.9 2.926-13.479 3.345-19.385l.214-3.024 9.384-1.774c5.16-.976 9.415-1.842 9.455-1.926.079-.166-5.018-27.806-5.241-28.418-.117-.321-3.334.796-21.02 7.3l-20.883 7.68.277 2.368c1.821 15.569-.882 30.826-8.04 45.394-13.22 26.907-40.287 44.417-70.686 45.728-26.907 1.161-53.494-11.581-69.129-33.131-1.318-1.817-2.685-3.754-3.037-4.305l-.641-1.001-20.95 7.546c-17.744 6.392-20.93 7.604-20.813 7.926zm65.257-23.143c.699 1.174 4.292 5.19 6.391 7.144 5.8 5.398 13.37 9.878 21.335 12.625 17.458 6.021 38.299 2.694 53.421-8.53 13.019-9.663 21.416-23.928 23.404-39.755.327-2.612.569-9.956.348-10.564-.024-.065-1.961.579-4.306 1.432l-4.262 1.552.038 1.144c.065 1.978-.805 8.516-1.489 11.181-2.026 7.9-5.141 13.945-10.513 20.402-7.975 9.587-20.716 16.16-33.643 17.358-13.028 1.207-26.766-3.109-36.491-11.467-2.037-1.749-4.9-4.598-6.032-6.001-.301-.373-.783-.256-4.522 1.106l-4.186 1.523.507.85z" stroke="#fff" stroke-width="4" mask="url(#b)"/></g></svg>