<svg width="207" height="519" viewBox="0 0 307 619" fill="none" xmlns="http://www.w3.org/2000/svg"><path opacity=".1" fill-rule="evenodd" clip-rule="evenodd" d="m402.237 629.206-5.886-16.17 1.916-1.316c10.537-7.238 18.021-13.316 27.259-22.138l6.872-6.562 2.752 1.453c1.514.799 8.15 4.488 14.748 8.197 6.598 3.71 12.192 6.674 12.432 6.587.239-.088 2.413-3.644 4.831-7.903 2.418-4.26 6.579-11.5 9.246-16.09a4331.72 4331.72 0 0 0 6.576-11.344c12.515-21.747 17.854-31.035 20.914-36.386l3.661-6.4-1.531-.906c-.841-.499-7.263-4.122-14.271-8.051-7.008-3.929-13.062-7.363-13.454-7.631-.508-.346-.413-1.527.33-4.099 2.459-8.521 4.424-18.937 5.686-30.144 1.14-10.123 1.52-12.064 2.435-12.414 1.002-.382 22.99-4.689 29.569-5.791 1.581-.265 2.919-.573 2.972-.685.053-.111-1.612-9.443-3.699-20.736-2.088-11.294-4.142-22.533-4.564-24.976-.424-2.443-.871-4.719-.995-5.058-.18-.49-7.913 2.211-37.846 13.219l-37.619 13.835.275 2.122c.66 5.084 1.298 17.21 1.163 22.093-1.029 36.987-15.649 71.809-41.418 98.645-23.298 24.262-54.725 40.07-88.184 44.356-54.861 7.027-109.343-17.188-140.203-62.317l-3.954-5.783-37.65 13.562c-25.948 9.346-37.592 13.72-37.463 14.073.298.821 25.35 44.843 25.577 44.947.113.052 1.337-.572 2.719-1.385 5.698-3.355 25.362-14.222 26.457-14.621.792-.288 1.427-.107 1.926.549 1.455 1.913 12.587 12.318 17.647 16.494 5.286 4.361 11.314 8.873 15.864 11.875 1.424.939 2.576 2.02 2.56 2.402-.016.381-1.229 3.911-2.695 7.843-7.877 21.129-8.812 24.035-7.86 24.429 2.803 1.162 83.637 29.459 84.173 29.466.352.004 3.266-7.18 6.474-15.966l5.832-15.975 7.389.536c10.941.793 22.859.578 35.272-.636l2.312-.226 5.886 16.17 5.885 16.169 42.783-15.572 42.784-15.572-5.885-16.169zm-69.499-85.295c36.212-17.235 59.616-52.74 60.69-92.07.087-3.18.028-6.579-.13-7.554l-.287-1.771-7.524 2.892-7.524 2.892-.051 3.352c-.208 13.611-5.033 30.47-12.036 42.052-11.545 19.094-26.839 31.812-47.141 39.201-28.64 10.424-58.861 6.238-83.767-11.603-4.026-2.884-12.791-10.892-14.989-13.695l-1.271-1.621-7.673 2.793c-4.219 1.536-7.649 2.846-7.621 2.913.258.606 4.75 6.035 7.353 8.886 15.021 16.448 37.475 28.441 59.917 32.001 8.858 1.405 16.717 1.664 27.37.901 9.016-.646 25.478-5.188 34.684-9.569zm156.831-199.497c-.421-1.158-25.361-45.115-25.679-45.26-.165-.076-6.751 3.491-14.636 7.926-7.885 4.435-14.718 8.124-15.182 8.197-.481.076-2.605-1.621-4.929-3.936-8.839-8.806-17.464-15.974-27.653-22.982l-5.009-3.445 1.143-3.276c.629-1.801 2.855-7.99 4.946-13.753 4.906-13.516 5.381-15.056 4.792-15.516-.832-.648-83.869-29.788-84.528-29.663-.539.102-3.9 8.989-10.177 26.904l-1.732 4.944-6.839-.463c-11.524-.781-24.308-.59-35.791.535l-2.312.226-5.885-16.169-5.885-16.17-42.784 15.572-42.783 15.572 5.885 16.169 5.885 16.17-1.691 1.159c-.93.638-2.958 2.016-4.507 3.063-5.352 3.618-15.721 12.263-22.162 18.474-3.554 3.429-6.873 6.501-7.374 6.826-.669.435-1.587.18-3.447-.956-1.394-.852-7.78-4.464-14.189-8.027-6.41-3.562-11.879-6.639-12.154-6.836-.518-.371-1.34.942-9.209 14.698-2.557 4.47-9.548 16.61-15.535 26.978-22.814 39.504-21.168 36.401-19.774 37.276.675.424 6.818 3.941 13.65 7.815 6.834 3.874 12.998 7.388 13.7 7.81 1.252.751 1.25.862-.133 5.898-2.913 10.621-5.267 24.262-6.02 34.892l-.386 5.444-16.89 3.193c-9.29 1.757-16.948 3.316-17.02 3.466-.142.3 9.033 50.053 9.433 51.154.21.578 6.002-1.434 37.837-13.141l37.589-13.824-.499-4.262c-3.276-28.024 1.588-55.487 14.472-81.71 23.797-48.432 72.517-79.949 127.236-82.309 48.432-2.09 96.288 20.846 124.431 59.635 2.373 3.27 4.834 6.758 5.468 7.749l1.153 1.803 37.711-13.584c31.939-11.504 37.674-13.688 37.463-14.266zm-117.463 41.657c-1.258-2.113-7.725-9.342-11.504-12.859-10.44-9.717-24.066-17.781-38.402-22.725-31.426-10.839-68.94-4.849-96.159 15.354-23.434 17.394-38.549 43.07-42.126 71.56-.59 4.7-1.026 17.919-.627 19.015.043.117 3.53-1.044 7.75-2.579l7.673-2.793-.069-2.059c-.117-3.56 1.449-15.328 2.68-20.126 3.647-14.22 9.254-25.102 18.923-36.724 14.356-17.256 37.288-29.088 60.558-31.245 23.451-2.173 48.178 5.597 65.684 20.641 3.666 3.149 8.819 8.277 10.857 10.803.542.671 1.409.459 8.14-1.991l7.534-2.742-.912-1.53z" fill="#fff" fill-opacity=".2"/><g opacity=".1"><mask id="a" fill="#fff"><path fill-rule="evenodd" clip-rule="evenodd" d="m342.807 260.165-3.27-8.983 1.064-.731c5.855-4.021 10.012-7.398 15.145-12.299l3.817-3.645 1.529.807c.841.444 4.528 2.493 8.193 4.554 3.666 2.061 6.774 3.708 6.907 3.659.133-.048 1.341-2.024 2.684-4.39 1.343-2.367 3.655-6.389 5.137-8.939 1.482-2.55 3.126-5.386 3.653-6.302 6.953-12.082 9.919-17.242 11.619-20.215l2.033-3.555-.85-.504c-.467-.277-4.035-2.289-7.928-4.472-3.893-2.183-7.257-4.091-7.475-4.24-.282-.192-.229-.848.184-2.277 1.366-4.734 2.457-10.521 3.158-16.747.634-5.624.845-6.702 1.353-6.896.557-.213 12.772-2.606 16.427-3.218.879-.147 1.622-.318 1.652-.38.029-.062-.896-5.246-2.055-11.52a2376.69 2376.69 0 0 1-2.536-13.876c-.235-1.357-.484-2.622-.553-2.81-.099-.272-4.396 1.229-21.025 7.344l-20.9 7.686.153 1.179c.367 2.824.721 9.561.646 12.274-.571 20.548-8.694 39.894-23.01 54.803-12.943 13.479-30.403 22.261-48.991 24.642-30.478 3.904-60.746-9.549-77.89-34.62l-2.197-3.213-20.917 7.534c-14.415 5.192-20.884 7.622-20.813 7.819.166.455 14.084 24.912 14.21 24.97.063.029.742-.318 1.51-.77 3.166-1.864 14.091-7.901 14.699-8.122.44-.16.793-.06 1.07.305.808 1.063 6.993 6.843 9.804 9.163 2.936 2.423 6.285 4.93 8.813 6.598.791.521 1.431 1.122 1.422 1.334-.009.212-.682 2.172-1.497 4.357-4.376 11.738-4.895 13.353-4.367 13.572 1.558.645 46.465 16.366 46.763 16.37.196.002 1.814-3.989 3.597-8.87l3.24-8.875 4.105.297c6.078.441 12.699.321 19.595-.353l1.285-.126 3.27 8.984 3.269 8.983 23.769-8.652 23.768-8.651-3.269-8.983zm-38.611-47.385c20.118-9.575 33.12-29.3 33.717-51.15.048-1.767.016-3.655-.072-4.197l-.16-.984-4.18 1.607-4.179 1.606-.029 1.862c-.115 7.562-2.796 16.928-6.687 23.363-6.413 10.607-14.91 17.673-26.189 21.778-15.911 5.791-32.701 3.466-46.537-6.446-2.237-1.602-7.106-6.051-8.327-7.608l-.707-.901-4.262 1.552c-2.344.853-4.25 1.581-4.234 1.618.143.337 2.639 3.353 4.085 4.937 8.345 9.138 20.819 15.8 33.287 17.778 4.921.781 9.287.924 15.206.501 5.009-.359 14.154-2.882 19.268-5.316zm87.129-110.832c-.234-.643-14.089-25.064-14.266-25.145-.092-.042-3.751 1.94-8.132 4.404-4.38 2.464-8.176 4.513-8.434 4.554-.267.042-1.447-.9-2.738-2.187-4.911-4.892-9.702-8.875-15.363-12.768l-2.783-1.914.635-1.82c.35-1 1.586-4.439 2.748-7.64 2.726-7.51 2.99-8.365 2.662-8.62-.462-.36-46.593-16.55-46.96-16.48-.299.057-2.167 4.994-5.654 14.947l-.962 2.747-3.799-.258c-6.402-.433-13.505-.327-19.884.298l-1.285.125-3.269-8.983-3.27-8.983-23.768 8.651-23.769 8.651 3.27 8.983 3.269 8.984-.939.643c-.517.355-1.644 1.12-2.504 1.702-2.973 2.01-8.734 6.813-12.312 10.263-1.975 1.905-3.819 3.612-4.097 3.793-.372.241-.882.1-1.915-.531-.775-.474-4.322-2.48-7.883-4.46s-6.599-3.688-6.752-3.798c-.288-.206-.745.524-5.116 8.166a5801.178 5801.178 0 0 1-8.631 14.987c-12.674 21.947-11.76 20.224-10.985 20.71.375.235 3.788 2.189 7.583 4.341 3.796 2.153 7.221 4.105 7.611 4.339.695.417.694.479-.074 3.276-1.618 5.901-2.926 13.48-3.344 19.385l-.215 3.025-9.383 1.774c-5.161.975-9.416 1.842-9.456 1.925-.078.167 5.019 27.807 5.241 28.419.117.321 3.335-.797 21.021-7.301l20.882-7.679-.277-2.369c-1.82-15.568.882-30.826 8.04-45.394 13.221-26.906 40.287-44.416 70.687-45.727 26.906-1.161 53.493 11.581 69.128 33.13 1.319 1.817 2.685 3.755 3.038 4.305l.64 1.002 20.951-7.547c17.744-6.391 20.93-7.604 20.813-7.925zm-65.257 23.143c-.7-1.174-4.292-5.19-6.391-7.144-5.8-5.399-13.37-9.878-21.335-12.625-17.459-6.022-38.3-2.694-53.422 8.53-13.018 9.663-21.416 23.928-23.403 39.755-.328 2.611-.57 9.955-.348 10.564.023.065 1.961-.58 4.305-1.433l4.263-1.551-.038-1.144c-.066-1.978.805-8.516 1.488-11.181 2.027-7.9 5.142-13.946 10.513-20.403 7.976-9.586 20.716-16.16 33.644-17.358 13.028-1.207 26.765 3.11 36.491 11.467 2.036 1.75 4.899 4.599 6.032 6.002.301.373.782.255 4.522-1.106l4.185-1.523-.506-.85z"/></mask><path clip-rule="evenodd" d="m342.807 260.165-3.27-8.983 1.064-.731c5.855-4.021 10.012-7.398 15.145-12.299l3.817-3.645 1.529.807c.841.444 4.528 2.493 8.193 4.554 3.666 2.061 6.774 3.708 6.907 3.659.133-.048 1.341-2.024 2.684-4.39 1.343-2.367 3.655-6.389 5.137-8.939 1.482-2.55 3.126-5.386 3.653-6.302 6.953-12.082 9.919-17.242 11.619-20.215l2.033-3.555-.85-.504c-.467-.277-4.035-2.289-7.928-4.472-3.893-2.183-7.257-4.091-7.475-4.24-.282-.192-.229-.848.184-2.277 1.366-4.734 2.457-10.521 3.158-16.747.634-5.624.845-6.702 1.353-6.896.557-.213 12.772-2.606 16.427-3.218.879-.147 1.622-.318 1.652-.38.029-.062-.896-5.246-2.055-11.52a2376.69 2376.69 0 0 1-2.536-13.876c-.235-1.357-.484-2.622-.553-2.81-.099-.272-4.396 1.229-21.025 7.344l-20.9 7.686.153 1.179c.367 2.824.721 9.561.646 12.274-.571 20.548-8.694 39.894-23.01 54.803-12.943 13.479-30.403 22.261-48.991 24.642-30.478 3.904-60.746-9.549-77.89-34.62l-2.197-3.213-20.917 7.534c-14.415 5.192-20.884 7.622-20.813 7.819.166.455 14.084 24.912 14.21 24.97.063.029.742-.318 1.51-.77 3.166-1.864 14.091-7.901 14.699-8.122.44-.16.793-.06 1.07.305.808 1.063 6.993 6.843 9.804 9.163 2.936 2.423 6.285 4.93 8.813 6.598.791.521 1.431 1.122 1.422 1.334-.009.212-.682 2.172-1.497 4.357-4.376 11.738-4.895 13.353-4.367 13.572 1.558.645 46.465 16.366 46.763 16.37.196.002 1.814-3.989 3.597-8.87l3.24-8.875 4.105.297c6.078.441 12.699.321 19.595-.353l1.285-.126 3.27 8.984 3.269 8.983 23.769-8.652 23.768-8.651-3.269-8.983zm-38.611-47.385c20.118-9.575 33.12-29.3 33.717-51.15.048-1.767.016-3.655-.072-4.197l-.16-.984-4.18 1.607-4.179 1.606-.029 1.862c-.115 7.562-2.796 16.928-6.687 23.363-6.413 10.607-14.91 17.673-26.189 21.778-15.911 5.791-32.701 3.466-46.537-6.446-2.237-1.602-7.106-6.051-8.327-7.608l-.707-.901-4.262 1.552c-2.344.853-4.25 1.581-4.234 1.618.143.337 2.639 3.353 4.085 4.937 8.345 9.138 20.819 15.8 33.287 17.778 4.921.781 9.287.924 15.206.501 5.009-.359 14.154-2.882 19.268-5.316zm87.129-110.832c-.234-.643-14.089-25.064-14.266-25.145-.092-.042-3.751 1.94-8.132 4.404-4.38 2.464-8.176 4.513-8.434 4.554-.267.042-1.447-.9-2.738-2.187-4.911-4.892-9.702-8.875-15.363-12.768l-2.783-1.914.635-1.82c.35-1 1.586-4.439 2.748-7.64 2.726-7.51 2.99-8.365 2.662-8.62-.462-.36-46.593-16.55-46.96-16.48-.299.057-2.167 4.994-5.654 14.947l-.962 2.747-3.799-.258c-6.402-.433-13.505-.327-19.884.298l-1.285.125-3.269-8.983-3.27-8.983-23.768 8.651-23.769 8.651 3.27 8.983 3.269 8.984-.939.643c-.517.355-1.644 1.12-2.504 1.702-2.973 2.01-8.734 6.813-12.312 10.263-1.975 1.905-3.819 3.612-4.097 3.793-.372.241-.882.1-1.915-.531-.775-.474-4.322-2.48-7.883-4.46s-6.599-3.688-6.752-3.798c-.288-.206-.745.524-5.116 8.166a5801.178 5801.178 0 0 1-8.631 14.987c-12.674 21.947-11.76 20.224-10.985 20.71.375.235 3.788 2.189 7.583 4.341 3.796 2.153 7.221 4.105 7.611 4.339.695.417.694.479-.074 3.276-1.618 5.901-2.926 13.48-3.344 19.385l-.215 3.025-9.383 1.774c-5.161.975-9.416 1.842-9.456 1.925-.078.167 5.019 27.807 5.241 28.419.117.321 3.335-.797 21.021-7.301l20.882-7.679-.277-2.369c-1.82-15.568.882-30.826 8.04-45.394 13.221-26.906 40.287-44.416 70.687-45.727 26.906-1.161 53.493 11.581 69.128 33.13 1.319 1.817 2.685 3.755 3.038 4.305l.64 1.002 20.951-7.547c17.744-6.391 20.93-7.604 20.813-7.925zm-65.257 23.143c-.7-1.174-4.292-5.19-6.391-7.144-5.8-5.399-13.37-9.878-21.335-12.625-17.459-6.022-38.3-2.694-53.422 8.53-13.018 9.663-21.416 23.928-23.403 39.755-.328 2.611-.57 9.955-.348 10.564.023.065 1.961-.58 4.305-1.433l4.263-1.551-.038-1.144c-.066-1.978.805-8.516 1.488-11.181 2.027-7.9 5.142-13.946 10.513-20.403 7.976-9.586 20.716-16.16 33.644-17.358 13.028-1.207 26.765 3.11 36.491 11.467 2.036 1.75 4.899 4.599 6.032 6.002.301.373.782.255 4.522-1.106l4.185-1.523-.506-.85z" stroke="#fff" stroke-width="4" mask="url(#a)"/></g></svg>