<svg width="50" height="50" fill="none" xmlns="http://www.w3.org/2000/svg"><path fill-rule="evenodd" clip-rule="evenodd" d="M24.488 2.595c-.148.148-.27 2.483-.27 5.189v4.92l-2.006.477c-4.289 1.02-7.605 4.238-8.91 8.65l-.65 2.191-1.834.12c-2.069.134-2.119.028-1.42-3.004 1.129-4.895 5.304-9.786 9.73-11.4 1.805-.658 2.356-1.041 2.356-1.637 0-.669-.178-.743-1.27-.527-5.708 1.128-11.827 8.018-12.697 14.3l-.298 2.148-2.242.118c-1.91.1-2.243.228-2.243.867 0 .694.368.758 4.958.86l4.958.108.655 2.21c1.267 4.271 4.73 7.64 8.866 8.622l2.048.486v3.831l-1.934-.23c-5.66-.67-10.838-5.466-13.048-12.086-.125-.377-.52-.684-.877-.684-1.67 0 .72 5.792 3.769 9.126 2.274 2.489 6.16 4.656 9.631 5.368l2.424.499.115 2.171c.086 1.62.264 2.172.701 2.172.485 0 .605-.874.694-5.086l.109-5.086 2.037-.484c4.126-.98 7.59-4.354 8.854-8.62l.653-2.209 1.89-.121 1.891-.121-.256 1.87c-.34 2.474-2.157 6.289-3.935 8.256-1.741 1.928-4.553 3.778-7.018 4.618-1.319.45-1.797.805-1.701 1.265.337 1.621 5.391-.48 8.845-3.677 1.245-1.153 2.806-3.114 3.469-4.358 1.08-2.028 1.459-3.192 2.226-6.853.213-1.013.346-1.074 2.367-1.074 1.88 0 2.14-.095 2.14-.781 0-.747-.26-.781-5.859-.781h-5.86v.905c0 3.354-2.611 7.41-5.817 9.034-4.338 2.199-8.608 1.533-12.014-1.873-4.37-4.37-4.187-10.783.431-15.04 1.666-1.535 4.7-2.792 6.74-2.792h.916l-.108-5.925c-.101-5.537-.354-6.784-1.206-5.932zM35.142 9.24l-3.501 3.502V17.397l-3.711 3.696c-2.041 2.032-3.711 3.908-3.711 4.168 0 1.4 1.212.661 4.833-2.948l3.97-3.955H37.712l3.269-3.286c3.797-3.817 3.926-4.526.827-4.526h-1.965V8.64c0-1.237-.21-2.08-.6-2.403-.512-.424-1.118.02-4.102 3.003zm.064 2.274c-1.394 1.511-1.612 1.988-1.612 3.515v1.767h1.675c1.483 0 1.885-.215 3.515-1.869 1.013-1.028 1.841-1.975 1.841-2.105 0-.13-.615-.352-1.367-.493-1.196-.224-1.367-.4-1.367-1.41 0-1.637-.79-1.462-2.685.595zm-13.874 7.378c-3.297 1.995-4.395 6.426-2.425 9.788 2.634 4.495 9.552 4.495 12.186 0 1.125-1.92 1.304-4.592.295-4.393-.38.074-.853.848-1.159 1.896-1.434 4.924-7.281 5.783-9.918 1.456-1.94-3.18.097-7.277 4.013-8.078.738-.151 1.31-.533 1.386-.925.199-1.034-2.51-.875-4.378.256z" fill="#fff"/></svg>