<svg width="80" height="80" fill="none" xmlns="http://www.w3.org/2000/svg"><rect width="80" height="80" rx="40" fill="#2F57EF" fill-opacity=".1"/><path fill-rule="evenodd" clip-rule="evenodd" d="M33.76 21.956c-3.283 1.071-6.053 2.01-6.154 2.087-.26.198-.467.63-.467.977 0 .29.227.858.382.956.048.03.077.65.077 1.647v1.6h-.18c-.222 0-.632.277-.846.572-.141.194-.166.37-.208 1.486-.038.998-.123 1.7-.402 3.323-.195 1.132-.353 2.17-.353 2.307.002.399.298.852.685 1.052.32.165.435.176 1.876.174 1.721-.002 2.004-.068 2.336-.544.284-.408.27-.751-.118-3.013-.285-1.654-.373-2.378-.41-3.338-.04-1.079-.064-1.253-.205-1.447-.214-.295-.624-.573-.846-.573h-.18v-1.408c0-1.243.014-1.408.123-1.408.152 0 2.39.381 2.575.439.12.037.134.168.134 1.268 0 1.356.06 1.697.344 1.97l.192.183v2.582c0 2.437.008 2.6.155 2.91.153.323.557.671.897.775a.322.322 0 0 1 .205.223c.357 1.865.964 3.059 2.107 4.14.514.486.54.526.54.862v.352l-2.52 1.682-2.518 1.681-1.366.407c-1.49.445-2.264.807-2.977 1.394-.907.746-1.649 1.931-1.962 3.134-.125.485-.157.866-.166 2.022-.011 1.367-.005 1.431.155 1.596.213.218.625.219.797 0 .1-.125.132-.429.166-1.549.036-1.212.067-1.476.24-2.025a4.827 4.827 0 0 1 1.975-2.618c.444-.293 1.442-.663 2.86-1.058l.462-.129 2.637 1.6 4.33 2.63c.931.565 1.772 1.028 1.87 1.028.097 0 2.125-1.184 4.506-2.631l4.33-2.632 1.15.335c.632.185 1.355.43 1.608.547.65.3 1.35.867 1.764 1.43.433.589.578.873.806 1.582.17.527.177.664.206 3.76.033 3.453.015 3.672-.344 4.108-.342.415-.555.462-2.085.462h-1.38v-1.287c0-1.375-.048-1.611-.357-1.755-.262-.122-.36-.11-.59.075l-.202.162V58.866h-18.83V56.06l-.202-.162c-.23-.185-.328-.197-.59-.075-.308.144-.357.38-.357 1.755v1.287h-1.38c-1.53 0-1.743-.047-2.084-.461-.277-.337-.362-.7-.362-1.553 0-.835-.11-1.036-.563-1.036-.463 0-.548.192-.546 1.24.001.67.038 1.019.14 1.322.185.547.765 1.193 1.292 1.436l.403.186h27.328l.403-.186c.525-.242 1.107-.889 1.294-1.436.127-.375.14-.716.14-3.814 0-3.89-.025-4.104-.614-5.304-.596-1.212-1.401-2.052-2.557-2.666-.34-.18-1.145-.477-1.949-.716l-1.369-.408-2.516-1.683-2.515-1.682v-.35c0-.332.026-.374.54-.86 1.142-1.08 1.75-2.275 2.106-4.139.021-.108.124-.2.286-.255.299-.1.775-.577.89-.89.051-.139.081-1.17.081-2.784 0-2.502.004-2.567.16-2.712.306-.282.337-.438.376-1.868l.039-1.405 1.76-.3c.998-.169 1.876-.359 2.026-.438.776-.41.786-1.751.016-2.153-.393-.205-12.081-3.958-12.304-3.951-.124.004-2.912.884-6.196 1.956zm.327 1.112c-3.189 1.04-5.787 1.927-5.774 1.97.014.043.108.09.21.104.102.014.97.163 1.93.332l1.746.306 3.371-.43c2.602-.332 3.61-.43 4.417-.43 1.062 0 3.48.252 3.852.401.27.108.422.476.306.738-.165.37-.35.39-1.85.2-2.038-.259-2.759-.233-6.363.223-1.71.216-3.132.394-3.158.394-.026 0-.047.545-.047 1.212V29.3h14.544v-1.212c0-.917-.023-1.213-.096-1.214a10.9 10.9 0 0 1-.631-.079c-.389-.056-.573-.122-.67-.242-.178-.219-.17-.58.02-.772.175-.18.439-.195 1.346-.08.558.072.755.051 2.514-.257 1.05-.184 1.919-.368 1.932-.41.021-.066-11.269-3.784-11.649-3.836-.084-.011-2.762.83-5.95 1.87zm-6.565 7.875v.547H28.823V30.395H27.522v.548zm5.664.47v.938h.454c.376 0 .493-.035.689-.203.232-.2.235-.212.235-.938v-.736h-1.378v.938zm2.526-.134c0 .712-.023.854-.199 1.215-.335.688-.946 1.03-1.839 1.03h-.488l.002.724c0 .894.078 1.066.538 1.202.535.158.67.36.801 1.185.223 1.405.662 2.297 1.607 3.263 1.803 1.843 4.47 2.178 6.722.843.577-.342 1.529-1.316 1.88-1.922.358-.62.602-1.345.735-2.184.13-.826.267-1.027.801-1.185.46-.136.537-.308.539-1.203v-.723h-.487c-.892 0-1.504-.342-1.839-1.03-.176-.36-.2-.503-.2-1.215v-.805h-8.573v.805zm9.724-.082c.004.958.158 1.154.911 1.154h.388V30.474H45.434l.002.723zM27.41 32.84c-.067.303-.654 3.916-.654 4.023 0 .08.303.102 1.416.102 1.298 0 1.417-.01 1.416-.136 0-.135-.573-3.643-.651-3.99-.038-.167-.076-.175-.765-.175-.688 0-.726.008-.762.176zm9.776 10.233c.037.905.23 2.15.353 2.28.115.122 1.33.242 2.46.242s2.345-.12 2.46-.242c.123-.13.316-1.375.353-2.28.04-.929.035-.968-.104-.913-1.874.75-3.544.75-5.418 0-.139-.055-.143-.016-.104.913zm-2.928 1.606c-.947.628-1.765 1.182-1.817 1.232-.072.07.556.486 2.756 1.822 1.568.952 2.86 1.72 2.874 1.708.013-.012-.122-.264-.3-.559-.75-1.245-1.363-2.908-1.57-4.26-.069-.447-.147-.874-.173-.949-.04-.113-.33.052-1.77 1.006zm9.693-.97c-.019.098-.089.521-.156.94-.22 1.376-.816 2.985-1.568 4.233-.177.296-.312.548-.3.561.014.013 1.307-.755 2.876-1.707 2.236-1.357 2.83-1.75 2.755-1.824-.077-.075-3.143-2.124-3.48-2.327-.06-.036-.106.009-.127.123zm-5.824 3.367c.108.225.269.55.358.722.256.495 1.456 2.386 1.514 2.386.091 0 1.343-2.044 1.713-2.795l.355-.723-.709.058c-.9.073-1.818.073-2.718 0l-.71-.058.197.41z" fill="#2F57EF"/></svg>