<svg width="80" height="80" fill="none" xmlns="http://www.w3.org/2000/svg"><rect width="80" height="80" rx="40" fill="#2F57EF" fill-opacity=".1"/><g clip-path="url(#a)"><path fill-rule="evenodd" clip-rule="evenodd" d="M42.079 20.109c-.711.263-1.529 1.436-1.688 2.423-.041.255-.053.821-.026 1.258.042.69.03.826-.097 1.04-.08.135-.17.246-.203.246-.031 0-.268-.25-.525-.556l-.468-.556.154-.209c.19-.258.265-.686.164-.947-.116-.303-1.105-1.477-1.35-1.604-.396-.204-.794-.146-1.22.18-1.191.907-13.564 11.406-13.66 11.59-.152.296-.142.769.025 1.014.074.11.345.452.6.76.588.71.926.869 1.454.685.191-.066.367-.121.39-.122.095-.002.94 1.098.897 1.168-.026.041-.175.11-.332.154-.224.062-.415.046-.879-.073-1.282-.327-1.974-.28-2.947.197-.695.342-1.075.759-1.2 1.318-.168.75-.025 1.008 1.587 2.86 1.755 2.017 3.153 2.843 4.98 2.946 1.15.064 1.852-.096 4.531-1.036.973-.342 1.116-.371 1.836-.379.611-.006.836.023 1.035.13.348.191.529.496.52.878-.008.395-.194.69-.536.853-.46.218-.647.166-1.1-.306-.427-.444-.55-.494-.842-.34-.226.119-.285.218-.287.48-.003.54.685 1.238 1.372 1.392 1.034.23 2.158-.427 2.469-1.447.04-.133.074-.465.075-.737l.001-.496.951.05c.523.026 1.276.02 1.674-.016.398-.034.723-.054.723-.044 0 .01-.097.172-.215.359-.118.186-.76 1.684-1.426 3.328l-1.21 2.99-6.182 4.755c-3.4 2.616-6.204 4.813-6.23 4.884-.093.242-.05.435.142.627l.192.191H39.48l.572-.572c.641-.64.711-.859.38-1.189-.295-.296-.539-.248-1.012.2l-.413.39-5.91-.02-5.91-.02 5.424-4.167c2.982-2.292 5.49-4.243 5.572-4.336.082-.093.654-1.416 1.271-2.942.617-1.525 1.203-2.96 1.303-3.188.14-.32.413-.641 1.177-1.388 1.145-1.118 1.618-1.413 2.137-1.33.591.095.693.186 2.906 2.612.68.745.7.952.143 1.509-.323.323-.424.379-.682.379-.278 0-.356-.055-.943-.665-.38-.396-.777-.728-.978-.819-.601-.273-1.28-.17-1.742.266-.25.236-.276.3-.276.686 0 .54-.184 1.174-.475 1.633-.29.457-.297.786-.022 1.003.113.089.267.162.341.162.207 0 .525-.286.756-.681l.21-.357.14.174c.445.55 4.754 6.49 4.754 6.554 0 .114-.709.614-1.136.803-.3.133-.73.19-2.292.31a195.9 195.9 0 0 1-2.03.148c-.157.003-1.189 1.022-1.301 1.285-.173.403.114.826.559.826.067 0 .355-.223.64-.496l.52-.497 1.524-.094c.838-.051 1.615-.11 1.728-.132.174-.033.21-.007.248.18.039.196.908 1.694 1.5 2.588.424.639 1.282.841 1.871.441.65-.44 8.566-7.168 8.667-7.364.256-.503.219-1.06-.1-1.466-.222-.284-2.15-1.96-2.407-2.093-.349-.181-.938-.166-1.262.031-.144.088-.27.15-.279.137-.009-.013-.11-.188-.226-.39-.237-.413-.675-.806-1.032-.924-.24-.08-.241-.083-.207-.55.045-.632-.1-1.098-.474-1.523-.35-.398-.753-.632-1.213-.706-.305-.049-.31-.056-.356-.44-.092-.778-.687-1.457-1.468-1.677-.438-.123-.44-.126-.488-.472a2.237 2.237 0 0 0-.63-1.29c-.45-.438-.777-.565-1.45-.565-.628 0-.878.092-1.422.52l-.29.227-.323-.165c-.177-.09-.524-.2-.77-.244l-.447-.079.21-.799c.114-.44.291-1.336.392-1.993l.183-1.193.237.063c.13.034.466.062.745.06 1.148-.005 1.999-.803 2.092-1.961.033-.42.01-.548-.175-.926-.234-.478-.716-.895-1.033-.895-.248 0-.571.331-.571.585 0 .133.107.307.312.508.252.246.313.362.313.59 0 1.106-1.535 1.337-1.883.285-.226-.686.055-1.617.984-3.257 1.283-2.266 1.684-3.485 1.574-4.786-.14-1.655-.726-2.787-2.596-5.019-.66-.786-1.061-1.198-1.262-1.293-.39-.186-.927-.219-1.301-.08zm.07 1.383c-.54.598-.628.9-.604 2.085.023 1.139-.04 1.496-.332 1.897-.417.572-.418.558.052 1.101 1.271 1.47 2.243 3.11 2.687 4.536.077.247.16.449.184.449.088 0 1.342-2.331 1.563-2.906.618-1.604.49-2.916-.433-4.442-.34-.562-2.068-2.722-2.357-2.945-.228-.177-.458-.109-.76.225zm-11.29 6.403-6.616 5.568c-.008.009.15.199.352.423l.366.408.922-.784c.507-.432 1.008-.818 1.113-.858.238-.09.542.015.656.227.186.349.103.527-.503 1.071-.322.29-.586.55-.586.579 0 .123 3.02 3.626 3.565 4.135 1.431 1.336 3.458 2.377 5.491 2.82 1.548.337 3.048.374 5.062.122l.875-.109.473-.416c.26-.229.488-.47.507-.535.672-2.28.782-2.78.91-4.133.204-2.14-.263-4.55-1.257-6.483-.49-.954-1.03-1.688-2.693-3.663l-1.325-1.573-.394.333c-.893.755-7.307 6.14-7.766 6.52-.424.35-.538.408-.774.388-.375-.032-.615-.342-.509-.66.053-.16 1.408-1.344 4.755-4.159 2.575-2.164 4.691-3.96 4.703-3.99.025-.063-.594-.785-.673-.784-.028 0-3.022 2.499-6.653 5.553zm8.282 3.277c-.107.03-.648.338-1.2.682l-1.006.627-1.136-.5c-.625-.274-1.237-.5-1.361-.5-.307 0-.61.313-.61.63 0 .135.124.758.275 1.384l.275 1.14-.184.2c-1.257 1.374-1.537 1.744-1.537 2.031 0 .21.054.343.194.474.175.165.316.192 1.496.286.716.057 1.308.113 1.316.124.008.011.255.439.55.95.71 1.232.835 1.376 1.201 1.376.16 0 .351-.045.425-.099.118-.086 1.068-2.222 1.068-2.401 0-.086.043-.098 1.406-.389 1.266-.27 1.484-.401 1.484-.896 0-.32-.065-.394-1.093-1.257l-.882-.74c-.033-.028-.002-.636.07-1.35.12-1.189.12-1.315.007-1.489a.73.73 0 0 0-.758-.283zm-1.168 2.035c-.499.312-.819.462-.986.462-.137 0-.572-.143-.967-.319-.396-.175-.738-.3-.76-.278-.023.022.048.415.158.872.148.618.18.881.124 1.028-.041.11-.32.47-.62.803-.301.332-.547.624-.547.648 0 .024.378.07.84.1.462.03.928.101 1.035.157.115.059.373.408.625.849.237.412.45.749.475.75.026 0 .181-.342.347-.76.165-.418.377-.836.47-.93.1-.099.361-.208.63-.263.254-.052.649-.136.878-.188l.418-.093-.71-.602c-.422-.36-.728-.683-.758-.8-.027-.11-.01-.572.038-1.029.048-.456.079-.839.068-.85-.012-.011-.353.188-.758.443zm-10.98 4.355c-.514.273-1.31.323-1.964.126a4.5 4.5 0 0 0-1.045-.144c-.491-.005-.66.03-1.038.216-.555.271-.742.516-.611.803.142.31 1.652 2.05 2.338 2.692.684.64 1.236 1 1.934 1.262.608.227 2.07.247 2.847.038.688-.185 2.812-.935 2.812-.994 0-.026-.184-.137-.41-.248-1.158-.57-2.712-1.859-3.78-3.135-.332-.396-.623-.743-.648-.771-.024-.028-.22.042-.435.155zm19.552 3.735c-.342.244-.351.222.454 1.056l.535.554.217-.26c.287-.343.346-.685.18-1.034-.246-.519-.893-.666-1.386-.316zm2.166 2.151c-.405.225-.421.273-.222.666.205.406.236.88.09 1.382-.065.22-.255.483-.606.837-.744.75-.35.558.533-.258 1.263-1.17 1.494-1.44 1.494-1.75 0-.705-.718-1.193-1.289-.877zm-5.037 2.116c.002.092 5.188 7.233 5.43 7.477.1.1.148.08.385-.15l.271-.262-.344-.303c-.471-.414-.698-1.012-.638-1.68l.044-.483-.253-.083c-.62-.205-1.195-.94-1.278-1.637-.026-.227-.086-.399-.139-.399a3.41 3.41 0 0 1-.498-.12c-.423-.126-.887-.474-1.103-.83-.07-.114-.43-.527-.8-.918-.511-.538-.723-.71-.877-.71-.11 0-.2.044-.2.098zm6.99.125c-.128.084-.683.587-1.232 1.118-.936.904-.997.982-.996 1.26.002.408.178.713.499.865.558.265.665.211 1.988-1.005.979-.9 1.109-1.077 1.109-1.515 0-.676-.796-1.097-1.367-.723zm1.641 2.607c-.265.153-2.02 1.772-2.207 2.035-.357.504-.09 1.243.489 1.351.258.049.325.005 1.424-.912 1.545-1.29 1.505-1.247 1.505-1.65 0-.406-.164-.664-.515-.81-.314-.131-.487-.135-.696-.014zm-.638 4.284c-2.098 1.764-3.826 3.259-3.84 3.321-.029.127 1.304 2.35 1.443 2.408.11.045 8.426-6.934 8.426-7.072 0-.137-1.925-1.858-2.084-1.861-.072-.002-1.847 1.44-3.945 3.204z" fill="#2F57EF"/></g><defs><clipPath id="a"><path fill="#fff" transform="translate(20 20)" d="M0 0h40v40H0z"/></clipPath></defs></svg>