<svg width="80" height="80" fill="none" xmlns="http://www.w3.org/2000/svg"><rect width="80" height="80" rx="40" fill="#2F57EF" fill-opacity=".1"/><path fill-rule="evenodd" clip-rule="evenodd" d="m27.69 20.192-.191.192v3.636c0 3.497-.006 3.636-.146 3.636-.32 0-1.288.575-1.761 1.046-.904.898-1.216 1.783-1.216 3.446 0 1.522.234 2.378.866 3.176l.239.301h-.422c-2.121 0-4.01 1.559-4.357 3.594-.058.34-.079 1.908-.063 4.765l.024 4.258.247.522c.335.706.786 1.175 1.452 1.509.302.15.61.274.684.274.096 0 .15.085.184.293.075.458.46 1.192.859 1.632.2.222.363.417.363.436 0 .018-.185.115-.41.215-2.276 1.013-3.84 3.275-4.02 5.816-.044.63-.038.663.157.858.26.26.62.27.865.024.148-.148.188-.296.231-.857.107-1.386.642-2.536 1.647-3.541.703-.704 1.366-1.115 2.298-1.424.523-.173.733-.198 1.654-.198.92 0 1.13.025 1.654.198.931.31 1.594.72 2.298 1.424 1.005 1.005 1.54 2.155 1.646 3.54.06.78.222 1.037.652 1.037.43 0 .592-.257.652-1.036.106-1.386.641-2.536 1.646-3.541.704-.704 1.367-1.115 2.299-1.424.523-.173.733-.198 1.653-.198s1.131.025 1.654.198c.932.31 1.595.72 2.299 1.424 1.004 1.005 1.54 2.155 1.646 3.54.06.78.221 1.037.651 1.037.43 0 .592-.257.652-1.036.107-1.386.642-2.536 1.646-3.541.704-.704 1.367-1.115 2.299-1.424.523-.173.733-.198 1.654-.198.92 0 1.13.025 1.653.198.932.31 1.595.72 2.299 1.424 1.005 1.005 1.54 2.155 1.646 3.54.044.562.083.71.231.858.246.245.606.235.865-.024.195-.195.201-.227.157-.858a6.818 6.818 0 0 0-2.043-4.446c-.582-.574-1.452-1.171-2.054-1.41-.183-.072-.332-.156-.332-.186s.109-.159.242-.285c.366-.346.686-.845.864-1.344.203-.568.293-2.543.148-3.242-.358-1.72-1.945-3.026-3.676-3.026-1.355 0-2.712.837-3.316 2.043-.385.769-.459 1.235-.414 2.603.05 1.575.227 2.078 1.022 2.911.173.182.3.343.28.36-.018.015-.297.16-.62.32a7.013 7.013 0 0 0-2.877 2.68c-.158.267-.307.487-.333.488-.025 0-.14-.172-.255-.384-.598-1.099-1.759-2.202-2.921-2.777a14.077 14.077 0 0 1-.64-.328c-.019-.016.108-.177.28-.359.791-.829.968-1.331 1.022-2.909.048-1.366-.026-1.832-.413-2.605C42.086 45.837 40.729 45 39.374 45c-1.73 0-3.319 1.307-3.675 3.024-.146.705-.058 2.681.145 3.244.18.5.502.999.866 1.344.133.126.242.252.242.28 0 .027-.184.131-.41.232a6.918 6.918 0 0 0-2.413 1.818l-.38.457V42.5h25.868l.191-.192.192-.191V20.384l-.192-.192-.191-.192H27.882l-.191.192zm1.059 4.167v3.108l.562.132c.833.196 1.36.491 1.979 1.11.918.919 1.207 1.741 1.206 3.44 0 1.515-.182 2.198-.827 3.105l-.264.371h6.544l1.123-1.386c1.767-2.18 2.366-2.73 3.138-2.874l.29-.054v-8.427l.191-.192a.588.588 0 0 1 .867 0l.191.192v4.26c0 2.345.03 4.262.067 4.262.145 0 .809.662.97.967.13.248.17.46.172.919.002.587-.004.606-.377 1.152-.476.698-3.96 5.052-4.273 5.341l-.233.215h-6.326v1.25H58.75v-20H28.749v3.109zm-1.055 4.496c-.854.283-1.452.803-1.812 1.575-.212.454-.22.51-.22 1.758 0 1.25.008 1.303.222 1.766.276.597.81 1.129 1.42 1.413.397.186.569.219 1.132.219.564 0 .735-.033 1.133-.219a3.011 3.011 0 0 0 1.42-1.413c.214-.463.22-.517.22-1.767s-.006-1.303-.22-1.766a2.831 2.831 0 0 0-2.431-1.644c-.32-.015-.682.017-.864.078zm14.663 3.764c-.361.157-.9.73-2.323 2.474-.677.83-1.28 1.561-1.339 1.626-.093.102-1.038.122-7.277.156l-7.17.04-.59.29c-.711.352-1.154.805-1.498 1.53l-.247.523-.025 4.14c-.018 2.843.002 4.266.061 4.541.096.44.49.97.866 1.165.123.063.242.115.266.115.023 0 .043-2.129.043-4.73v-4.73l.192-.192a.588.588 0 0 1 .866 0l.192.191V45.927l.39-.262c1.862-1.254 4.436-.6 5.426 1.378.386.773.46 1.24.413 2.605-.054 1.557-.299 2.238-1.065 2.964-.133.126-.242.25-.242.276 0 .025.28.181.622.348.77.374 1.743 1.135 2.198 1.717l.344.44.039-8.172.04-8.172.184-.15c.175-.142.352-.149 3.534-.149h3.35l2.071-2.587c1.925-2.405 2.071-2.61 2.071-2.897 0-.449-.331-.767-.794-.763a1.844 1.844 0 0 0-.598.116zm-16.074 13.7c-.382.099-1.046.49-1.256.74a4.357 4.357 0 0 0-.404.628c-.204.387-.21.439-.21 1.688v1.29l.267.491c.297.549.543.786 1.13 1.091.341.177.498.208 1.064.208.566 0 .723-.03 1.063-.208.588-.305.833-.542 1.13-1.09l.268-.493v-1.289c0-1.249-.007-1.301-.21-1.688-.311-.589-.549-.835-1.075-1.116-.505-.269-1.278-.38-1.767-.253zm12.5 0c-.382.099-1.046.49-1.255.74a4.357 4.357 0 0 0-.404.628c-.204.387-.21.439-.21 1.688v1.29l.266.491c.298.549.543.786 1.131 1.091.34.177.497.208 1.063.208.567 0 .723-.03 1.063-.208.589-.305.834-.542 1.131-1.09l.267-.493v-1.289c0-1.249-.006-1.301-.21-1.688-.31-.589-.548-.835-1.075-1.116-.505-.269-1.278-.38-1.767-.253zm12.5 0c-.381.099-1.045.49-1.255.74a4.365 4.365 0 0 0-.404.628c-.204.387-.21.439-.21 1.688v1.29l.267.491c.297.549.543.786 1.13 1.091.34.177.497.208 1.064.208.566 0 .722-.03 1.063-.208.588-.305.833-.542 1.13-1.09l.268-.493v-1.289c0-1.249-.007-1.301-.21-1.688-.311-.589-.549-.835-1.075-1.116-.505-.269-1.278-.38-1.767-.253zM23.316 57.691c-.18.18-.191.242-.191 1.058 0 .816.011.878.192 1.058a.63.63 0 0 0 .433.192.63.63 0 0 0 .433-.192c.18-.18.192-.242.192-1.058 0-.816-.011-.878-.192-1.058a.63.63 0 0 0-.433-.192.63.63 0 0 0-.433.192zm6.25 0c-.18.18-.191.242-.191 1.058 0 .816.011.878.192 1.058a.63.63 0 0 0 .433.192.63.63 0 0 0 .433-.192c.18-.18.192-.242.192-1.058 0-.816-.011-.878-.192-1.058A.63.63 0 0 0 30 57.5a.63.63 0 0 0-.433.192zm6.25 0c-.18.18-.19.242-.19 1.058 0 .816.01.878.19 1.058a.63.63 0 0 0 .434.192.63.63 0 0 0 .433-.192c.18-.18.192-.242.192-1.058 0-.816-.011-.878-.192-1.058a.63.63 0 0 0-.433-.192.63.63 0 0 0-.433.192zm6.251 0c-.18.18-.192.242-.192 1.058 0 .816.012.878.192 1.058A.63.63 0 0 0 42.5 60a.63.63 0 0 0 .434-.192c.18-.18.191-.242.191-1.058 0-.816-.01-.878-.191-1.058a.63.63 0 0 0-.434-.192.63.63 0 0 0-.433.192zm6.25 0c-.18.18-.191.242-.191 1.058 0 .816.01.878.191 1.058a.63.63 0 0 0 .434.192.63.63 0 0 0 .433-.192c.18-.18.192-.242.192-1.058 0-.816-.012-.878-.192-1.058a.63.63 0 0 0-.433-.192.63.63 0 0 0-.434.192zm6.25 0c-.18.18-.191.242-.191 1.058 0 .816.011.878.192 1.058A.63.63 0 0 0 55 60a.63.63 0 0 0 .433-.192c.18-.18.192-.242.192-1.058 0-.816-.011-.878-.192-1.058A.63.63 0 0 0 55 57.5a.63.63 0 0 0-.433.192z" fill="#2F57EF"/></svg>